<svg width="28" height="28" viewBox="0 0 28 28" version="1.1" xmlns="http://www.w3.org/2000/svg"><g id="android" stroke="none" stroke-width="1" fill="none" fill-rule="evenodd"><rect id="Rectangle" x="0" y="0" width="28" height="28"></rect><path d="M4.60924011,9.4217892 C5.04683306,9.4217892 5.42199333,9.5780105 5.73448585,9.89045311 C6.04697837,10.2028957 6.20320113,10.5777704 6.20320113,11.0154063 L6.20320113,17.7340976 C6.20320113,18.1826403 6.04928199,18.5624513 5.74228994,18.8748939 C5.43468673,19.1873835 5.05689375,19.3436048 4.60924011,19.3436048 C4.16125737,19.3436048 3.78116078,19.1873365 3.46871527,18.8748939 C3.15622275,18.5624043 3,18.1826403 3,17.7340976 L3,11.0154063 C3,10.5778174 3.15626977,10.2028957 3.46871527,9.89045311 C3.78116078,9.5780105 4.16125737,9.4217892 4.60924011,9.4217892 Z M17.547004,3.39041524 C18.6613428,3.96410424 19.5521369,4.76307536 20.2188221,5.78906804 C20.8854133,6.81585993 21.2189204,7.93771034 21.2189204,9.15645275 L6.76603556,9.15645275 C6.76603556,7.93742827 7.09949568,6.81562487 7.76613386,5.78906804 C8.43277203,4.76307536 9.3287375,3.96410424 10.4537012,3.39041524 L9.34425165,1.34388328 C9.27114711,1.20839432 9.29705103,1.10482661 9.42219848,1.03144067 C9.55740662,0.968726495 9.66153945,1.00036566 9.73464399,1.1249478 L10.8596077,3.18783998 C11.8490811,2.75025109 12.896098,2.53098652 14.0003291,2.53098652 C15.1043252,2.53098652 16.151248,2.75020408 17.1410975,3.18783998 L18.2660142,1.1249478 C18.3387896,1.00036566 18.4429225,0.968444423 18.5784597,1.03144067 C18.7033251,1.10449752 18.729229,1.20839432 18.6564065,1.34388328 L17.547004,3.39041524 Z M11.1329387,6.36712917 C11.2523506,6.24743629 11.3124327,6.10442539 11.3127618,5.93757935 C11.3127618,5.77101538 11.2526327,5.62828656 11.1329387,5.50802954 C11.0129626,5.38833666 10.8696683,5.32849022 10.7031028,5.32849022 C10.5365373,5.32849022 10.3958287,5.38833666 10.2813061,5.50802954 C10.1667835,5.62800449 10.1095222,5.77101538 10.1095222,5.93757935 C10.1095222,6.10470747 10.1667835,6.24743629 10.2813061,6.36712917 C10.3958287,6.48738619 10.5362082,6.54723263 10.7031028,6.54723263 C10.8696683,6.54723263 11.0129626,6.48738619 11.1329387,6.36712917 Z M17.7187409,6.36712917 C17.8333105,6.24743629 17.8905248,6.10442539 17.8905248,5.93757935 C17.8905248,5.77101538 17.8333576,5.62828656 17.7187409,5.50802954 C17.6039362,5.38833666 17.4635567,5.32849022 17.2969912,5.32849022 C17.1300496,5.32849022 16.9868023,5.38833666 16.8670613,5.50802954 C16.7471322,5.62800449 16.6872852,5.77101538 16.6872852,5.93757935 C16.6872852,6.10470747 16.7471322,6.24743629 16.8670613,6.36712917 C16.9868023,6.48738619 17.1300496,6.54723263 17.2969912,6.54723263 C17.4632746,6.54723263 17.6039832,6.48738619 17.7187409,6.36712917 Z M6.82809214,20.1247113 L6.82809214,9.71838872 L21.1711557,9.71838872 L21.1711557,20.1250404 C21.1711557,20.6046111 21.0044961,21.0106079 20.6713651,21.3437828 C20.3375759,21.6769578 19.9367937,21.8435688 19.4681255,21.8435688 L18.2961963,21.8435688 L18.2961963,25.3904928 C18.2961963,25.8384714 18.1400205,26.2187995 17.827528,26.5312891 C17.5150355,26.8437787 17.1347038,27 16.6870032,27 C16.2389734,27 15.8589709,26.8437787 15.5464783,26.5312891 C15.2339858,26.2187995 15.0778101,25.8384243 15.0778101,25.3904928 L15.0778101,21.8435688 L12.9216258,21.8435688 L12.9216258,25.3904928 C12.9216258,25.8384714 12.765403,26.2187995 12.4529105,26.5312891 C12.140418,26.8437787 11.7600863,27 11.3123857,27 C10.8750748,27 10.4998675,26.8437787 10.187422,26.5312891 C9.87497649,26.2187995 9.71875374,25.8384243 9.71875374,25.3904928 L9.70291051,21.8432397 L8.54658945,21.8432397 C8.06729635,21.8432397 7.66129584,21.6766757 7.32783571,21.3435007 C6.99465766,21.0103258 6.82809214,20.6043291 6.82809214,20.1247113 Z M23.3908069,9.4217892 C23.8385076,9.4217892 24.2188392,9.57570691 24.5313317,9.88269611 C24.8438243,10.1902494 25,10.5679919 25,11.0154063 L25,17.7340976 C25,18.1826403 24.8438243,18.5624043 24.5313317,18.8748939 C24.2188392,19.1873835 23.8385076,19.3436048 23.3908069,19.3436048 C22.953449,19.3436048 22.5782887,19.1873835 22.2657962,18.8748939 C21.9533037,18.5624043 21.797128,18.1826403 21.797128,17.7340976 L21.797128,11.0154063 C21.797128,10.5680389 21.9533507,10.1902494 22.2657962,9.88269611 C22.5782887,9.57570691 22.9531669,9.4217892 23.3908069,9.4217892 Z" id="Combined-Shape" fill="#FFFFFF" fill-rule="nonzero"></path></g></svg>