<svg width="28" height="28" viewBox="0 0 28 28" version="1.1" xmlns="http://www.w3.org/2000/svg"><g id="ios" stroke="none" stroke-width="1" fill="none" fill-rule="evenodd"><rect id="Rectangle" x="0" y="0" width="28" height="28"></rect><path d="M23.6166608,20.4825902 C23.2385859,21.3560206 22.7910685,22.1600086 22.2725657,22.8991838 C21.5657969,23.9068694 20.9871107,24.6043792 20.5411365,24.9917132 C19.8497994,25.6274964 19.109081,25.9531039 18.3158951,25.9716218 C17.7464679,25.9716218 17.0597603,25.8095897 16.2604017,25.4808959 C15.4584198,25.1537453 14.721405,24.9917132 14.0475056,24.9917132 C13.3407368,24.9917132 12.5827351,25.1537453 11.7719571,25.4808959 C10.9599446,25.8095897 10.3057977,25.9808808 9.80565851,25.9978556 C9.04503335,26.030262 8.28687725,25.6953956 7.53011,24.9917132 C7.0470999,24.5704296 6.4429515,23.8482292 5.71920794,22.825112 C4.9426882,21.7325524 4.30428157,20.4656154 3.80414236,19.0212146 C3.2685104,17.4610766 3,15.9503198 3,14.4877096 C3,12.8122973 3.3620261,11.3672793 4.0871585,10.1563591 C4.65704868,9.18370328 5.41520478,8.41644252 6.36409586,7.85318793 C7.31298693,7.28993335 8.33826459,7.00290499 9.44239788,6.98454135 C10.0465463,6.98454135 10.8388063,7.17141842 11.8233444,7.53869127 C12.8051049,7.90719865 13.4354871,8.09407572 13.7118676,8.09407572 C13.9184972,8.09407572 14.6187846,7.8755638 15.8059401,7.43992882 C16.9285914,7.03592868 17.8760936,6.86864979 18.6523047,6.93454286 C20.7556362,7.10429082 22.3358354,7.93343242 23.3867295,9.42721444 C21.5056135,10.5669948 20.5750861,12.1633972 20.5936041,14.2113291 C20.6105789,15.8064969 21.1892651,17.133926 22.3265764,18.1879064 C22.8419929,18.6770892 23.4175928,19.0551642 24.0580055,19.3236746 C23.9191208,19.7264402 23.7725203,20.112231 23.6166608,20.4825902 L23.6166608,20.4825902 Z M18.7927326,1.50013921 C18.7927326,2.75042549 18.3359562,3.91781305 17.4254899,4.99833595 C16.3267577,6.28286502 14.9977855,7.02512654 13.5566254,6.90800045 C13.5382617,6.75800499 13.5276139,6.60013939 13.5276139,6.43424934 C13.5276139,5.23397697 14.050129,3.94944789 14.978033,2.899171 C15.4412906,2.36739694 16.0304704,1.92523438 16.744955,1.57251356 C17.4578964,1.22505493 18.1322587,1.03290024 18.7664988,1 C18.7850167,1.16714001 18.7927326,1.33429545 18.7927326,1.50012377 L18.7927326,1.50013921 Z" id="Shape" fill="#FFFFFF" fill-rule="nonzero"></path></g></svg>