<svg width="28px" height="26px" viewBox="0 0 96 96" version="1.1"><g id="Page-1" stroke="none" stroke-width="1" fill="none" fill-rule="evenodd"><g id="Artboard" transform="translate(-2.000000, -2.000000)" fill="#FFFFFF" fill-rule="nonzero"><path d="M50,98 C56.53125,98 62.7578125,96.734375 68.6796875,94.203125 C74.6015625,91.671875 79.703125,88.265625 83.984375,83.984375 C88.265625,79.703125 91.671875,74.6015625 94.203125,68.6796875 C96.734375,62.7578125 98,56.53125 98,50 C98,43.46875 96.734375,37.2421875 94.203125,31.3203125 C91.671875,25.3984375 88.265625,20.296875 83.984375,16.015625 C79.703125,11.734375 74.6015625,8.328125 68.6796875,5.796875 C62.7578125,3.265625 56.53125,2 50,2 C43.46875,2 37.234375,3.265625 31.296875,5.796875 C25.390625,8.328125 20.296875,11.734375 16.015625,16.015625 C11.734375,20.296875 8.328125,25.3984375 5.796875,31.3203125 C3.265625,37.2421875 2,43.46875 2,50 C2,56.53125 3.265625,62.7578125 5.796875,68.6796875 C8.328125,74.6015625 11.734375,79.703125 16.015625,83.984375 C20.296875,88.265625 25.3984375,91.671875 31.3203125,94.203125 C37.2421875,96.734375 43.46875,98 50,98 Z M56,88.015625 C55.4375,88.015625 54.9609375,87.8203125 54.5703125,87.4296875 C54.1796875,87.0390625 53.984375,86.5625 53.984375,86 L53.984375,86 L53.984375,71.65625 C51.078125,71 48.6875,69.484375 46.8125,67.109375 C44.9375,64.734375 44,62.03125 44,59 C44,57.90625 44.109375,56.90625 44.328125,56 L44.328125,56 L44,56 C40.0625,56 36.40625,55.0078125 33.03125,53.0234375 C29.65625,51.0390625 26.9765625,48.359375 24.9921875,44.984375 C23.0078125,41.609375 22.015625,37.953125 22.015625,34.015625 C22.015625,27.390625 24.5390625,22.1328125 29.5859375,18.2421875 C34.6328125,14.3515625 41.4375,12.265625 50,11.984375 C51.8125,11.984375 53.921875,12.171875 56.328125,12.546875 C56.828125,12.609375 57.234375,12.8359375 57.546875,13.2265625 C57.859375,13.6171875 58.015625,14.0625 58.015625,14.5625 C57.921875,20.4375 56.65625,25.65625 54.21875,30.21875 C55.03125,31.03125 55.65625,31.7109375 56.09375,32.2578125 C56.53125,32.8046875 56.9609375,33.59375 57.3828125,34.625 C57.8046875,35.65625 58.015625,36.78125 58.015625,38 C58.015625,39.09375 57.625,40.03125 56.84375,40.8125 C56.0625,41.59375 55.109375,41.984375 53.984375,41.984375 C53.359375,41.984375 52.78125,41.7734375 52.25,41.3515625 C51.71875,40.9296875 51.2734375,40.4765625 50.9140625,39.9921875 C50.5546875,39.5078125 50.0390625,39.0546875 49.3671875,38.6328125 C48.6953125,38.2109375 47.90625,38 47,38 C45.625,38 44.4453125,38.484375 43.4609375,39.453125 C42.4765625,40.421875 41.984375,41.609375 41.984375,43.015625 C41.984375,45.015625 42.9140625,46.6796875 44.7734375,48.0078125 C46.6328125,49.3359375 49.046875,50 52.015625,50 L52.015625,50 L59.984375,50 C63.890625,50 67.203125,51.359375 69.921875,54.078125 C72.640625,56.796875 74,60.109375 74,64.015625 C74,67.328125 73.34375,70.53125 72.03125,73.625 C70.71875,76.71875 69.1171875,79.28125 67.2265625,81.3125 C65.3359375,83.34375 63.375,84.96875 61.34375,86.1875 C59.3125,87.40625 57.53125,88.015625 56,88.015625 Z" id="g"></path></g></g></svg>