<svg viewBox="0 0 172 120" version="1.1" xmlns="http://www.w3.org/2000/svg" class="small-svg__SmallSVG-sc-1vgeaaz-0 bkBwTK"><defs><radialGradient cx="67.7641341%" cy="103.686863%" fx="67.7641341%" fy="103.686863%" r="571.922166%" id="radialGradient-1"><stop stop-color="#FED576" offset="0%"></stop><stop stop-color="#F47133" offset="26.3%"></stop><stop stop-color="#BC3081" offset="60.9%"></stop><stop stop-color="#4C63D2" offset="100%"></stop></radialGradient></defs><g id="1_Instagram" stroke="none" stroke-width="1" fill="none" fill-rule="evenodd"><rect id="BG" fill="#121212" opacity="0" x="0" y="0" width="172" height="120"></rect><g id="Insta" transform="translate(1.000000, 42.000000)" fill="#FFFFFF" fill-rule="nonzero"><path d="M50.2926806,6.09902765 C52.6065694,3.79070765 54.0411806,3.72014765 54.0411806,3.72014765 C54.5734724,3.71539706 55.100715,3.82533072 55.5881806,4.04270765 C56.6839722,4.42910765 56.745125,5.03726765 56.745125,5.03726765 L56.745125,21.9548677 C56.8872639,26.6857477 55.7270139,28.5018277 54.3419861,29.7668677 C53.9216632,30.1545534 53.3998313,30.4101386 52.8396111,30.5027077 C52.7512217,30.525243 52.6575467,30.5055977 52.5851498,30.4493428 C52.5127529,30.3930878 52.4695293,30.3063581 52.4677361,30.2137477 C52.4907253,29.8867849 52.5597432,29.5648655 52.6726806,29.2578277 C53.3718056,27.4316677 53.3139583,24.2934277 53.3139583,24.2934277 L53.3800694,6.08222765 C53.3800694,6.08222765 53.4346111,5.74622765 53.1552917,5.88398765 C50.4249028,8.26958765 50.081125,11.6396677 49.9935278,13.2726277 C49.9489028,15.7203877 50.9719722,16.9854277 50.9719722,16.9854277 C51.1313755,17.1361687 51.2172503,17.3507036 51.2066667,17.5717477 C51.2175012,17.6897364 51.1760687,17.8064992 51.0936332,17.8902925 C51.0111977,17.9740858 50.8963269,18.0162007 50.78025,18.0051877 C49.7522222,17.9043877 48.1126667,16.7283877 47.5308889,15.3003877 C47.2251964,14.6113873 47.0588293,13.8669723 47.0416667,13.1113477 C47.3000817,10.4612698 48.453539,7.98397532 50.3059028,6.10070765 L50.2926806,6.09902765 Z M169.524069,22.2488677 C169.524069,27.6819877 166.284625,27.5963077 166.284625,27.5963077 C163.200542,27.7055077 162.413819,24.3975877 162.222097,21.0342277 C162.073347,18.5024677 162.222097,15.6867877 162.222097,15.6867877 C162.222097,15.6867877 162.222097,15.5574277 162.114667,15.6867877 C161.081681,17.5851877 160.382556,20.4747877 160.038778,22.7058277 C159.887745,23.6943583 159.796121,24.6913263 159.764417,25.6911877 C159.797064,25.8845209 159.714848,26.079298 159.554514,26.1884677 C157.88025,26.9696677 156.804292,25.8608677 156.4225,24.6210277 C155.933278,23.4450277 155.61925,16.3823077 155.61925,16.0143877 C155.61925,15.6464677 155.330014,15.9001477 155.330014,15.9001477 C153.009514,19.8145477 152.989681,25.6172677 152.989681,26.7815077 C152.989681,27.9457477 151.031139,27.5879077 151.031139,27.5879077 C149.356875,27.4585477 149.421333,26.6303077 149.421333,26.6303077 L149.343653,25.2275077 C148.761875,26.3195077 147.684264,27.7139077 146.021569,27.6198277 C143.506042,27.4551877 143.021778,24.8091877 142.980458,24.3606277 C142.980458,24.3606277 141.727653,27.6534277 138.286569,27.6198277 C135.946236,27.5795077 135.007458,25.1334277 135.007458,25.1334277 C135.007458,25.1334277 134.065375,27.7038277 131.768014,27.6198277 C129.470653,27.5358277 127.569958,24.8310277 127.715403,21.3265477 C127.746478,19.5522917 127.979979,17.7876925 128.411222,16.0681477 C128.411222,16.0681477 128.597986,15.7321477 128.283958,15.6951877 C127.969931,15.6582277 125.983292,15.7287877 125.983292,15.7287877 C125.983292,15.7287877 124.859403,20.3101477 120.109319,26.0070277 L120.142375,29.7702277 C120.142375,33.5166277 119.682903,38.5398277 114.688208,38.9497477 C110.371153,38.6507077 110.615764,35.2705477 110.615764,35.2705477 C110.513292,34.2759877 111.128125,32.4447877 113.706458,29.9869477 L117.309514,26.5832677 L117.207042,25.0107877 C115.557569,27.7827877 113.037083,27.6282277 113.037083,27.6282277 C113.037083,27.6282277 111.078542,28.0314277 109.450556,25.0863877 C108.961333,26.0809477 107.873806,27.8180677 106.083847,27.6181477 C103.568319,27.3325477 103.069181,24.7873477 103.029514,24.3337477 C103.029514,24.3337477 101.773403,27.6567877 98.3108333,27.6181477 C95.9638889,27.5778277 95.0168472,25.1065477 95.0168472,25.1065477 C94.7557558,24.5608291 94.5572221,23.9864215 94.4251528,23.3946277 L94.3226806,23.7037477 C93.7888333,25.0914277 92.4715694,27.5039077 90.4469167,27.5341477 C86.7281667,27.5341477 86.5711528,21.6743077 86.5711528,21.6743077 C85.4852778,24.2951077 83.3845972,27.6047077 79.4691667,27.5845477 C75.5537361,27.5643877 75.0645139,26.1263077 75.0645139,25.9179877 C75.0375751,25.5149522 75.1757506,25.1185267 75.4463056,24.8226277 C75.8958611,24.1607077 76.2726944,23.8868677 76.60325,23.8868677 C76.9299026,23.9796787 77.230155,24.1501288 77.4792222,24.3841477 C77.9739535,24.8654697 78.6138872,25.1631842 79.295625,25.2291877 C80.5285972,25.1838277 80.7996528,24.1791877 80.8855972,23.1543877 C80.9715417,22.1295877 80.2575417,21.0342277 79.2708333,20.1203077 L77.5288056,18.5041477 L74.2596111,23.9775877 C72.3556111,27.1275877 70.4664861,27.6147877 69.7376111,27.5156677 C68.7459444,27.3762277 67.7790694,26.3312677 67.7212222,23.2719877 L67.946,14.7207877 C67.946,14.4469477 67.7013889,14.5813477 67.7013889,14.5813477 C63.9380139,18.6402277 62.8091667,26.9898277 62.8091667,27.1527877 C62.6752091,27.3954668 62.4096508,27.5310978 62.1381389,27.4955077 C61.8009722,27.4955077 62.2505278,27.4955077 60.9051667,27.4283077 C59.5598056,27.3611077 59.6523611,24.7957477 59.6523611,24.7957477 L59.7399583,12.3587077 C59.7399583,11.9454277 60.1415833,11.7673477 61.4191806,12.1100677 C62.6967778,12.4527877 62.6521528,12.8559877 62.6521528,12.8559877 L62.6075278,20.0799877 C65.9015139,10.2049477 68.3872917,11.7522277 69.8913194,12.5082277 C71.3953472,13.2642277 71.1689167,14.3495077 71.1689167,14.3495077 L70.9441389,21.6911077 C70.8780278,23.6063077 71.1424722,24.3572677 71.5721944,24.4295077 C72.6398889,24.6882277 76.3883889,17.3348677 76.3883889,17.3348677 C74.729,15.5087077 75.6347222,13.2793477 76.9271944,12.3150277 C77.5080672,11.9056798 78.1822692,11.6541116 78.8857361,11.5842277 C78.8857361,11.5842277 80.5649583,11.4951877 80.5219861,12.9332677 C80.5666111,14.5057477 78.8427639,16.4159077 78.8427639,16.4159077 C82.181375,18.8351077 83.7349861,20.1119077 83.996125,21.9834277 C84.0704966,22.4775412 84.0372079,22.9822278 83.8986111,23.4618277 C86.272,21.3618277 86.4538056,19.0148677 86.4538056,19.0148677 L86.4934722,11.1642277 L82.9730556,11.1188677 C82.9730556,11.1188677 82.7036528,11.1188677 82.6425,10.4300677 C82.5947478,9.76849543 82.832427,9.11852194 83.2936944,8.64926765 L86.6521389,8.69462765 L86.7843611,4.59038765 C86.89675,3.76718765 87.4124167,3.65462765 88.8883472,4.04270765 C90.3642778,4.43078765 90.3560139,4.77350765 90.3560139,4.77350765 L90.1907361,8.90294765 L94.3805278,9.13142765 C94.8763611,9.17678765 95.0317222,9.29942765 94.9193333,10.1394277 C94.9101871,10.5727316 94.6805752,10.9702006 94.3127639,11.1894277 L90.1477639,11.2784677 L89.8585278,20.3840677 C89.8585278,21.7952677 89.9246389,25.1300677 91.2237222,25.0880677 C93.0417778,25.1771077 94.111125,21.0476677 94.111125,21.0476677 L94.111125,21.0140677 C94.0872795,20.2520022 94.1148906,19.4891716 94.1937639,18.7309477 C94.5358889,15.4129477 96.0118194,11.5271077 99.3339028,11.5271077 C100.651913,11.5563237 101.846697,12.3218225 102.441125,13.5179077 L102.495667,12.7719877 C102.495667,12.7719877 102.422944,11.8715077 103.826153,12.0949477 C105.229361,12.3183877 105.710319,12.8811877 105.677264,13.3331077 L105.564875,22.5277477 C105.751639,24.5185477 106.088806,25.6827877 107.082125,25.6021477 C107.938264,25.4727877 108.549792,24.2833477 108.913403,23.2736677 C107.670514,12.7669477 113.318056,11.4918277 113.318056,11.4918277 C113.318056,11.4918277 115.823667,11.3238277 116.964083,13.4271877 L116.997139,12.7215877 C116.997139,12.7215877 116.88475,11.7908677 118.210278,12.0495877 C118.599313,12.1101808 118.981372,12.2103643 119.350694,12.3486277 C119.937431,12.5720677 120.124194,12.7215877 120.124194,13.2793477 L120.011806,23.6567077 C120.011806,23.6567077 122.948792,19.6364677 123.6975,15.7271077 C123.105765,15.2764674 122.746137,14.5780926 122.719056,13.8270277 C122.791778,12.7081477 123.347111,11.3691877 124.966833,11.3691877 C126.586556,11.3691877 126.718778,12.8274277 126.479125,13.8219877 C126.479125,13.8219877 127.839361,13.6539877 129.019444,13.3247077 C130.199528,12.9954277 131.779583,12.8274277 131.891972,14.7023077 C131.934156,15.1137088 131.857784,15.5287036 131.672153,15.8967877 C131.672153,15.8967877 130.736681,20.0463877 130.883778,21.7230277 C131.030875,23.3996677 131.470514,25.9314277 132.762986,25.6340677 C134.055458,25.3367077 134.495097,23.4752677 134.495097,23.4752677 C134.172753,21.945852 134.085221,20.3749389 134.235611,18.8183077 C134.577736,15.5255077 136.027222,11.6699077 139.355917,11.6699077 C140.670126,11.7007063 141.860243,12.4664739 142.449917,13.6607077 L142.489583,12.9147877 C142.489583,12.9147877 142.416861,12.0193477 143.816764,12.2427877 C145.216667,12.4662277 145.695972,13.0239877 145.656306,13.4691877 L145.543917,22.5915877 C145.730681,24.5823877 146.062889,25.7264677 147.05125,25.6458277 C148.039611,25.5651877 148.808153,23.9792677 149.307292,22.6604677 L149.307292,22.1631877 L149.337042,12.4763077 C149.366079,12.1674288 149.605291,11.9221683 149.908903,11.8899877 L151.054278,12.0697477 C152.657472,12.3133477 152.434347,12.9349477 152.434347,12.9349477 L152.434347,18.4083877 C153.624347,14.6922277 154.196208,13.2743077 154.735014,12.3267877 C155.194486,11.5203877 156.693556,12.0479077 156.693556,12.0479077 C156.693556,12.0479077 158.329806,12.4914277 158.346333,14.0387077 C158.29675,16.5654277 158.650444,20.6797477 158.650444,20.6797477 C158.650444,20.6797477 158.71325,20.7637477 158.743,20.7351877 C158.759468,20.7085272 158.768072,20.6776265 158.767792,20.6461477 C159.230561,17.8452615 160.03621,15.1142184 161.165972,12.5166277 C161.757667,11.3876677 163.471597,12.1890277 163.471597,12.1890277 C165.527653,12.9047077 165.248333,14.1445477 165.248333,14.1445477 C164.641764,24.7671877 165.934236,25.4375077 166.697819,25.5080677 C167.461403,25.5786277 167.863028,24.5723077 168.028306,24.0968677 C168.193583,23.6214277 168.408444,22.5747877 168.517528,22.1615077 C168.591391,21.9216199 168.800119,21.7505608 169.046417,21.7280677 C169.299275,21.7665487 169.497781,21.968325 169.535639,22.2253477 L169.524069,22.2488677 Z M100.156986,14.1092677 C99.4380278,14.1395077 97.7439306,14.6065477 97.4398194,19.4012677 C97.1357083,24.1959877 98.3852083,25.4257477 99.436375,25.5668677 C100.487542,25.7079877 102.373361,23.9876677 102.460958,18.8972677 C102.548556,13.8068677 100.155333,14.1092677 100.155333,14.1092677 L100.156986,14.1092677 Z M114.916292,14.1092677 C114.182458,14.1395077 112.341264,14.7913477 111.924764,19.4231077 C111.615694,24.2682277 112.903208,25.5215077 113.951069,25.6676677 C114.998931,25.8138277 116.888056,24.0716677 117.020278,18.9107077 C117.1525,13.7497477 114.916292,14.1344677 114.916292,14.1344677 L114.916292,14.1092677 Z M117.362403,28.9705477 C113.192444,32.6329477 112.830486,35.2487077 112.830486,35.2487077 C112.830486,35.2487077 112.417292,37.3923877 114.425417,37.4999077 C116.838472,37.7485477 117.245056,34.7682277 117.307861,32.1608677 L117.385542,28.9974277 L117.362403,28.9705477 Z M140.253375,14.2789477 C139.534417,14.3091877 137.840319,14.7762277 137.536208,19.5709477 C137.232097,24.3656677 138.481597,25.5954277 139.532764,25.7365477 C140.583931,25.8776677 142.46975,24.1573477 142.557347,19.0669477 C142.644944,13.9765477 140.251722,14.2789477 140.251722,14.2789477 L140.253375,14.2789477 Z" id="Shape"></path><g id="Group"><path d="M17.7418264,8.877623 C17.4312234,8.877623 17.1240149,8.89372524 16.8213325,8.92523962 C16.5186502,8.95675399 16.2201544,9.00345048 15.9267505,9.06475399 C15.6333466,9.12605751 15.3451478,9.20196805 15.0627196,9.2915655 L14.233766,9.60095847 L13.4445288,9.98833227 L12.6997604,10.4489712 L12.0038738,10.9780447 L11.3617346,11.5709521 L10.7778687,12.2230927 L10.2568024,12.9296358 L9.80306177,13.6859808 L9.42173855,14.4872971 C9.30711528,14.7613802 9.20516507,15.0423642 9.11690628,15.3292141 C9.0286475,15.6160639 8.95396699,15.9088946 8.89354366,16.2067859 C8.83312034,16.5046773 8.78718051,16.8077444 8.75606363,17.1151821 C8.72494675,17.4226198 8.70933174,17.7345431 8.70933174,18.0499169 C8.70933174,18.3652907 8.72517306,18.6772141 8.75606363,18.9846518 C8.78677961,19.2896528 8.832665,19.5928779 8.89354366,19.8931629 C8.95396699,20.1922045 9.0286475,20.483885 9.11690628,20.7707348 C9.20516507,21.0575847 9.30700213,21.3384537 9.42173855,21.6126518 L9.80306177,22.4139681 L10.2568024,23.1701981 L10.7778687,23.8768562 L11.3617346,24.5289968 L12.0038738,25.1219042 L12.6997604,25.6509776 L13.4445288,26.1116166 L14.233766,26.4989904 L15.0627196,26.8083834 L15.9267505,27.0351949 C16.2224409,27.097022 16.5210154,27.1436245 16.8213325,27.1748243 C17.1271715,27.206532 17.4344007,27.2223864 17.7418264,27.2223259 C18.0524294,27.2223259 18.3596379,27.2062236 18.6622071,27.1748243 C18.9625242,27.1436245 19.2610988,27.097022 19.5567891,27.0351949 L20.4209332,26.8083834 L21.2498868,26.4989904 L22.0390109,26.1116166 L22.7838924,25.6509776 L23.479779,25.1219042 L24.1220314,24.5289968 L24.7058972,23.8768562 L25.2269635,23.1701981 L25.6807042,22.4139681 L26.0620274,21.6126518 L26.3668597,20.7707348 C26.4551185,20.483885 26.529799,20.1910543 26.5902223,19.8931629 L26.7277023,18.9845367 C26.7587061,18.677099 26.7745474,18.3651757 26.7745474,18.0498019 C26.7745474,17.7344281 26.7587061,17.4225048 26.7277023,17.1150671 C26.6969864,16.8101041 26.651101,16.5069173 26.5902223,16.2066709 C26.529799,15.9076294 26.4551185,15.6160639 26.3668597,15.329099 L26.0620274,14.4871821 L25.6807042,13.6858658 L25.2269635,12.9295208 L24.7058972,12.2229776 L24.1220314,11.5708371 L23.479779,10.9779297 L22.7838924,10.4488562 L22.0390109,9.98821725 L21.2498868,9.60084345 L20.4209332,9.29145048 L19.5567891,9.06463898 L18.6622071,8.9251246 C18.3564079,8.89337837 18.0492164,8.87748558 17.7418264,8.87750799 L17.7418264,8.877623 Z M17.7418264,12.0435527 C17.9471978,12.0435527 18.1498536,12.0539042 18.3494542,12.074377 L18.9378461,12.1648946 L19.5062101,12.312115 L20.0504726,12.5130479 L20.567918,12.7649329 L21.0544728,13.0645495 L21.509345,13.4092524 L21.9286874,13.7959361 L22.3094449,14.2217252 L22.6489018,14.6836294 L22.9440029,15.1788882 L23.1918064,15.7045112 C23.2662606,15.8843962 23.3323416,16.0687668 23.3898229,16.257278 C23.4473043,16.4457891 23.4956203,16.6384409 23.5346579,16.8346581 C23.5736954,17.0308754 23.6025493,17.2305431 23.6237087,17.4333163 L23.6540335,18.050492 C23.6540335,18.259016 23.6438498,18.4648946 23.6237087,18.6677827 C23.6035676,18.8706709 23.5739217,19.0703387 23.5346579,19.2664409 C23.495394,19.4625431 23.4469649,19.6551949 23.3898229,19.8438211 L23.1918064,20.3965879 L22.9440029,20.9222109 L22.6489018,21.4173546 L22.3094449,21.8793738 L21.9286874,22.3051629 L21.509345,22.6918466 L21.0544728,23.0365495 L20.567918,23.3361661 L20.0504726,23.5880511 L19.5062101,23.788984 L18.9378461,23.9362045 L18.3494542,24.026607 C18.1475063,24.047177 17.9446725,24.0574647 17.7417133,24.0574313 C17.5387164,24.0574647 17.3358449,24.047177 17.1338592,24.026607 L16.5454673,23.9362045 C16.3523163,23.8964089 16.1626731,23.8471821 15.9769901,23.788984 L15.4327276,23.5880511 L14.9152822,23.3361661 L14.4287274,23.0365495 L13.9738552,22.6918466 L13.5545128,22.3051629 L13.1737553,21.8793738 L12.8342985,21.4173546 L12.5391973,20.9222109 L12.2913938,20.3965879 L12.0933773,19.8438211 L11.9485423,19.2664409 L11.8594915,18.6677827 C11.8392415,18.4626635 11.8291206,18.2566414 11.8291667,18.050492 C11.8291206,17.8443809 11.8392415,17.638397 11.8594915,17.4333163 C11.8795194,17.2305431 11.9092785,17.0307604 11.9485423,16.8346581 C11.987414,16.639913 12.0357898,16.4472533 12.0934904,16.257393 L12.2915069,15.7046262 L12.5393104,15.1790032 L12.8344116,14.6837444 L13.1738685,14.2218403 L13.5546259,13.7960511 L13.9739683,13.4093674 L14.4288405,13.0646645 L14.9153954,12.7650479 L15.4328408,12.5131629 C15.6109425,12.4371376 15.7926213,12.3700787 15.9772165,12.31223 L16.5456936,12.1650096 C16.7388445,12.1252141 16.9355032,12.0948498 17.1340855,12.074492 C17.3360712,12.053922 17.5389427,12.0436344 17.7419396,12.0436677 L17.7418264,12.0435527 Z" id="Shape"></path><path d="M27.1407082,6.26837061 C27.0689854,6.26838524 26.9973081,6.27207035 26.9259452,6.27941214 C26.8545824,6.2867433 26.7836227,6.29772187 26.713332,6.31230671 C26.6430513,6.32687669 26.5735267,6.34503355 26.5050186,6.36670927 C26.4365057,6.38839849 26.3690959,6.41358011 26.3030418,6.44215974 C26.2369862,6.47077284 26.172371,6.5027489 26.1094382,6.53796805 C26.0465024,6.57311836 25.9853238,6.61146656 25.9261315,6.65286901 C25.8669301,6.69431648 25.8097922,6.7387682 25.7549321,6.78605751 C25.7000968,6.83329992 25.647604,6.88331762 25.5976504,6.93592332 C25.5476894,6.98856132 25.5003326,7.04372287 25.4557575,7.10120128 C25.4111898,7.15868628 25.3694599,7.21841584 25.3307242,7.28016613 C25.2919983,7.34186921 25.2563108,7.4055141 25.2237953,7.47086262 C25.1912343,7.53626003 25.1618912,7.60328309 25.1358759,7.67168051 C25.1098962,7.74006568 25.0872753,7.80973736 25.0680977,7.8804345 C25.0489207,7.95112695 25.0332106,8.02275633 25.0210264,8.09505431 C25.0088389,8.16733382 25.0001909,8.24019152 24.9951145,8.31335463 C24.9915078,8.3651833 24.9896962,8.41712639 24.9896832,8.46908626 C24.9896815,8.54248901 24.9932691,8.61584588 25.0004326,8.68888179 C25.0075943,8.76188294 25.0183194,8.83447199 25.0325679,8.906377 C25.0468119,8.97828111 25.0645612,9.04941147 25.0857495,9.1195016 C25.1069575,9.18961171 25.13158,9.25859248 25.1595248,9.3261853 C25.1874671,9.39379832 25.2186985,9.45993852 25.2531017,9.52435783 C25.2874748,9.58876581 25.3249751,9.65137438 25.3654619,9.71194888 C25.4059584,9.77248279 25.4493876,9.83090717 25.4955871,9.88700319 C25.5417767,9.9431434 25.5906818,9.99688466 25.6421193,10.0480256 C25.6935809,10.0991349 25.7475088,10.1475788 25.8037007,10.1931757 C25.859889,10.2388046 25.9182731,10.2815289 25.9786342,10.3211885 C26.0390065,10.360848 26.1012804,10.3973921 26.1652223,10.4306837 C26.229118,10.4639923 26.2946018,10.4940106 26.3614284,10.5206262 C26.4282605,10.5472093 26.4963501,10.5703564 26.565442,10.5899808 C26.6345431,10.6095742 26.7045587,10.6256198 26.7752263,10.6380575 C26.8458841,10.6505477 26.9171081,10.659415 26.9886315,10.6646262 C27.0392819,10.6683039 27.0900436,10.6701453 27.1408214,10.670147 C27.2125423,10.6701706 27.2842195,10.6665238 27.3555844,10.6592204 C27.4269471,10.6518893 27.4979068,10.6409107 27.5681976,10.6263259 C27.6384783,10.6117559 27.7080029,10.593599 27.7765109,10.5719233 C27.8450238,10.5502341 27.9124336,10.5250525 27.9784878,10.4964728 C28.0445411,10.4678973 28.1091563,10.4359596 28.1720913,10.4007796 C28.2350295,10.3655918 28.2962082,10.3272052 28.355398,10.2857636 C28.414597,10.2443535 28.4717348,10.1999402 28.5265974,10.1526901 C28.5814355,10.1054103 28.6339283,10.0553542 28.6838791,10.0027093 C28.7338401,9.95007127 28.7811969,9.89490972 28.8257721,9.83743131 C28.8703397,9.77994631 28.9120696,9.72021675 28.9508054,9.65846645 C28.9895345,9.59672593 29.0252221,9.53304258 29.0577343,9.46765495 C29.0902953,9.40225754 29.1196384,9.33523449 29.1456536,9.26683706 C29.1716333,9.19845189 29.1942543,9.12878022 29.2134318,9.05808307 C29.2326089,8.98739063 29.248319,8.91576125 29.2605032,8.84346326 C29.2726906,8.77118376 29.2813387,8.69832605 29.2864151,8.62516294 C29.2900218,8.57333428 29.2918334,8.52139118 29.2918464,8.46943131 C29.2918443,8.39606692 29.2882567,8.32274854 29.2810969,8.2497508 C29.2739353,8.17674965 29.2632101,8.1041606 29.2489617,8.03225559 C29.2347177,7.96035148 29.2169683,7.88922112 29.1957801,7.81913099 C29.174572,7.74902088 29.1499495,7.68004011 29.1220048,7.61244728 C29.0940624,7.54483427 29.062831,7.47869407 29.0284278,7.41427476 C28.9940548,7.34986678 28.9565545,7.28725821 28.9160676,7.22668371 C28.8755375,7.16610797 28.8320704,7.1076451 28.7858293,7.05151438 C28.7396765,6.99537698 28.6908091,6.94163576 28.6394103,6.89049201 C28.5879486,6.83938267 28.5340208,6.79093877 28.4778288,6.74534185 C28.421638,6.69975217 28.3632539,6.65706627 28.3028954,6.61744409 C28.2425231,6.5777846 28.1802492,6.54124052 28.1163072,6.50794888 C28.0524115,6.47464032 27.9869277,6.444622 27.9201012,6.41800639 C27.853269,6.3914233 27.7851795,6.36827618 27.7160876,6.34865176 C27.6469884,6.32901971 27.5769728,6.31293572 27.5063032,6.30046006 C27.4356436,6.28800842 27.3644196,6.27917951 27.292898,6.27400639 C27.2422477,6.2703287 27.1914859,6.26848729 27.1407082,6.26848562 L27.1407082,6.26837061 Z" id="Path"></path><path d="M16.0289271,0.105814696 C15.0465389,0.104204473 14.1698349,0.108345048 13.382295,0.119616613 L11.2708733,0.177124601 C10.6453674,0.204728435 10.0927316,0.240728435 9.59667199,0.287309904 C9.34864217,0.310543131 9.11464324,0.336536741 8.89286475,0.365175719 C8.68181977,0.392213516 8.471349,0.423696321 8.26158813,0.459603834 C8.06187433,0.494108626 7.87234425,0.531373802 7.69062167,0.571859425 C7.50889909,0.612345048 7.33532348,0.656051118 7.16785809,0.702977636 C7.00414509,0.748864851 6.84170966,0.799337755 6.68073749,0.854338658 C6.52300319,0.908396166 6.36911608,0.965674121 6.21715256,1.02686262 C5.91322551,1.14923962 5.61676651,1.28656869 5.31148163,1.44046006 C5.07657748,1.55892652 4.85955138,1.67888818 4.65338791,1.80586581 C4.44722444,1.93284345 4.25192359,2.06695208 4.06069622,2.21302236 C3.86376285,2.36418344 3.6739468,2.52469373 3.49187966,2.69401917 C3.30155751,2.87022364 3.10716187,3.06402556 2.90518504,3.28060064 C2.65138445,3.55123323 2.43085064,3.80357827 2.23509718,4.05120767 C2.13722045,4.17496486 2.04556709,4.29734185 1.9592319,4.42040895 C1.87385109,4.54169183 1.79222827,4.66566315 1.71448349,4.79214058 C1.63753994,4.91750799 1.56466986,5.04517572 1.49496805,5.17652396 C1.42417944,5.31013479 1.35727744,5.44583579 1.29434904,5.58345048 C1.16558174,5.86454952 1.045414,6.16727157 0.925472577,6.5051885 C0.836491374,6.75500384 0.756813224,7.0081423 0.686608094,7.2640639 C0.614982694,7.52561022 0.551277955,7.79923323 0.494475506,8.09516933 C0.437673056,8.39110543 0.388112354,8.70935463 0.344548722,9.06130351 C0.297604298,9.4470952 0.26010159,9.83401342 0.232075346,10.2216997 C0.200392705,10.6479489 0.174141374,11.116984 0.152642439,11.6390415 L0.101723908,13.3748626 L0.0743410543,15.4908115 L0.066420394,18.0484217 L0.0896166134,21.7676933 L0.162034079,24.5855847 L0.217818158,25.6862875 L0.287519968,26.5983642 C0.309863775,26.8442048 0.337819923,27.089485 0.371365815,27.3340064 C0.401916933,27.5511565 0.434731097,27.7411629 0.470034611,27.9056358 C0.541668104,28.2400231 0.626373123,28.5713782 0.723948349,28.8989137 C0.817375279,29.2125097 0.924217185,29.5218134 1.04416933,29.8259425 C1.16207401,30.1238339 1.29106763,30.4111438 1.43137646,30.6876422 C1.5716853,30.9641406 1.72330937,31.2298275 1.88624867,31.4850479 C2.04918797,31.7402684 2.22344249,31.9850224 2.40946486,32.2193099 C2.59527604,32.4536152 2.79291678,32.6779676 3.00159079,32.8914633 C3.21058307,33.105393 3.43100373,33.3089712 3.66330538,33.5024281 C3.89835538,33.6980919 4.142679,33.8819537 4.39540069,34.0533546 C4.62996539,34.2127668 4.86204073,34.358722 5.09581337,34.4927157 C5.329586,34.6267093 5.56539537,34.7482812 5.80776757,34.8588115 C6.05013978,34.9693419 6.2986222,35.0688307 6.55819356,35.1583131 C6.81776491,35.2477955 7.08819888,35.3273866 7.37402157,35.3980064 C7.65984425,35.4686262 7.96241347,35.5306198 8.28263445,35.5846773 C8.60285543,35.6387348 8.94514111,35.6850863 9.31084931,35.7249968 C9.67655751,35.7649073 10.0667066,35.7979169 10.4859358,35.8255208 C10.9051651,35.8531246 11.3532481,35.8752077 11.8347111,35.8929201 C12.5784611,35.9202939 13.7043264,35.9362812 15.0026358,35.942377 L19.2056776,35.9337508 L23.1856962,35.8770479 L24.6989949,35.8338019 L25.6848908,35.7822748 C25.8964856,35.7647923 26.1035543,35.7440895 26.3033813,35.7198211 C26.5032082,35.6955527 26.7003195,35.6678339 26.8922258,35.6363195 C27.0841321,35.6048051 27.2717386,35.5696102 27.4560636,35.5305048 C27.6382616,35.4919367 27.8195098,35.4488697 27.9996472,35.4013419 C28.1779752,35.3553355 28.3538139,35.3030032 28.5278421,35.2474505 C28.7018703,35.1918978 28.8740881,35.1318594 29.0452875,35.0674505 C29.2174731,35.0026306 29.3880818,34.9335622 29.5569622,34.8603067 C29.7270301,34.7866965 29.8968717,34.7080256 30.067279,34.624524 C30.3290003,34.4963962 30.5396898,34.3895463 30.7246938,34.2852268 C30.8987141,34.1881815 31.0663102,34.079682 31.2264111,33.9604217 C31.3843717,33.8421853 31.5414271,33.7076166 31.7224707,33.5380831 C31.9035144,33.3685495 32.1086595,33.1642812 32.3626864,32.9059553 C32.5859358,32.6791438 32.7742212,32.4820064 32.9365948,32.3026965 C33.0989683,32.1233866 33.2357694,31.9620192 33.3557109,31.8065176 C33.4700557,31.6589668 33.5765704,31.5053169 33.6748003,31.3462236 C33.7706403,31.1909521 33.8588991,31.0296997 33.9488552,30.8508498 C34.0841853,30.5817125 34.2045793,30.3324728 34.3124135,30.0919744 C34.4171232,29.8602029 34.5127739,29.6243124 34.5991414,29.3848562 C34.6842208,29.1472911 34.7578944,28.9056644 34.8199015,28.6608307 C34.8837194,28.4089457 34.9387114,28.1430288 34.9862354,27.8513482 C35.0337593,27.5596677 35.0739284,27.2422236 35.1087793,26.8877444 C35.1436302,26.5332652 35.1732761,26.1415208 35.1993011,25.7013546 L35.268324,24.2237444 L35.3276158,22.3861342 L35.3699348,20.3388498 L35.3862287,18.1981725 L35.3484358,13.9937636 L35.2978568,12.110607 L35.2288339,10.4937125 L35.1428381,9.23313738 C35.1116081,8.88233866 35.0778887,8.60607029 35.0421326,8.41928435 C35.0025682,8.21290051 34.9583518,8.00746628 34.9095181,7.80314377 C34.8619949,7.60432746 34.809741,7.4067104 34.7528022,7.21046645 C34.6972985,7.01927336 34.6370065,6.82955033 34.5719848,6.64148243 C34.5077143,6.45573163 34.4395966,6.27389137 34.3683107,6.09596166 C34.2970248,5.91803195 34.2198549,5.74424281 34.1395168,5.57413419 C34.0591786,5.40402556 33.9749933,5.23805751 33.8866214,5.07588498 C33.7982495,4.91371246 33.7061435,4.7555655 33.6098509,4.60132907 C33.5135583,4.44709265 33.4133054,4.29676677 33.3088658,4.15046645 C33.2050243,4.00463282 33.0967224,3.86213508 32.9841187,3.72318211 C32.8720834,3.58499013 32.7557802,3.45043098 32.6353834,3.31970607 C32.5151566,3.18914403 32.3908907,3.06248625 32.2627729,2.93992332 C32.1345714,2.81731629 32.0025226,2.69861981 31.8662873,2.58383387 C31.7295526,2.46866886 31.5893268,2.3578549 31.4458134,2.25155272 C31.3007763,2.14416329 31.1525534,2.04129127 31.0013512,1.94307987 C30.8480796,1.84347058 30.6919363,1.74850234 30.533127,1.65830032 C30.3715413,1.56658678 30.2074031,1.479599 30.0409145,1.39744409 C29.7645966,1.26092013 29.5090988,1.13980831 29.2582401,1.03238339 C29.0116635,0.925770124 28.7602594,0.831082657 28.5048722,0.748638978 C28.2480165,0.666402556 27.9806376,0.595897764 27.6864417,0.535054313 C27.3922457,0.474210863 27.071459,0.423488818 26.7083533,0.380357827 C26.3452476,0.337226837 25.9398229,0.302376997 25.4761249,0.273392971 C25.0124268,0.244408946 24.4909079,0.221635783 23.8953874,0.203233227 L21.8715455,0.157226837 L19.3101171,0.126517572 L16.0300586,0.106044728 L16.0289271,0.105814696 Z M17.7324348,3.26898403 L22.4625399,3.29635783 L24.2469515,3.33132268 C24.7383719,3.34535463 25.1133586,3.36180192 25.3332135,3.38077955 C25.6194888,3.40527796 25.8921858,3.43598722 26.1530019,3.47279233 C26.4033132,3.50792567 26.6523894,3.55161817 26.899807,3.60379553 C27.1374268,3.65440256 27.3640708,3.71191054 27.5809838,3.77677955 C27.7978967,3.84164856 28.0050785,3.91433866 28.2038871,3.99473482 C28.4026957,4.07513099 28.5927915,4.16357827 28.7757588,4.26042173 C28.9572539,4.3565343 29.133639,4.46230403 29.30418,4.57729073 C29.4739084,4.69173163 29.6375266,4.81502875 29.7963924,4.9478722 C29.9552583,5.08071565 30.1092585,5.22310543 30.2596379,5.37538658 C30.4183906,5.5360639 30.5648096,5.69973163 30.6998003,5.86857508 C30.8342856,6.03637067 30.958714,6.21224132 31.0724108,6.39523323 C31.1874073,6.58083061 31.2910255,6.77346515 31.3826744,6.97203834 C31.4763645,7.17446645 31.5605498,7.38839617 31.6361355,7.61578275 C31.7117212,7.84316933 31.7790469,8.08481789 31.8386781,8.34302875 C31.9011337,8.61678125 31.9534469,8.89282265 31.9955072,9.17056869 C32.0407681,9.46500958 32.0794662,9.77900319 32.1122804,10.1151949 C32.1450945,10.4513866 32.1722511,10.8098914 32.1946552,11.1934696 C32.2125333,11.5011374 32.2281483,11.9071438 32.2413871,12.3866454 L32.2745407,14.0215974 L32.2998868,18.0264537 L32.271033,22.0275144 L32.2364084,23.6577508 L32.1887713,24.8434505 C32.1557308,25.3986326 32.1208799,25.8653674 32.0792399,26.2716038 C32.0583067,26.474722 32.0356763,26.6626581 32.0105564,26.8389776 C31.9870357,27.0055561 31.9591526,27.171468 31.9269369,27.3365367 C31.8975157,27.4871289 31.863364,27.6367261 31.8245341,27.785099 C31.7873422,27.9266898 31.7454901,28.0669731 31.6990482,28.2057125 C31.6522604,28.3451034 31.6013565,28.4830316 31.5464058,28.6193099 C31.4883181,28.7632161 31.4270113,28.9057579 31.3625333,29.0468243 C31.3051651,29.1727668 31.2448549,29.2952588 31.181037,29.4145304 C31.1179383,29.5325919 31.0509135,29.6484414 30.9800785,29.7618786 C30.9099241,29.8742492 30.8363751,29.9833994 30.7594316,30.089099 C30.6829148,30.1944538 30.6026751,30.2969617 30.5188698,30.3964217 C30.4353343,30.495472 30.348262,30.5913827 30.2578275,30.6839617 C30.1673056,30.7765495 30.0733892,30.8659169 29.9760783,30.9521789 C29.8787673,31.0384409 29.7778355,31.1212524 29.6733959,31.2010735 C29.5689563,31.2808946 29.4608959,31.3574952 29.3492146,31.4308754 C29.2375333,31.5042556 29.1223442,31.5746454 29.0034212,31.6418147 C28.8844981,31.708984 28.7618411,31.7731629 28.6356763,31.8342364 C28.5073271,31.8962257 28.3771814,31.9542964 28.245414,32.0083706 C28.1091997,32.0642179 27.9714774,32.1161871 27.8324081,32.1642173 C27.5495274,32.2622109 27.2511448,32.3482428 26.9370341,32.4224281 C26.6096673,32.4992715 26.2792741,32.5621254 25.9467252,32.6108243 C25.8188632,32.6298019 25.5250067,32.6476294 25.1040801,32.6641917 L23.5000333,32.709508 L18.9524428,32.7695463 L14.1925785,32.7771374 L12.3233027,32.7568946 L11.1095181,32.7184792 L10.2144835,32.6545304 C9.93658147,32.630722 9.67814164,32.6042684 9.43599574,32.5742492 C9.19384984,32.54423 8.96833733,32.5107604 8.75617678,32.4730351 C8.55512517,32.4376963 8.35529862,32.3954999 8.15703541,32.3465176 C7.97625849,32.3018164 7.79733199,32.24971 7.62069356,32.1903259 C7.45039936,32.1328179 7.28757322,32.0695591 7.12916001,31.9999744 C6.97074681,31.9303898 6.81685969,31.8541342 6.66444356,31.7708626 C6.51202742,31.6875911 6.36119542,31.5971885 6.20866613,31.4986198 C6.09359026,31.4243195 5.98236155,31.349099 5.87531949,31.269393 C5.76827742,31.1896869 5.66485623,31.1102109 5.56528222,31.0269393 C5.4657082,30.9436677 5.37009452,30.8578658 5.2778754,30.7695335 C5.18626953,30.6816247 5.09780273,30.5903965 5.01264643,30.4960256 C4.92778222,30.4019425 4.84665202,30.305099 4.76880325,30.2048051 C4.69065284,30.1041183 4.61618565,30.0005334 4.54555378,29.894262 C4.47387437,29.7863709 4.40605195,29.6758836 4.34221912,29.563016 C4.27772231,29.4491502 4.21639377,29.3313738 4.15812034,29.2099169 C4.09887065,29.0861356 4.04358556,28.9604337 3.99235224,28.8330096 C3.94030218,28.7032716 3.89096778,28.569393 3.84457535,28.4311438 C3.75179047,28.1545304 3.67032082,27.8600895 3.59948749,27.5460958 C3.52865415,27.2321022 3.46823083,26.8985559 3.417086,26.5431565 C3.36594116,26.1877572 3.32475373,25.8109649 3.29193956,25.4104792 C3.26772497,25.1154633 3.24848908,24.6559744 3.23377929,24.0762939 L3.20300186,22.0146326 L3.21431709,16.7589776 L3.30336794,11.7369201 L3.37125932,9.96751438 L3.4097311,9.38265815 C3.42308307,9.22646645 3.43688765,9.11076038 3.45103168,9.04129073 C3.49765043,8.81275399 3.54460863,8.60008946 3.59315096,8.40099681 C3.63849691,8.21317396 3.68894439,8.02666177 3.74443557,7.84167412 C3.79716454,7.66707987 3.85272231,7.50352716 3.91212726,7.34860064 C3.96940992,7.19852175 4.03325362,7.05111631 4.10346778,6.90682428 C4.17203807,6.76650479 4.24570021,6.63216613 4.32569888,6.50139297 C4.40569755,6.37061981 4.49203275,6.24375719 4.58617545,6.11758466 C4.68031816,5.99141214 4.78170261,5.86684984 4.89202609,5.7405623 C5.00234957,5.61427476 5.12149894,5.48672204 5.25071885,5.35525879 C5.40131774,5.20130785 5.55813057,5.05376905 5.72075346,4.91302236 C5.8743076,4.78023304 6.03443838,4.65550804 6.20051917,4.53933546 C6.36379792,4.42431949 6.53126331,4.32195527 6.70563099,4.2278722 C6.87999867,4.13378914 7.06126864,4.04879233 7.25193024,3.97230671 C7.44259185,3.89582109 7.64287141,3.82738658 7.85503195,3.76527796 C8.07792091,3.70172681 8.30328392,3.64750859 8.53055112,3.60276038 C8.76952875,3.55514377 9.02332934,3.513623 9.29432907,3.47739297 C9.56532881,3.44116294 9.85364084,3.40987859 10.1618677,3.38273482 C10.376857,3.3638722 10.7473176,3.34707987 11.2351171,3.33293291 L13.0104766,3.29727796 L17.7332268,3.26794888 L17.7324348,3.26898403 Z" id="Shape"></path></g></g></g></svg>