<svg viewBox="0 0 133 120" version="1.1" xmlns="http://www.w3.org/2000/svg" class="small-svg__SmallSVG-sc-1vgeaaz-0 faupH"><g id="spotify-logo" stroke="none" stroke-width="1" fill="none" fill-rule="evenodd"><g id="spotify-logo-inner-wrapper" transform="translate(1, 40)"><path fill="#fff" d="M 20.046875 0 C 9.054688 0 0.140625 8.953125 0.140625 20 C 0.140625 31.046875 9.050781 40 20.042969 40.003906 C 31.035156 40.003906 39.949219 31.046875 39.949219 20 C 39.949219 8.957031 31.039062 0 20.046875 0 Z M 29.175781 28.847656 C 29.007812 29.128906 28.730469 29.332031 28.410156 29.410156 C 28.089844 29.488281 27.753906 29.433594 27.472656 29.261719 C 22.800781 26.398438 16.917969 25.742188 9.988281 27.332031 C 9.550781 27.449219 9.082031 27.316406 8.769531 26.988281 C 8.457031 26.65625 8.351562 26.183594 8.488281 25.746094 C 8.628906 25.3125 8.988281 24.988281 9.4375 24.902344 C 17.015625 23.164062 23.519531 23.910156 28.765625 27.132812 C 29.351562 27.492188 29.535156 28.257812 29.175781 28.847656 Z M 31.613281 23.402344 C 31.164062 24.136719 30.207031 24.367188 29.476562 23.914062 C 24.125 20.609375 15.972656 19.65625 9.640625 21.585938 C 9.105469 21.765625 8.515625 21.636719 8.101562 21.253906 C 7.6875 20.871094 7.511719 20.289062 7.640625 19.738281 C 7.773438 19.1875 8.195312 18.753906 8.738281 18.601562 C 15.964844 16.398438 24.953125 17.464844 31.09375 21.257812 C 31.828125 21.707031 32.054688 22.667969 31.609375 23.402344 Z M 31.824219 17.730469 C 25.40625 13.910156 14.824219 13.550781 8.703125 15.417969 C 7.71875 15.71875 6.675781 15.160156 6.378906 14.167969 C 6.082031 13.179688 6.636719 12.136719 7.621094 11.835938 C 14.652344 9.6875 26.335938 10.105469 33.722656 14.511719 C 34.609375 15.039062 34.898438 16.1875 34.375 17.074219 C 33.847656 17.960938 32.707031 18.253906 31.824219 17.726562 Z M 31.824219 17.730469 "></path><path fill="#fff" d="M 54.289062 18.464844 C 50.855469 17.640625 50.25 17.0625 50.25 15.847656 C 50.25 14.703125 51.324219 13.9375 52.925781 13.9375 C 54.472656 13.9375 56.011719 14.523438 57.621094 15.730469 C 57.667969 15.769531 57.730469 15.785156 57.789062 15.773438 C 57.847656 15.765625 57.902344 15.730469 57.9375 15.679688 L 59.617188 13.304688 C 59.679688 13.207031 59.660156 13.074219 59.574219 12.996094 C 57.714844 11.472656 55.375 10.65625 52.972656 10.699219 C 49.265625 10.699219 46.671875 12.9375 46.671875 16.140625 C 46.671875 19.570312 48.90625 20.785156 52.773438 21.726562 C 56.058594 22.488281 56.613281 23.125 56.613281 24.265625 C 56.613281 25.527344 55.492188 26.3125 53.6875 26.3125 C 51.679688 26.3125 50.042969 25.632812 48.222656 24.039062 C 48.175781 24.003906 48.117188 23.984375 48.058594 23.988281 C 47.996094 23.992188 47.941406 24.019531 47.902344 24.066406 L 46.019531 26.316406 C 45.945312 26.410156 45.957031 26.546875 46.042969 26.628906 C 48.117188 28.519531 50.820312 29.5625 53.617188 29.550781 C 57.617188 29.550781 60.199219 27.355469 60.199219 23.957031 C 60.183594 21.066406 58.476562 19.488281 54.289062 18.464844 Z M 54.289062 18.464844 "></path><path fill="#fff" d="M 69.230469 15.058594 C 67.496094 15.058594 66.074219 15.746094 64.902344 17.148438 L 64.902344 15.574219 C 64.898438 15.449219 64.800781 15.351562 64.679688 15.347656 L 61.601562 15.347656 C 61.542969 15.347656 61.484375 15.371094 61.441406 15.414062 C 61.398438 15.457031 61.375 15.511719 61.378906 15.574219 L 61.378906 33.152344 C 61.382812 33.273438 61.480469 33.371094 61.601562 33.378906 L 64.679688 33.378906 C 64.800781 33.371094 64.898438 33.273438 64.902344 33.152344 L 64.902344 27.597656 C 65.976562 28.875 67.566406 29.597656 69.230469 29.566406 C 72.449219 29.566406 75.710938 27.074219 75.710938 22.3125 C 75.710938 17.550781 72.449219 15.058594 69.230469 15.058594 Z M 72.132812 22.3125 C 72.132812 24.738281 70.644531 26.429688 68.515625 26.429688 C 66.386719 26.429688 64.824219 24.660156 64.824219 22.3125 C 64.824219 19.964844 66.414062 18.199219 68.515625 18.199219 C 70.621094 18.199219 72.132812 19.925781 72.132812 22.3125 Z M 72.132812 22.3125 "></path><path fill="#fff" d="M 84.074219 15.058594 C 79.929688 15.058594 76.679688 18.265625 76.679688 22.363281 C 76.679688 26.421875 79.90625 29.59375 84.027344 29.59375 C 88.1875 29.59375 91.445312 26.394531 91.445312 22.3125 C 91.445312 18.230469 88.195312 15.058594 84.074219 15.058594 Z M 84.074219 26.453125 C 81.871094 26.453125 80.210938 24.671875 80.210938 22.3125 C 80.210938 19.953125 81.8125 18.21875 84.027344 18.21875 C 86.238281 18.21875 87.921875 20 87.921875 22.363281 C 87.921875 24.726562 86.289062 26.453125 84.074219 26.453125 Z M 84.074219 26.453125 "></path><path fill="#fff" d="M 100.289062 15.335938 L 96.910156 15.335938 L 96.910156 11.863281 C 96.910156 11.730469 96.800781 11.625 96.671875 11.625 L 93.601562 11.625 C 93.476562 11.628906 93.378906 11.734375 93.378906 11.863281 L 93.378906 15.335938 L 91.898438 15.335938 C 91.835938 15.335938 91.78125 15.359375 91.738281 15.402344 C 91.695312 15.445312 91.671875 15.5 91.671875 15.5625 L 91.671875 18.222656 C 91.667969 18.285156 91.691406 18.347656 91.734375 18.390625 C 91.777344 18.4375 91.835938 18.464844 91.898438 18.464844 L 93.378906 18.464844 L 93.378906 25.339844 C 93.378906 28.117188 94.753906 29.527344 97.46875 29.527344 C 98.476562 29.554688 99.472656 29.304688 100.351562 28.8125 C 100.417969 28.769531 100.460938 28.695312 100.464844 28.617188 L 100.464844 26.082031 C 100.464844 26.007812 100.421875 25.933594 100.355469 25.894531 C 100.289062 25.855469 100.207031 25.855469 100.136719 25.894531 C 99.578125 26.183594 98.957031 26.335938 98.332031 26.332031 C 97.34375 26.332031 96.902344 25.882812 96.902344 24.871094 L 96.902344 18.453125 L 100.289062 18.453125 C 100.351562 18.453125 100.410156 18.425781 100.453125 18.382812 C 100.496094 18.335938 100.519531 18.273438 100.515625 18.210938 L 100.515625 15.574219 C 100.519531 15.511719 100.496094 15.449219 100.453125 15.40625 C 100.410156 15.359375 100.351562 15.332031 100.289062 15.335938 Z M 100.289062 15.335938 "></path><path fill="#fff" d="M 112.085938 15.355469 L 112.085938 14.925781 C 112.085938 13.671875 112.5625 13.109375 113.640625 13.109375 C 114.234375 13.113281 114.820312 13.222656 115.375 13.425781 C 115.441406 13.449219 115.519531 13.4375 115.578125 13.394531 C 115.632812 13.347656 115.667969 13.28125 115.671875 13.210938 L 115.671875 10.609375 C 115.667969 10.511719 115.605469 10.425781 115.511719 10.394531 C 114.683594 10.140625 113.820312 10.015625 112.957031 10.023438 C 110.105469 10.023438 108.609375 11.632812 108.609375 14.671875 L 108.609375 15.335938 L 107.128906 15.335938 C 107.007812 15.339844 106.910156 15.4375 106.902344 15.5625 L 106.902344 18.222656 C 106.898438 18.285156 106.921875 18.347656 106.964844 18.394531 C 107.007812 18.4375 107.066406 18.464844 107.128906 18.464844 L 108.605469 18.464844 L 108.605469 29.070312 C 108.613281 29.191406 108.707031 29.289062 108.828125 29.296875 L 111.917969 29.296875 C 112.046875 29.296875 112.152344 29.195312 112.15625 29.070312 L 112.15625 18.453125 L 115.027344 18.453125 L 119.429688 29.054688 C 118.929688 30.167969 118.4375 30.390625 117.765625 30.390625 C 117.167969 30.375 116.585938 30.210938 116.070312 29.914062 C 116.015625 29.882812 115.949219 29.875 115.890625 29.894531 C 115.832031 29.914062 115.78125 29.960938 115.757812 30.015625 L 114.714844 32.316406 C 114.664062 32.425781 114.707031 32.550781 114.8125 32.609375 C 115.8125 33.179688 116.945312 33.46875 118.097656 33.453125 C 120.367188 33.453125 121.625 32.390625 122.734375 29.53125 L 128.070312 15.679688 C 128.097656 15.609375 128.089844 15.53125 128.046875 15.46875 C 128.003906 15.40625 127.933594 15.371094 127.859375 15.367188 L 124.640625 15.367188 C 124.546875 15.371094 124.460938 15.429688 124.425781 15.519531 L 121.148438 24.925781 L 117.554688 15.5 C 117.519531 15.414062 117.4375 15.359375 117.34375 15.355469 Z M 112.085938 15.355469 "></path><path fill="#fff" d="M 102.171875 15.339844 L 105.246094 15.339844 C 105.371094 15.339844 105.472656 15.441406 105.472656 15.566406 L 105.472656 29.054688 C 105.472656 29.179688 105.371094 29.28125 105.246094 29.28125 L 102.171875 29.28125 C 102.046875 29.28125 101.945312 29.179688 101.945312 29.054688 L 101.945312 15.566406 C 101.945312 15.441406 102.046875 15.339844 102.171875 15.339844 Z M 102.171875 15.339844 "></path><path fill="#fff" d="M 103.726562 9.199219 C 102.503906 9.199219 101.515625 10.191406 101.515625 11.417969 C 101.515625 12.644531 102.503906 13.636719 103.722656 13.636719 C 104.941406 13.636719 105.933594 12.640625 105.929688 11.414062 C 105.929688 10.191406 104.941406 9.199219 103.726562 9.199219 Z M 103.726562 9.199219 "></path><path fill="#fff" d="M 130.679688 19.679688 C 129.480469 19.675781 128.511719 18.699219 128.511719 17.496094 C 128.511719 16.292969 129.484375 15.316406 130.679688 15.3125 C 131.878906 15.3125 132.851562 16.285156 132.855469 17.488281 C 132.863281 18.070312 132.636719 18.632812 132.226562 19.042969 C 131.816406 19.453125 131.257812 19.683594 130.679688 19.679688 Z M 130.679688 15.53125 C 129.886719 15.523438 129.167969 15.996094 128.859375 16.730469 C 128.550781 17.46875 128.714844 18.316406 129.273438 18.882812 C 129.832031 19.445312 130.675781 19.617188 131.410156 19.3125 C 132.144531 19.007812 132.621094 18.285156 132.617188 17.488281 C 132.625 16.414062 131.761719 15.535156 130.691406 15.53125 Z M 131.15625 17.714844 L 131.765625 18.574219 L 131.25 18.574219 L 130.699219 17.785156 L 130.222656 17.785156 L 130.222656 18.574219 L 129.789062 18.574219 L 129.789062 16.289062 L 130.804688 16.289062 C 131.332031 16.289062 131.679688 16.558594 131.679688 17.019531 C 131.699219 17.34375 131.488281 17.640625 131.171875 17.722656 Z M 130.789062 16.683594 L 130.226562 16.683594 L 130.226562 17.402344 L 130.789062 17.402344 C 131.070312 17.402344 131.238281 17.261719 131.238281 17.039062 C 131.238281 16.816406 131.085938 16.683594 130.804688 16.683594 Z M 130.789062 16.683594 "></path></g></g></svg>