<svg viewBox="0 0 157 120" version="1.1" xmlns="http://www.w3.org/2000/svg" class="small-svg__SmallSVG-sc-1vgeaaz-0 jLvjxZ"><g id="5_Twitter" stroke="none" stroke-width="1" fill="none" fill-rule="evenodd"><rect id="BG" fill="#121212" opacity="0" x="0" y="0" width="157" height="120"></rect><g id="Twitter" transform="translate(4.000000, 44.000000)"><g id="icons8-twitter" transform="translate(111.500000, 0.750000)" fill="#FFFFFF" fill-rule="nonzero"><path d="M38.7832035,3.8613285 C37.3710945,4.488282 35.853516,4.910157 34.259766,5.103516 C35.8828125,4.125 37.1367195,2.583984 37.722657,0.744141 C36.1992195,1.646484 34.5117195,2.302734 32.71875,2.6542965 C31.2832035,1.125 29.238282,0.1699215 26.9707035,0.1699215 C22.6230465,0.1699215 19.0957035,3.697266 19.0957035,8.0449215 C19.0957035,8.660157 19.166016,9.2636715 19.300782,9.837891 C12.755859,9.509766 6.9550785,6.369141 3.0703125,1.6054695 C2.390625,2.771484 2.003907,4.125 2.003907,5.572266 C2.003907,8.302734 3.3925785,10.7109375 5.5078125,12.1230465 C4.212891,12.082032 3,11.7304695 1.9394535,11.1386715 C1.9394535,11.1738285 1.9394535,11.203125 1.9394535,11.238282 C1.9394535,15.052734 4.6523445,18.234375 8.255859,18.9609375 C7.59375,19.1425785 6.9023445,19.2363285 6.181641,19.2363285 C5.671875,19.2363285 5.1796875,19.1894535 4.6992195,19.0957035 C5.7011715,22.21875 8.6074215,24.503907 12.052734,24.5625 C9.363282,26.677734 5.9648445,27.931641 2.2734375,27.931641 C1.634766,27.931641 1.0136715,27.896484 0.3984375,27.8261715 C3.878907,30.0585945 8.021484,31.359375 12.46875,31.359375 C26.953125,31.359375 34.875,19.359375 34.875,8.958984 C34.875,8.613282 34.869141,8.2734375 34.8515625,7.9335945 C36.3925785,6.832032 37.728516,5.443359 38.7832035,3.8613285" id="Path"></path></g><mask id="mask-2" fill="white"><path d="M5.8017991,9.17606602 L-1,9.17606602 L-1,5 L17.5937031,5 L17.5937031,9.17606602 L10.791904,9.17606602 L10.791904,27.5887208 L5.8017991,27.5887208 L5.8017991,9.17606602 Z M38.5076462,27.5887208 L33.8671664,27.5887208 L30.9430285,16.610729 L30.8794603,16.610729 L28.0824588,27.5887208 L23.4101949,27.5887208 L18.1976012,11.2324622 L22.9652174,11.2324622 L25.9847076,22.3370014 L26.0482759,22.3370014 L28.7817091,11.2324622 L33.167916,11.2324622 L35.9649175,22.3053645 L36.0284858,22.3053645 L39.047976,11.2324622 L43.6884558,11.2324622 L38.5076462,27.5887208 Z M50.235982,8.70151307 L45.7226387,8.70151307 L45.7226387,5 L50.235982,5 L50.235982,8.70151307 Z M45.7226387,11.2324622 L50.235982,11.2324622 L50.235982,27.5887208 L45.7226387,27.5887208 L45.7226387,11.2324622 Z M59.5169415,11.2324622 L62.8224888,11.2324622 L62.8224888,14.2379642 L59.5169415,14.2379642 L59.5169415,22.3370014 C59.5169415,23.0962899 59.6440767,23.6024747 59.8983508,23.8555708 C60.152625,24.108667 60.6611656,24.2352132 61.423988,24.2352132 C61.6782621,24.2352132 61.9219379,24.2246677 62.1550225,24.2035763 C62.3881071,24.182485 62.6105936,24.1508484 62.8224888,24.1086657 L62.8224888,27.5887208 C62.4410776,27.6519948 62.0172937,27.6941769 61.5511244,27.7152682 C61.0849552,27.7363596 60.6293875,27.7469051 60.1844078,27.7469051 C59.4851539,27.7469051 58.8229916,27.6994503 58.197901,27.6045392 C57.5728105,27.5096281 57.0218914,27.3250816 56.5451274,27.0508941 C56.0683634,26.7767066 55.6922553,26.3865225 55.4167916,25.8803301 C55.141328,25.3741378 55.0035982,24.7097703 55.0035982,23.8872077 L55.0035982,14.2379642 L52.2701649,14.2379642 L52.2701649,11.2324622 L55.0035982,11.2324622 L55.0035982,6.32874828 L59.5169415,6.32874828 L59.5169415,11.2324622 Z M70.7049475,11.2324622 L74.0104948,11.2324622 L74.0104948,14.2379642 L70.7049475,14.2379642 L70.7049475,22.3370014 C70.7049475,23.0962899 70.8320827,23.6024747 71.0863568,23.8555708 C71.340631,24.108667 71.8491716,24.2352132 72.611994,24.2352132 C72.8662681,24.2352132 73.1099439,24.2246677 73.3430285,24.2035763 C73.5761131,24.182485 73.7985996,24.1508484 74.0104948,24.1086657 L74.0104948,27.5887208 C73.6290836,27.6519948 73.2052997,27.6941769 72.7391304,27.7152682 C72.2729612,27.7363596 71.8173935,27.7469051 71.3724138,27.7469051 C70.6731599,27.7469051 70.0109976,27.6994503 69.385907,27.6045392 C68.7608165,27.5096281 68.2098974,27.3250816 67.7331334,27.0508941 C67.2563694,26.7767066 66.8802612,26.3865225 66.6047976,25.8803301 C66.329334,25.3741378 66.1916042,24.7097703 66.1916042,23.8872077 L66.1916042,14.2379642 L63.4581709,14.2379642 L63.4581709,11.2324622 L66.1916042,11.2324622 L66.1916042,6.32874828 L70.7049475,6.32874828 L70.7049475,11.2324622 Z M87.2326837,17.6547455 C87.0207885,16.5158127 86.6446804,15.6510804 86.1043478,15.0605227 C85.5640153,14.469965 84.742934,14.1746905 83.6410795,14.1746905 C82.9206361,14.1746905 82.3220414,14.2959639 81.8452774,14.5385144 C81.3685134,14.7810649 80.9871079,15.0816121 80.7010495,15.4401651 C80.4149911,15.798718 80.2136937,16.1783565 80.0971514,16.5790922 C79.9806091,16.9798278 79.9117442,17.3383753 79.8905547,17.6547455 L87.2326837,17.6547455 Z M79.8905547,20.5020633 C79.9541233,21.9573663 80.3249341,23.0119179 81.0029985,23.6657497 C81.6810629,24.3195814 82.6557658,24.6464924 83.9271364,24.6464924 C84.8382854,24.6464924 85.6222856,24.4197638 86.2791604,23.9662999 C86.9360353,23.5128359 87.3386299,23.0330149 87.4869565,22.5268226 L91.45997,22.5268226 C90.8242847,24.4883179 89.8495818,25.8908715 88.5358321,26.7345254 C87.2220824,27.5781794 85.6328929,28 83.7682159,28 C82.4756557,28 81.3102501,27.7943624 80.271964,27.3830812 C79.233678,26.9717999 78.3543264,26.3865237 77.6338831,25.6272352 C76.9134397,24.8679467 76.3572233,23.9610323 75.9652174,22.9064649 C75.5732114,21.8518975 75.3772114,20.6918908 75.3772114,19.4264099 C75.3772114,18.2031117 75.5785087,17.064196 75.9811094,16.0096286 C76.3837102,14.9550612 76.9558184,14.0428741 77.6974513,13.2730399 C78.4390842,12.5032057 79.323733,11.8968385 80.3514243,11.4539202 C81.3791156,11.0110019 82.5180347,10.7895461 83.7682159,10.7895461 C85.1667236,10.7895461 86.3851023,11.0584567 87.4233883,11.5962861 C88.4616744,12.1341155 89.3145394,12.8564833 89.982009,13.7634113 C90.6494786,14.6703392 91.1315327,15.7037998 91.4281859,16.8638239 C91.7248391,18.0238481 91.830785,19.2365824 91.746027,20.5020633 L79.8905547,20.5020633 Z M94.4158921,11.2324622 L98.7067466,11.2324622 L98.7067466,14.2696011 L98.7703148,14.2696011 C98.98221,13.7634087 99.2682641,13.2941333 99.6284858,12.8617607 C99.9887074,12.429388 100.401897,12.060295 100.868066,11.7544704 C101.334235,11.4486459 101.832181,11.2113718 102.361919,11.042641 C102.891657,10.8739102 103.442576,10.7895461 104.014693,10.7895461 C104.311346,10.7895461 104.639778,10.8422737 105,10.9477304 L105,15.1237964 C104.788105,15.0816137 104.533835,15.0447044 104.237181,15.0130674 C103.940528,14.9814304 103.654474,14.9656121 103.37901,14.9656121 C102.55262,14.9656121 101.853376,15.1027038 101.281259,15.3768913 C100.709143,15.6510789 100.248278,16.0254447 99.8986507,16.5 C99.5490237,16.9745553 99.3000507,17.5281949 99.1517241,18.1609354 C99.0033976,18.7936758 98.9292354,19.4791343 98.9292354,20.2173315 L98.9292354,27.5887208 L94.4158921,27.5887208 L94.4158921,11.2324622 Z"></path></mask><path d="M5.8017991,9.17606602 L-1,9.17606602 L-1,5 L17.5937031,5 L17.5937031,9.17606602 L10.791904,9.17606602 L10.791904,27.5887208 L5.8017991,27.5887208 L5.8017991,9.17606602 Z M38.5076462,27.5887208 L33.8671664,27.5887208 L30.9430285,16.610729 L30.8794603,16.610729 L28.0824588,27.5887208 L23.4101949,27.5887208 L18.1976012,11.2324622 L22.9652174,11.2324622 L25.9847076,22.3370014 L26.0482759,22.3370014 L28.7817091,11.2324622 L33.167916,11.2324622 L35.9649175,22.3053645 L36.0284858,22.3053645 L39.047976,11.2324622 L43.6884558,11.2324622 L38.5076462,27.5887208 Z M50.235982,8.70151307 L45.7226387,8.70151307 L45.7226387,5 L50.235982,5 L50.235982,8.70151307 Z M45.7226387,11.2324622 L50.235982,11.2324622 L50.235982,27.5887208 L45.7226387,27.5887208 L45.7226387,11.2324622 Z M59.5169415,11.2324622 L62.8224888,11.2324622 L62.8224888,14.2379642 L59.5169415,14.2379642 L59.5169415,22.3370014 C59.5169415,23.0962899 59.6440767,23.6024747 59.8983508,23.8555708 C60.152625,24.108667 60.6611656,24.2352132 61.423988,24.2352132 C61.6782621,24.2352132 61.9219379,24.2246677 62.1550225,24.2035763 C62.3881071,24.182485 62.6105936,24.1508484 62.8224888,24.1086657 L62.8224888,27.5887208 C62.4410776,27.6519948 62.0172937,27.6941769 61.5511244,27.7152682 C61.0849552,27.7363596 60.6293875,27.7469051 60.1844078,27.7469051 C59.4851539,27.7469051 58.8229916,27.6994503 58.197901,27.6045392 C57.5728105,27.5096281 57.0218914,27.3250816 56.5451274,27.0508941 C56.0683634,26.7767066 55.6922553,26.3865225 55.4167916,25.8803301 C55.141328,25.3741378 55.0035982,24.7097703 55.0035982,23.8872077 L55.0035982,14.2379642 L52.2701649,14.2379642 L52.2701649,11.2324622 L55.0035982,11.2324622 L55.0035982,6.32874828 L59.5169415,6.32874828 L59.5169415,11.2324622 Z M70.7049475,11.2324622 L74.0104948,11.2324622 L74.0104948,14.2379642 L70.7049475,14.2379642 L70.7049475,22.3370014 C70.7049475,23.0962899 70.8320827,23.6024747 71.0863568,23.8555708 C71.340631,24.108667 71.8491716,24.2352132 72.611994,24.2352132 C72.8662681,24.2352132 73.1099439,24.2246677 73.3430285,24.2035763 C73.5761131,24.182485 73.7985996,24.1508484 74.0104948,24.1086657 L74.0104948,27.5887208 C73.6290836,27.6519948 73.2052997,27.6941769 72.7391304,27.7152682 C72.2729612,27.7363596 71.8173935,27.7469051 71.3724138,27.7469051 C70.6731599,27.7469051 70.0109976,27.6994503 69.385907,27.6045392 C68.7608165,27.5096281 68.2098974,27.3250816 67.7331334,27.0508941 C67.2563694,26.7767066 66.8802612,26.3865225 66.6047976,25.8803301 C66.329334,25.3741378 66.1916042,24.7097703 66.1916042,23.8872077 L66.1916042,14.2379642 L63.4581709,14.2379642 L63.4581709,11.2324622 L66.1916042,11.2324622 L66.1916042,6.32874828 L70.7049475,6.32874828 L70.7049475,11.2324622 Z M87.2326837,17.6547455 C87.0207885,16.5158127 86.6446804,15.6510804 86.1043478,15.0605227 C85.5640153,14.469965 84.742934,14.1746905 83.6410795,14.1746905 C82.9206361,14.1746905 82.3220414,14.2959639 81.8452774,14.5385144 C81.3685134,14.7810649 80.9871079,15.0816121 80.7010495,15.4401651 C80.4149911,15.798718 80.2136937,16.1783565 80.0971514,16.5790922 C79.9806091,16.9798278 79.9117442,17.3383753 79.8905547,17.6547455 L87.2326837,17.6547455 Z M79.8905547,20.5020633 C79.9541233,21.9573663 80.3249341,23.0119179 81.0029985,23.6657497 C81.6810629,24.3195814 82.6557658,24.6464924 83.9271364,24.6464924 C84.8382854,24.6464924 85.6222856,24.4197638 86.2791604,23.9662999 C86.9360353,23.5128359 87.3386299,23.0330149 87.4869565,22.5268226 L91.45997,22.5268226 C90.8242847,24.4883179 89.8495818,25.8908715 88.5358321,26.7345254 C87.2220824,27.5781794 85.6328929,28 83.7682159,28 C82.4756557,28 81.3102501,27.7943624 80.271964,27.3830812 C79.233678,26.9717999 78.3543264,26.3865237 77.6338831,25.6272352 C76.9134397,24.8679467 76.3572233,23.9610323 75.9652174,22.9064649 C75.5732114,21.8518975 75.3772114,20.6918908 75.3772114,19.4264099 C75.3772114,18.2031117 75.5785087,17.064196 75.9811094,16.0096286 C76.3837102,14.9550612 76.9558184,14.0428741 77.6974513,13.2730399 C78.4390842,12.5032057 79.323733,11.8968385 80.3514243,11.4539202 C81.3791156,11.0110019 82.5180347,10.7895461 83.7682159,10.7895461 C85.1667236,10.7895461 86.3851023,11.0584567 87.4233883,11.5962861 C88.4616744,12.1341155 89.3145394,12.8564833 89.982009,13.7634113 C90.6494786,14.6703392 91.1315327,15.7037998 91.4281859,16.8638239 C91.7248391,18.0238481 91.830785,19.2365824 91.746027,20.5020633 L79.8905547,20.5020633 Z M94.4158921,11.2324622 L98.7067466,11.2324622 L98.7067466,14.2696011 L98.7703148,14.2696011 C98.98221,13.7634087 99.2682641,13.2941333 99.6284858,12.8617607 C99.9887074,12.429388 100.401897,12.060295 100.868066,11.7544704 C101.334235,11.4486459 101.832181,11.2113718 102.361919,11.042641 C102.891657,10.8739102 103.442576,10.7895461 104.014693,10.7895461 C104.311346,10.7895461 104.639778,10.8422737 105,10.9477304 L105,15.1237964 C104.788105,15.0816137 104.533835,15.0447044 104.237181,15.0130674 C103.940528,14.9814304 103.654474,14.9656121 103.37901,14.9656121 C102.55262,14.9656121 101.853376,15.1027038 101.281259,15.3768913 C100.709143,15.6510789 100.248278,16.0254447 99.8986507,16.5 C99.5490237,16.9745553 99.3000507,17.5281949 99.1517241,18.1609354 C99.0033976,18.7936758 98.9292354,19.4791343 98.9292354,20.2173315 L98.9292354,27.5887208 L94.4158921,27.5887208 L94.4158921,11.2324622 Z" fill="#FFFFFF" fill-rule="nonzero"></path></g></g></svg>