<svg viewBox="0 0 173 120" version="1.1" xmlns="http://www.w3.org/2000/svg" class="small-svg__SmallSVG-sc-1vgeaaz-0 kZaNjL"><g id="4_Bumble" stroke="none" stroke-width="1" fill="none" fill-rule="evenodd"><rect id="BG" fill="#121212" opacity="0" x="0" y="0" width="173" height="120"></rect><g id="bumble" transform="translate(1.000000, 43.000000)" fill="#FFFFFF"><path d="M8.49146667,1.1554188 C8.988,1.07022222 18.5929333,1.12478632 19.5738667,1.12478632 C20.3625333,1.12478632 22.5502667,1.03001709 23.142,1.2482735 C24.0184,1.57182906 24.3646667,2.43432479 24.8369333,3.30352137 C25.2681333,4.09709402 25.7376,4.87917949 26.1772,5.68041026 L28.462,9.72868376 C28.4657333,9.73634188 28.4704,9.74591453 28.4750667,9.75261538 C28.4788,9.7602735 28.4834667,9.76984615 28.4872,9.77654701 C29.2208,11.1368205 30.1130667,12.637812 30.8877333,14.0363761 C31.5326667,15.2004103 31.3310667,15.7403077 30.7113333,16.8105299 L28.6953333,20.3887863 C27.3466667,22.7484444 26.0194667,25.1932991 24.6605333,27.5433846 C24.1733333,28.386735 23.8961333,29.1860513 22.7910667,29.3832479 C22.3150667,29.4684444 12.6634667,29.4129231 11.7002667,29.4129231 C10.9069333,29.4129231 8.736,29.506735 8.1368,29.2913504 C7.6664,29.1219145 7.3304,28.7974017 7.11573333,28.4393846 C6.87773333,28.0411624 6.67053333,27.6467692 6.4372,27.2428034 L1.06306667,17.7094017 C0.564666667,16.8009573 -0.0821333333,15.9844103 0.0084,15.054906 C0.0746666667,14.3723761 0.882933333,13.1671795 1.23386667,12.5277265 C2.54613333,10.1393504 3.93306667,7.77682051 5.26866667,5.37408547 C5.7064,4.58721368 6.1544,3.78598291 6.60706667,2.99336752 C7.09986667,2.13087179 7.37333333,1.34687179 8.49146667,1.1554188 Z M9.91666667,13.154735 C9.48173333,13.154735 9.1252,13.5204103 9.1252,13.967453 C9.1252,14.4135385 9.48173333,14.7792137 9.91666667,14.7792137 L21.3696,14.7792137 C21.8054667,14.7792137 22.162,14.4135385 22.162,13.967453 C22.162,13.5204103 21.8054667,13.154735 21.3696,13.154735 L9.91666667,13.154735 Z M11.3362667,10.5538462 C10.9004,10.5538462 10.5438667,10.9195214 10.5438667,11.3665641 C10.5438667,11.8126496 10.9004,12.1783248 11.3362667,12.1783248 L19.9612,12.1783248 C20.3961333,12.1783248 20.7526667,11.8126496 20.7526667,11.3665641 C20.7526667,10.9195214 20.3961333,10.5538462 19.9612,10.5538462 L11.3362667,10.5538462 Z M12.7353333,7.96157265 C12.2994667,7.96157265 11.9429333,8.32724786 11.9429333,8.77333333 C11.9429333,9.22037607 12.2994667,9.58605128 12.7353333,9.58605128 L18.5518667,9.58605128 C18.9868,9.58605128 19.3433333,9.22037607 19.3433333,8.77333333 C19.3433333,8.32724786 18.9868,7.96157265 18.5518667,7.96157265 L12.7353333,7.96157265 Z M11.3362667,17.3801026 L19.9612,17.3801026 C20.3961333,17.3801026 20.7526667,17.0144274 20.7526667,16.5683419 C20.7526667,16.1212991 20.3961333,15.7556239 19.9612,15.7556239 L11.3362667,15.7556239 C10.9004,15.7556239 10.5438667,16.1212991 10.5438667,16.5683419 C10.5438667,17.0144274 10.9004,17.3801026 11.3362667,17.3801026 Z M13.1450667,19.9723761 L18.1365333,19.9723761 C18.5714667,19.9723761 18.928,19.6067009 18.928,19.1606154 C18.928,18.7135726 18.5714667,18.3478974 18.1365333,18.3478974 L13.1450667,18.3478974 C12.7092,18.3478974 12.3526667,18.7135726 12.3526667,19.1606154 C12.3526667,19.6067009 12.7092,19.9723761 13.1450667,19.9723761 Z M14.5553333,22.5799658 L16.7281333,22.5799658 C17.1649333,22.5799658 17.5205333,22.2142906 17.5205333,21.7682051 C17.5205333,21.3211624 17.1649333,20.9554872 16.7281333,20.9554872 L14.5553333,20.9554872 C14.1194667,20.9554872 13.7629333,21.3211624 13.7629333,21.7682051 C13.7629333,22.2142906 14.1194667,22.5799658 14.5553333,22.5799658 Z" id="Combined-Shape"></path><g id="Group" transform="translate(40.500000, 1.523810)"><path d="M3.72966364,1.65774359 L3.72966364,10.6158291 C5.28169091,9.26895726 7.25540455,8.4648547 9.43580909,8.4648547 C14.6021591,8.4648547 18.6031045,11.8755897 18.6031045,18.5333675 C18.6031045,25.1911453 14.52465,28.6554872 9.46256818,28.6554872 C7.29785,28.6554872 5.30383636,27.8207521 3.72966364,26.4317607 L3.72966364,26.9438974 C3.72966364,29.153265 -1.77635684e-14,29.153265 -1.77635684e-14,26.9438974 L-1.77635684e-14,1.65774359 C-1.77635684e-14,-0.552581197 3.72966364,-0.552581197 3.72966364,1.65774359 Z M3.72966364,14.1557949 L3.72966364,23.029641 C4.95043182,24.3056752 6.73314091,25.1911453 8.48447727,25.1911453 C11.9530091,25.1911453 14.7285727,22.9358291 14.7285727,18.5333675 C14.7285727,14.130906 11.9530091,11.8755897 8.48447727,11.8755897 C6.77097273,11.8755897 4.94950909,12.8510427 3.72966364,14.1557949 L3.72966364,14.1557949 Z" id="Fill-8"></path><path d="M84.3059,1.65774359 L84.3059,10.6158291 C85.8662318,9.268 87.8491727,8.4648547 90.04065,8.4648547 C95.2319136,8.4648547 99.2522364,11.8755897 99.2522364,18.5333675 C99.2522364,25.1911453 95.1544045,28.6554872 90.0664864,28.6554872 C87.8916182,28.6554872 85.8874545,27.8207521 84.3059,26.4317607 L84.3059,26.9438974 C84.3059,29.153265 80.5577818,29.153265 80.5577818,26.9438974 L80.5577818,1.65774359 C80.5577818,-0.552581197 84.3059,-0.552581197 84.3059,1.65774359 Z M84.3059,14.1557949 L84.3059,23.029641 C85.5322045,24.3056752 87.3232182,25.1911453 89.0837818,25.1911453 C92.5689227,25.1911453 95.3583273,22.9358291 95.3583273,18.5333675 C95.3583273,14.130906 92.5689227,11.8755897 89.0837818,11.8755897 C87.3619727,11.8755897 85.5312818,12.8510427 84.3059,14.1557949 L84.3059,14.1557949 Z" id="Fill-9"></path><path d="M24.97915,10.3793846 L24.9643864,19.7213333 C24.9643864,23.2115214 26.3263318,25.0025641 29.5291182,25.0025641 C32.3701955,25.0025641 33.9416,22.8927521 34.5072318,21.8388034 L34.5072318,10.3793846 C34.5072318,9.24023932 35.4585636,8.46006838 36.4191227,8.4485812 C37.3981364,8.43805128 38.3873,9.21822222 38.3873,10.3793846 L38.3873,23.4632821 C38.3873,24.9518291 39.0747318,25.284 39.8027636,25.284 C40.4948091,25.284 40.8952727,24.9968205 41.4295318,25.0140513 C42.6272318,24.9958632 43.3405,26.5973675 42.2932045,27.5546325 C41.5697864,28.2046154 39.96055,28.6535726 38.3845318,28.6535726 C36.5649136,28.6535726 35.2352636,27.7901197 34.7305318,25.7655043 C33.2514,27.7728889 30.66315,28.6535726 28.3821682,28.6535726 C24.8730364,28.6535726 21.0990818,27.1621538 21.0990818,19.4398974 L21.0990818,10.3793846 C21.0990818,9.24023932 22.0504136,8.46006838 23.0109727,8.4485812 C23.9899864,8.43805128 24.97915,9.21822222 24.97915,10.3793846" id="Fill-10"></path><path d="M48.4090409,10.3793846 L48.4090409,11.5328889 C49.7534545,9.49391453 52.2245182,8.37487179 54.4095364,8.37487179 C57.0171636,8.37487179 59.6404773,9.12345299 60.8169545,12.4202735 C62.0294182,9.87299145 64.7394682,8.37774359 67.2114545,8.37774359 C70.4133182,8.37774359 73.7914227,9.88447863 74.3589,15.6864615 C74.4760864,16.6207521 74.4843909,22.0800342 74.4945409,23.4632821 C74.4945409,24.9518291 75.1819727,25.284 75.9100045,25.284 C76.6011273,25.284 77.0025136,24.9968205 77.5367727,25.0140513 C78.7344727,24.9958632 79.2318227,26.7160684 78.2445045,27.617812 C77.5210864,28.2677949 76.0677909,28.6535726 74.49085,28.6535726 C72.0133273,28.6535726 70.6144727,27.2186325 70.6144727,23.7112137 L70.6144727,17.1147009 C70.4852909,13.8829744 68.8456045,12.0373675 66.2462818,12.0373675 C63.4052045,12.0373675 61.8162682,14.5099829 61.4591727,15.9688547 L61.4591727,28.2945983 L57.6307773,28.2945983 L57.6307773,17.042906 C57.5015955,13.8829744 55.8619091,12.0373675 53.2635091,12.0373675 C50.4224318,12.0373675 48.8704045,14.6171966 48.4090409,15.9956581 L48.4090409,28.2945983 L44.5298955,28.2945983 L44.5298955,10.3793846 C44.5298955,9.24119658 45.4812273,8.46006838 46.4408636,8.4485812 C47.4208,8.43805128 48.4090409,9.21917949 48.4090409,10.3793846" id="Fill-11"></path><path d="M105.861732,22.7673504 C105.861732,24.9384274 106.905336,25.284 107.817914,25.284 C108.509036,25.284 108.9095,24.9968205 109.444682,25.0140513 C110.74665,24.966188 111.319664,26.6557607 110.321273,27.5689915 C109.596932,28.2189744 107.7118,28.6535726 106.135782,28.6535726 C103.723773,28.6535726 102.132068,26.8098803 102.132068,24.3391795 L102.132068,1.65774359 C102.132068,-0.552581197 105.861732,-0.552581197 105.861732,1.65774359 L105.861732,22.7673504" id="Fill-12"></path><path d="M115.095464,16.7490256 L125.691141,16.7490256 C125.924591,12.7744615 123.415695,11.5807521 120.758241,11.5807521 C117.792595,11.5807521 115.596505,13.5144274 115.095464,16.7490256 Z M128.873627,19.8687521 L115.047482,19.8687521 C115.389814,23.2603419 117.324773,25.475453 121.656977,25.475453 C123.957336,25.475453 126.101755,24.2511111 127.174886,23.654735 C128.604191,22.8602051 130.076864,24.9317265 128.789659,26.2680684 C127.31145,27.8025641 124.157568,28.7866325 121.098727,28.7866325 C115.282777,28.7866325 111.153573,25.3261197 111.153573,18.6683419 C111.153573,12.0105641 115.516227,8.29350427 120.812682,8.29350427 C123.703586,8.29350427 126.009482,9.08611966 127.543055,11.0494701 C128.978818,12.8883761 129.809273,15.381094 128.873627,19.8687521 L128.873627,19.8687521 Z" id="Fill-13"></path></g></g></g></svg>