<svg viewBox="0 0 144 120" version="1.1" xmlns="http://www.w3.org/2000/svg" class="small-svg__SmallSVG-sc-1vgeaaz-0 eCwgLP"><g id="6_Slack" stroke="none" stroke-width="1" fill="none" fill-rule="evenodd"><rect id="BG" fill="#121212" opacity="0" x="0" y="0" width="144" height="120"></rect><g id="slack-logo-2019" transform="translate(2.000000, 42.000000)" fill="#FFFFFF" fill-rule="nonzero"><path d="M43.6997525,27.6949167 L45.3914191,23.7014167 C47.2436469,25.0868333 49.659571,25.8200833 52.0760726,25.8200833 C53.8480198,25.8200833 54.9754125,25.1276667 54.9754125,24.0683333 C54.9349835,21.1341667 44.3038779,23.4161667 44.2230198,16.0393333 C44.1825908,12.29025 47.485066,9.39691667 52.1569307,9.39691667 C54.9349835,9.39691667 57.7141914,10.0899167 59.6871287,11.6795 L58.1063531,15.7581667 C56.2910891,14.57925 54.0490099,13.7573333 51.914934,13.7573333 C50.465264,13.7573333 49.4984323,14.44975 49.4984323,15.3469167 C49.5388614,18.24025 60.2514026,16.6506667 60.3721122,23.7014167 C60.3721122,27.5321667 57.1499175,30.2219167 52.5589109,30.2219167 C49.1767327,30.2219167 46.0758251,29.407 43.6991749,27.6949167 L43.6997525,27.6949167 Z M111.059158,22.2553333 C110.189751,23.8155352 108.55495,24.7810279 106.782343,24.7811667 C104.068977,24.7811667 101.869637,22.5551667 101.869637,19.8094167 C101.869637,17.0636667 104.068977,14.8376667 106.782343,14.8376667 C108.55495,14.8378054 110.189751,15.8032981 111.059158,17.3635 L115.762211,14.7268333 C114.00066,11.5470833 110.640429,9.39691667 106.782343,9.39691667 C101.099752,9.39691667 96.4931518,14.0583333 96.4931518,19.8094167 C96.4931518,25.5599167 101.099752,30.2219167 106.782343,30.2219167 C110.640429,30.2219167 114.00066,28.07175 115.762211,24.892 L111.059158,22.2553333 L111.059158,22.2553333 Z M63.4239274,29.8141667 L69.3034653,29.8141667 L69.3034653,0.729166667 L63.424505,0.729166667 L63.4239274,29.8141667 Z M118.731436,0.729166667 L118.731436,29.8141667 L124.610974,29.8141667 L124.610974,21.1003333 L131.578053,29.8141667 L139.093234,29.8141667 L130.233498,19.4623333 L138.44868,9.80291667 L131.255776,9.80291667 L124.610974,17.8336667 L124.610974,0.729166667 L118.731436,0.729166667 L118.731436,0.729166667 Z M87.4174092,9.80408333 L87.4174092,12.1683333 C86.4511551,10.5379167 84.0750825,9.39691667 81.5783003,9.39691667 C76.4235974,9.39691667 72.3564356,14.0023333 72.3564356,19.789 C72.3564356,25.5756667 76.4235974,30.2219167 81.5783003,30.2219167 C84.0750825,30.2219167 86.4511551,29.0809167 87.4174092,27.4505 L87.4174092,29.8141667 L93.2969472,29.8141667 L93.2969472,9.80408333 L87.4174092,9.80408333 L87.4174092,9.80408333 Z M87.4174092,22.2955833 C86.5718647,23.7218333 84.7999175,24.7805833 82.8269802,24.7805833 C80.1130363,24.7805833 77.9136964,22.5551667 77.9136964,19.8094167 C77.9136964,17.0636667 80.1130363,14.8376667 82.8269802,14.8376667 C84.7999175,14.8376667 86.5718647,15.9378333 87.4174092,17.4043333 L87.4174092,22.2955833 Z" id="Shape"></path><path d="M12.64967,0.0863333333 C10.7443069,0.0863333333 9.19991749,1.64966667 9.19991749,3.57758333 C9.19899796,4.50259229 9.56193651,5.39008417 10.2088907,6.04482065 C10.8558449,6.69955713 11.7338195,7.06790554 12.64967,7.06883333 L16.1000012,7.06883333 L16.1,3.57758333 C16.1015957,1.65125735 14.5569231,0.0882654284 12.64967,0.0863333333 M12.64967,9.39633333 L3.44975248,9.39633333 C1.54438944,9.39633333 0,10.9596667 0,12.8881667 C0,14.8160833 1.54438944,16.3794167 3.44975248,16.3794167 L12.6502475,16.3794167 C14.555033,16.3794167 16.1,14.8160833 16.1,12.8881667 C16.1,10.9596667 14.555033,9.39633333 12.64967,9.39633333" id="Shape"></path><path d="M34.499835,12.8881667 C34.499835,10.9596667 32.954868,9.39633333 31.049505,9.39633333 C29.1441419,9.39633333 27.5997525,10.9596667 27.5997525,12.8881667 L27.5997525,16.3794167 L31.049505,16.3794167 C32.9567581,16.3774846 34.5014306,14.8144927 34.499835,12.8881667 M25.2999175,12.8881667 L25.2999175,3.57758333 C25.3015131,1.65125735 23.7568406,0.0882654284 21.8495875,0.0863333333 C19.9442244,0.0863333333 18.399835,1.64966667 18.399835,3.57758333 L18.399835,12.8875833 C18.399835,14.8166667 19.9442244,16.38 21.8495875,16.38 C23.7568406,16.3780679 25.3015131,14.815076 25.2999175,12.88875" id="Shape"></path><path d="M21.8495875,35 C23.7568406,34.9980679 25.3015131,33.435076 25.2999175,31.50875 C25.3015131,29.582424 23.7568406,28.0194321 21.8495875,28.0175 L18.399835,28.0175 L18.399835,31.50875 C18.399835,33.4366667 19.9442244,35 21.8495875,35 M21.8495875,25.69 L31.0500825,25.69 C32.954868,25.69 34.499835,24.1266667 34.499835,22.1981667 C34.5014306,20.2718407 32.9567581,18.7088488 31.049505,18.7069167 L21.8495875,18.7069167 C19.9442244,18.7069167 18.399835,20.27025 18.399835,22.1981667 C18.3989155,23.1231756 18.761854,24.0106675 19.4088082,24.665404 C20.0557624,25.3201405 20.933737,25.6884889 21.8495875,25.6894167" id="Shape"></path><path d="M1.4993626e-09,22.1981667 C-0.000919526834,23.1231756 0.362019019,24.0106675 1.0089732,24.665404 C1.65592739,25.3201405 2.53390203,25.6884889 3.44975248,25.6894167 C5.35700564,25.6874846 6.90167816,24.1244927 6.90008251,22.1981667 L6.90008374,18.7069167 L3.44975248,18.7069167 C1.54438944,18.7069167 1.4993626e-09,20.27025 1.4993626e-09,22.1981667 M9.19991749,22.1981667 L9.19991749,31.5081667 C9.19991749,33.4366667 10.7443069,35 12.64967,35 C14.5569231,34.9980679 16.1015957,33.435076 16.1,31.50875 L16.1,22.1981667 C16.1009195,21.2730567 15.7379017,20.3854765 15.0908226,19.7307233 C14.4437435,19.07597 13.5656205,18.7076898 12.64967,18.7069167 C10.7443069,18.7069167 9.19991749,20.27025 9.19991749,22.1981667" id="Shape"></path></g></g></svg>