<svg viewBox="0 0 134 120" version="1.1" xmlns="http://www.w3.org/2000/svg" class="small-svg__SmallSVG-sc-1vgeaaz-0 emtgCA"><defs><path d="M15.8227017,37.6652102 L15.9465776,36.6965935 C17.3175872,36.8817037 18.7396572,36.9109947 20.1190359,36.782697 L20.2060837,37.7556148 C19.6134872,37.8107123 19.0133569,37.838261 18.4123886,37.838261 C17.5444164,37.838261 16.673933,37.7805774 15.8227017,37.6652102 Z M21.7746282,36.5510913 C23.1523336,36.2936792 24.4940515,35.8760922 25.7662951,35.310417 L26.1446186,36.2067046 C24.8062526,36.8025146 23.3933923,37.2416071 21.9470505,37.5119497 L21.7746282,36.5510913 Z M9.94945122,35.8666189 L10.3654436,34.988434 C11.6125773,35.6091795 12.9367164,36.0827351 14.3018683,36.396987 L14.0917798,37.3509583 C12.6563183,37.0194748 11.2627101,36.5201126 9.94945122,35.8666189 Z M27.2653545,34.5562015 C28.4915709,33.863998 29.6307341,33.027109 30.6485247,32.0688367 L31.2930169,32.7894873 C30.2191568,33.7994 29.0172256,34.6819132 27.7240514,35.411166 L27.2653545,34.5562015 Z M4.94752484,32.2246832 L5.62298465,31.5350386 C6.59809196,32.5372201 7.70042709,33.4248783 8.89901439,34.1704916 L8.40434597,35.0056384 C7.14130679,34.2187019 5.97787433,33.2836773 4.94752484,32.2246832 Z M31.8211802,30.8531522 C32.7561075,29.7803566 33.5487395,28.5999792 34.1764989,27.3437882 L35.0235457,27.7906389 C34.3598122,29.1200029 33.5211184,30.3701506 32.5309489,31.5040326 L31.8211802,30.8531522 Z M1.44382978,27.0545126 L2.31180167,26.6507136 C2.88012741,27.9352972 3.61836316,29.1518528 4.50391141,30.2659716 L3.76651363,30.8850021 C2.82739647,29.7045975 2.04563495,28.4165839 1.44382978,27.0545126 L1.44382978,27.0545126 Z M34.8553106,25.7871524 C35.3533175,24.4560789 35.673909,23.0638782 35.8069706,21.6484298 L36.7544675,21.7422779 C36.6146808,23.2446846 36.2740206,24.7238436 35.7442027,26.1384318 L34.8553106,25.7871524 Z M0.00334801004,20.928653 L0.954183328,20.8830206 C1.02030636,22.3053562 1.27308125,23.711334 1.70664861,25.0630691 L0.801848598,25.3687161 C0.340660145,23.9334663 0.0711452367,22.4388098 0.00334801004,20.928653 Z M35.2662644,15.7412616 L36.181123,15.4683301 C36.5920768,16.917357 36.810537,18.4197637 36.8281238,19.9342243 L35.8756097,19.9462782 C35.8588769,18.5196361 35.6538137,17.1059109 35.2662644,15.7412616 Z M-7.10542736e-15,19.131793 C0.0502201639,17.4744082 0.228501775,16.0167738 0.54237792,14.6779528 L1.46893989,14.9061121 C1.17012984,16.1803595 1.00105539,17.5734232 0.952509249,19.1627881 L-7.10542736e-15,19.131793 Z M32.6431146,10.4445245 L33.3997724,9.85303189 C34.3012074,11.0627057 35.0394512,12.3782817 35.5968902,13.7610118 L34.7163778,14.1320926 C34.190723,12.8285733 33.4943513,11.5879017 32.6431146,10.4445245 L32.6431146,10.4445245 Z M1.05211251,12.9404997 C1.58360932,11.4587573 2.30510563,10.1690124 3.26012693,9.00410803 L3.98999362,9.63089957 C3.10695396,10.7105661 2.43818912,11.902159 1.94686859,13.2771418 L1.05211251,12.9404997 Z M28.3727335,6.40223347 L28.8916631,5.58344175 C30.1321037,6.40912066 31.2653958,7.38116463 32.2622637,8.47374533 L31.5667192,9.14100252 C30.6225849,8.10696838 29.5486982,7.18658379 28.3727335,6.40223347 Z M4.49386907,7.69111544 C4.8035589,7.40182892 5.13417404,7.12028709 5.47985669,6.85252509 L6.3168612,4.16799335 L7.22417006,4.46675316 L6.34029509,7.29851017 C6.31016542,7.39580195 6.25073604,7.48103706 6.17122198,7.54216701 C5.8062873,7.82026252 5.4572581,8.11299536 5.13417404,8.41433854 L4.49386907,7.69111544 Z M23.0376647,4.01043456 L23.2737009,3.06422164 C24.6999528,3.43788578 26.0776608,3.97943948 27.372503,4.6716675 L26.9313928,5.53867228 C25.7018459,4.8791625 24.3927742,4.36515756 23.0376647,4.01043456 Z M14.3587837,3.8675131 L11.3355284,2.52180445 L11.7155279,1.62466535 L14.583937,2.90321654 C14.9086943,2.81195446 15.1715137,2.7430771 15.4033628,2.68969538 L15.6142865,3.6427974 C15.3598389,3.70220419 15.0618646,3.77969461 14.6751693,3.88989783 C14.6333214,3.90195178 14.5906328,3.90797875 14.5479469,3.90797875 C14.4834976,3.90797875 14.4190484,3.89420437 14.3587837,3.8675131 L14.3587837,3.8675131 Z M18.4073661,3.41636126 C17.9168822,3.41636126 17.547763,3.41894736 17.2221704,3.43099859 L17.1870155,2.45378732 C17.5276757,2.44173365 17.9068372,2.43915054 18.4073661,2.43915054 C19.4628254,2.43915054 20.521634,2.52610936 21.5536594,2.69572209 L21.4013244,3.66173854 C20.4195213,3.49815278 19.4117704,3.41636126 18.4073661,3.41636126 L18.4073661,3.41636126 Z" id="path-1"></path></defs><g id="12_Signal" stroke="none" stroke-width="1" fill="none" fill-rule="evenodd"><rect id="BG" fill="#121212" opacity="0" x="0" y="0" width="134" height="120"></rect><g id="Signal" transform="translate(2.000000, 42.000000)"><g id="Icon"><g id="Group-3" transform="translate(18.428571, 19.000000) scale(-1, 1) rotate(180.000000) translate(-18.428571, -19.000000) "><mask id="mask-2" fill="white"><use></use></mask><use id="path258" fill="#FFFFFF"></use><path d="M6.8517043,2.45378732 L7.51209927,0.339225343 C7.5531146,0.207495703 7.64602021,0.0998734366 7.76989614,0.0430489122 C7.83183411,0.0137756476 7.89879457,-2.66453526e-15 7.96659301,-2.66453526e-15 C8.03020426,-2.66453526e-15 8.09465347,0.0137756476 8.15491816,0.0404659706 L10.1419636,0.92469047 L9.76196405,1.8201075 L8.25954473,1.1511277 L7.75985381,2.75168473 L6.8517043,2.45378732 Z" id="path214" fill="#FFFFFF"></path><path d="M9.84829397,4.33310899 C9.77212648,4.33310899 9.69595898,4.35205012 9.62648726,4.38993512 C9.48168601,4.46828304 9.38626648,4.61637125 9.37371289,4.78426355 L9.00710493,9.61520875 C7.45278998,10.8231621 6.24415768,12.381532 5.41301364,14.2515758 C4.59275258,16.0940682 4.17676291,18.1509454 4.17676291,20.3610749 C4.17676291,27.9075579 10.6836225,34.0480466 18.6811832,34.0480466 C26.6779086,34.0480466 33.1856088,27.9075579 33.1856088,20.3610749 C33.1856088,12.8137427 26.6779086,6.67324851 18.6811832,6.67324851 C17.3511862,6.67324851 16.0345808,6.84286124 14.7631725,7.17950332 L10.0876768,4.39940568 C10.0131826,4.35549644 9.93115725,4.33310899 9.84829397,4.33310899" id="path302" fill="#FFFFFF"></path></g></g><path d="M63.7606376,22.7859294 C63.7606376,24.6759399 63.0957679,26.1497343 61.7660086,27.2073568 C60.4362494,28.2649792 58.6316032,28.7937826 56.3520159,28.7937826 C53.882463,28.7937826 51.9828354,28.4657286 50.6530762,27.809611 L50.6530762,25.4005941 C51.5079214,25.7727205 52.4387389,26.0665001 53.4455566,26.2819417 C54.4523744,26.4973833 55.4496788,26.6051025 56.4375,26.6051025 C58.0522077,26.6051025 59.2679693,26.2892895 60.0848214,25.6576538 C60.9016735,25.0260182 61.3100935,24.1471275 61.3100935,23.0209554 C61.3100935,22.2767026 61.1652469,21.6671099 60.8755493,21.192159 C60.5858518,20.7172082 60.1014467,20.2789869 59.4223197,19.8774821 C58.7431926,19.4759773 57.7102701,19.0206189 56.3235212,18.5113932 C54.385872,17.7965188 53.0015184,16.9494542 52.1704189,15.9701742 C51.3393193,14.9908941 50.9237758,13.7129528 50.9237758,12.1363118 C50.9237758,10.4813285 51.5269076,9.16421659 52.7331892,8.18493652 C53.9394708,7.20565645 55.535158,6.71602376 57.5202985,6.71602376 C59.5909237,6.71602376 61.4953003,7.10772992 63.2334856,7.89115397 L62.4783761,10.0651449 C60.7591874,9.320892 59.0875151,8.94877116 57.4633092,8.94877116 C56.1810413,8.94877116 55.1789878,9.23275812 54.4571184,9.80074056 C53.7352491,10.368723 53.3743199,11.1570316 53.3743199,12.1656901 C53.3743199,12.909943 53.5072938,13.5195357 53.7732457,13.9944865 C54.0391975,14.4694373 54.4879845,14.9052104 55.1196202,15.3018188 C55.7512558,15.6984273 56.7176914,16.1366485 58.0189558,16.6164958 C60.2035603,17.4195054 61.7066406,18.281259 62.5282418,19.2017822 C63.3498431,20.1223055 63.7606376,21.3170093 63.7606376,22.7859294 Z M70.0294713,28.5 L67.6644113,28.5 L67.6644113,12.4007161 L70.0294713,12.4007161 L70.0294713,28.5 Z M67.4649484,8.03804525 C67.4649484,7.47985561 67.5979223,7.07101231 67.8638742,6.81150309 C68.129826,6.55199387 68.4622608,6.42224121 68.8611886,6.42224121 C69.2411198,6.42224121 69.5688056,6.55444204 69.8442557,6.81884766 C70.1197059,7.08325328 70.2574289,7.48964841 70.2574289,8.03804525 C70.2574289,8.58644209 70.1197059,8.99528538 69.8442557,9.2645874 C69.5688056,9.53388942 69.2411198,9.66853841 68.8611886,9.66853841 C68.4622608,9.66853841 68.129826,9.53388942 67.8638742,9.2645874 C67.5979223,8.99528538 67.4649484,8.58644209 67.4649484,8.03804525 Z M87.8244106,12.4007161 L87.8244106,13.9430745 L84.9321987,14.2956136 C85.1981505,14.6383616 85.435604,15.0863755 85.6445661,15.6396688 C85.8535283,16.192962 85.9580078,16.8172437 85.9580078,17.5125326 C85.9580078,19.0891735 85.4356102,20.3475295 84.3907994,21.2876383 C83.3459885,22.2277472 81.9117697,22.6977946 80.0880999,22.6977946 C79.6226841,22.6977946 79.1857698,22.658624 78.7773437,22.5802816 C77.770526,23.1286784 77.2671247,23.8190605 77.2671247,24.6514486 C77.2671247,25.0921246 77.4428403,25.4177303 77.7942766,25.6282756 C78.145713,25.8388208 78.7488448,25.9440918 79.60369,25.9440918 L82.3676758,25.9440918 C84.0583697,25.9440918 85.35724,26.3113163 86.2643258,27.0457764 C87.1714116,27.7802364 87.6249477,28.8476357 87.6249477,30.2480062 C87.6249477,32.0302959 86.9315836,33.3890266 85.5448347,34.3242391 C84.1580857,35.2594516 82.1349824,35.7270508 79.4754639,35.7270508 C77.4333336,35.7270508 75.8590172,35.3353446 74.7524676,34.5519206 C73.6459179,33.7684965 73.0926514,32.6619266 73.0926514,31.2321777 C73.0926514,30.2528977 73.3965918,29.4058331 74.0044817,28.6909587 C74.6123717,27.9760842 75.4672041,27.4913478 76.5690046,27.236735 C76.1700768,27.0506718 75.8352675,26.7617885 75.5645665,26.3700765 C75.2938655,25.9783645 75.158517,25.5230061 75.158517,25.0039876 C75.158517,24.4164196 75.3104872,23.9023053 75.6144322,23.4616292 C75.9183772,23.0209532 76.3980331,22.5949728 77.0534145,22.1836751 C76.2460606,21.8409271 75.5883146,21.2582642 75.0801566,20.4356689 C74.5719986,19.6130737 74.3179234,18.6729789 74.3179234,17.6153564 C74.3179234,15.8526523 74.8308229,14.4939216 75.8566371,13.5391235 C76.8824514,12.5843255 78.3356665,12.1069336 80.216326,12.1069336 C81.0331781,12.1069336 81.7692838,12.2048601 82.4246652,12.4007161 L87.8244106,12.4007161 Z M75.3722273,31.2027995 C75.3722273,32.0743587 75.7284074,32.7353629 76.4407785,33.1858317 C77.1531495,33.6363005 78.1741993,33.8615316 79.5039586,33.8615316 C81.4890992,33.8615316 82.958936,33.5555111 83.9135132,32.9434611 C84.8680904,32.3314111 85.3453718,31.5014836 85.3453718,30.453654 C85.3453718,29.5820947 85.084173,28.9773983 84.5617676,28.6395467 C84.0393622,28.3016951 83.0563049,28.1327718 81.6125663,28.1327718 L78.7773437,28.1327718 C77.7040381,28.1327718 76.8682019,28.3971735 76.2698103,28.9259847 C75.6714186,29.4547959 75.3722273,30.2137266 75.3722273,31.2027995 Z M76.6544887,17.5565999 C76.6544887,18.682772 76.9631782,19.5347329 77.5805664,20.1125081 C78.1979546,20.6902834 79.0575361,20.9791667 80.1593366,20.9791667 C82.4674188,20.9791667 83.6214425,19.8236335 83.6214425,17.5125326 C83.6214425,15.0937108 82.4531716,13.884318 80.1165946,13.884318 C79.0052958,13.884318 78.1504634,14.1927866 77.5520717,14.8097331 C76.95368,15.4266795 76.6544887,16.3422926 76.6544887,17.5565999 Z M101.715576,28.5 L101.715576,18.0854085 C101.715576,16.7731732 101.425883,15.7939079 100.846488,15.147583 C100.267093,14.5012582 99.3600206,14.1781006 98.1252441,14.1781006 C96.4915399,14.1781006 95.2947745,14.633459 94.5349121,15.5441895 C93.7750497,16.4549199 93.3951242,17.9580923 93.3951242,20.0537516 L93.3951242,28.5 L91.0300642,28.5 L91.0300642,12.4007161 L92.9534563,12.4007161 L93.3381348,14.6040853 L93.4521136,14.6040853 C93.9365259,13.8108684 94.6156427,13.1963794 95.4894845,12.7605998 C96.3633263,12.3248201 97.3368854,12.1069336 98.4101911,12.1069336 C100.290851,12.1069336 101.706073,12.5745328 102.655901,13.5097453 C103.605729,14.4449577 104.080636,15.9407856 104.080636,17.9972738 L104.080636,28.5 L101.715576,28.5 Z M118.541696,28.5 L118.071533,26.2084961 L117.957554,26.2084961 C117.178695,27.2171546 116.402223,27.9001922 115.628113,28.2576294 C114.854003,28.6150666 113.887567,28.7937826 112.728777,28.7937826 C111.180558,28.7937826 109.96717,28.3824911 109.088579,27.5598958 C108.209989,26.7373006 107.7707,25.5670784 107.7707,24.0491943 C107.7707,20.7979845 110.292455,19.0940627 115.336042,18.9373779 L117.986049,18.8492432 L117.986049,17.8503825 C117.986049,16.5871112 117.722476,15.6543609 117.195321,15.0521037 C116.668167,14.4498464 115.825207,14.1487223 114.666417,14.1487223 C113.365152,14.1487223 111.892941,14.5600138 110.249738,15.382609 L109.523124,13.5170898 C110.292484,13.0862066 111.135444,12.7483601 112.052028,12.50354 C112.968612,12.25872 113.887557,12.1363118 114.80889,12.1363118 C116.670553,12.1363118 118.050158,12.5622923 118.947745,13.414266 C119.845333,14.2662396 120.29412,15.6323148 120.29412,17.5125326 L120.29412,28.5 L118.541696,28.5 Z M113.19894,26.7813721 C114.671173,26.7813721 115.827571,26.3651843 116.668169,25.5327962 C117.508767,24.7004082 117.92906,23.5350824 117.92906,22.0367839 L117.92906,20.5825602 L115.564,20.6853841 C113.68334,20.7539337 112.327481,21.0550578 111.496381,21.5887655 C110.665282,22.1224731 110.249738,22.9524005 110.249738,24.0785726 C110.249738,24.9599247 110.508563,25.6307214 111.026219,26.0909831 C111.543875,26.5512447 112.268108,26.7813721 113.19894,26.7813721 Z M127.531773,28.5 L125.166713,28.5 L125.166713,5.64371745 L127.531773,5.64371745 L127.531773,28.5 Z" fill="#FFFFFF" fill-rule="nonzero"></path></g></g></svg>