<svg viewBox="0 0 164 120" version="1.1" xmlns="http://www.w3.org/2000/svg" class="small-svg__SmallSVG-sc-1vgeaaz-0 eNfNVt"><g id="10_Samsung" stroke="none" stroke-width="1" fill="none" fill-rule="evenodd"><rect id="BG" fill="#121212" opacity="0" x="0" y="0" width="164" height="120"></rect><g id="samsung" transform="translate(2.000000, 33.000000)" fill="#FFFFFF"><path d="M159.631804,12.9936443 C158.551411,5.98834203 146.060589,1.52578723 127.394309,0.467898836 C103.9416,-0.861225211 56.8091321,4.94085909 26.1290415,17.8810887 C26.7900528,17.7402682 27.5107774,17.6757543 28.2669132,17.6757543 C30.619683,17.6757543 33.8816906,18.2522168 33.8816906,21.8677672 L33.8816906,23.036994 L29.7347472,23.036994 C29.7347472,23.036994 29.7347472,22.3158956 29.7347472,22.0082409 C29.7347472,21.1012316 29.1605283,20.4987555 28.1874113,20.4987555 C27.1386113,20.4987555 26.7775547,21.0901325 26.6643774,21.6190767 C26.6199396,21.8011722 26.6001509,22.1539173 26.68,22.4889731 C27.154234,24.4379157 33.4647396,25.4701373 34.1656755,28.9597816 C34.2326792,29.311833 34.3840453,30.2458964 34.1854642,31.6794219 C33.7820528,34.461495 31.312634,35.4864328 28.3061434,35.4864328 C25.1795321,35.4864328 22.2570566,34.3681927 22.2570566,30.6513625 L22.2570566,29.3808559 L26.7237434,29.3808559 L26.7265208,30.9805219 C26.7265208,31.8889185 27.3486491,32.4945163 28.3901585,32.4945163 C29.5028377,32.4945163 29.8777811,31.9277656 30.012483,31.3703798 C30.0954566,31.058216 30.1437132,30.5441863 29.9812377,30.1428824 C29.1223396,27.994155 23.2100377,27.0097985 22.4875774,23.6106817 C22.3132981,22.7716548 22.3327396,22.1168045 22.4559849,21.3693456 C22.6375547,20.2514524 23.1541434,19.4280337 23.9047245,18.8463685 C16.2416453,22.2583187 9.72526792,26.1392084 5.03951698,30.4925058 C1.43485283,33.8413296 -0.396815094,37.0479454 0.0742943396,40.1054163 C0.914792453,45.5585709 7.17704151,48.6122264 16.2551849,50.6125026 C31.1359245,53.8909161 56.1460377,53.4275263 81.3724377,49.4460506 C100.598008,46.4111248 119.920438,41.3807788 134.65363,34.9824617 C134.045736,35.1014308 133.39757,35.155886 132.732392,35.155886 C129.788392,35.155886 127.157192,34.0816957 126.885358,31.0498916 C126.829117,30.4918121 126.81766,30.255955 126.81766,29.9531562 L126.81766,22.9638089 C126.81766,22.6585821 126.868347,22.1490614 126.901675,21.8632581 C127.26794,18.7548005 129.788045,17.7583043 132.742808,17.7583043 C135.691668,17.7583043 138.262808,18.746823 138.578385,21.8632581 C138.629072,22.3942834 138.608936,22.9638089 138.608936,22.9638089 L138.608936,23.5100955 L134.418943,23.5100955 L134.418943,22.5864376 C134.418943,22.5864376 134.418943,22.18444 134.366868,21.9458081 C134.295004,21.5836981 133.979774,20.7408559 132.708785,20.7408559 C131.492649,20.7408559 131.132634,21.5410357 131.052438,21.9458081 C130.993419,22.1674444 130.977102,22.4622658 130.977102,22.7310735 L130.977102,30.3284464 C130.977102,30.5445331 130.988906,30.7744938 131.021887,30.9607515 C131.092709,31.4102674 131.511049,32.1736813 132.717117,32.1736813 C133.924226,32.1736813 134.350204,31.4102674 134.418943,30.9607515 C134.454008,30.7744938 134.4672,30.5445331 134.462687,30.3284464 L134.462687,27.9227041 L132.756347,27.9227041 L132.756347,25.4971915 L138.642264,25.4971915 L138.642264,29.9531562 C138.633932,30.255955 138.629072,30.4918121 138.582898,31.0498916 C138.469721,32.2787764 137.972921,33.1857856 137.225811,33.8302304 C143.471396,30.9402874 148.772679,27.792289 152.725555,24.4389562 C157.021781,20.7939237 160.207064,16.725389 159.631804,12.9936443 Z M46.0718642,34.8298483 L43.8065811,19.438786 L41.4822792,34.8298483 L36.9888604,34.8298483 L40.071034,18.2067796 L47.4664453,18.2067796 L50.5347321,34.8298483 L46.0718642,34.8298483 Z M68.1855396,34.8298483 L68.0720151,19.438786 L65.2068226,34.8298483 L60.9883623,34.8298483 L58.1280302,19.438786 L58.0162415,34.8298483 L53.8581887,34.8298483 L54.2157736,18.2067796 L61.0057208,18.2067796 L63.1033208,31.1983428 L65.2030038,18.2067796 L71.9814943,18.2067796 L72.3536604,34.8298483 L68.1855396,34.8298483 Z M88.2224453,31.633291 C87.8270189,34.3851883 85.3725283,35.39868 82.4014491,35.39868 C79.2984453,35.39868 76.4169358,34.2887644 76.4169358,30.6152902 L76.4169358,29.346171 L80.8315472,29.346171 L80.8336302,30.9416748 C80.8336302,31.8389723 81.4578415,32.4348583 82.4917132,32.4348583 C83.5943245,32.4348583 83.9699623,31.8774725 84.0952906,31.3249426 C84.1740981,31.02145 84.2157585,30.5077672 84.0661283,30.1061164 C83.2166038,27.982709 77.3605434,27.0059831 76.6484981,23.6450197 C76.4651925,22.8143171 76.4922717,22.1632822 76.6089208,21.430391 C77.044966,18.7360707 79.4397434,17.7694035 82.3681208,17.7694035 C84.6948528,17.7694035 87.9106868,18.3316451 87.9106868,21.9142449 L87.9106868,23.071332 L83.8057509,23.071332 C83.8057509,23.071332 83.8057509,22.3578643 83.8057509,22.0574934 C83.8057509,21.1588085 83.2450717,20.5615351 82.2823698,20.5615351 C81.2540528,20.5615351 80.8947321,21.1404255 80.7753057,21.6728382 C80.737117,21.8549338 80.7159396,22.2017824 80.7916226,22.5316355 C81.2616906,24.4549113 87.5024151,25.4909482 88.1925887,28.9396644 C88.2661887,29.2882473 88.4102642,30.2129458 88.2224453,31.633291 Z M103.830158,31.2219285 C103.531592,34.3244898 101.086475,35.3348599 98.020966,35.3348599 C94.9606642,35.3348599 92.513117,34.3244898 92.2214943,31.2219285 C92.2062189,31.058216 92.181917,30.4311136 92.186083,30.1213778 L92.186083,18.2067796 L96.3923925,18.2067796 L96.3923925,30.5046455 C96.3882264,30.7172637 96.3923925,30.9586704 96.4371774,31.1334821 C96.5159849,31.5476194 96.8756528,32.3425965 98.020966,32.3425965 C99.180166,32.3425965 99.5308075,31.5476194 99.619683,31.1334821 C99.6547472,30.9583236 99.6627321,30.7172637 99.6547472,30.5046455 L99.6547472,18.2067796 L103.867306,18.2067796 L103.867306,30.1213778 C103.882234,30.4307668 103.850294,31.058216 103.830158,31.2219285 Z M122.45443,34.6550365 L116.532408,34.6550365 L112.324362,20.8442168 L112.560438,34.6550365 L108.480498,34.6550365 L108.480498,18.2067796 L114.654566,18.2067796 L118.569947,31.5888944 L118.342551,18.2067796 L122.45443,18.2067796 L122.45443,34.6550365 L122.45443,34.6550365 Z" id="Shape"></path></g></g></svg>