<svg viewBox="0 0 49 120" version="1.1" xmlns="http://www.w3.org/2000/svg" class="small-svg__SmallSVG-sc-1vgeaaz-0 rZaNL"><g id="Page-1" stroke="none" stroke-width="1" fill="none" fill-rule="evenodd"><g id="paypal-logo" fill="#fff" transform="translate(0.000000, 35.000000)" fill-rule="nonzero"><path d="M5.91340909,36.7752809 L2.10477273,36.7752809 C1.84306818,36.7752809 1.62034091,36.9662921 1.58136364,37.2247191 L0.0389772727,47.0786517 C0.0111363636,47.252809 0.128068182,47.4157303 0.30625,47.4438202 C0.322954545,47.4438202 0.339659091,47.4494382 0.356363636,47.4494382 L2.17159091,47.4494382 C2.43329545,47.4494382 2.65602273,47.258427 2.695,47 L3.11261364,44.3426966 C3.15159091,44.0842697 3.37431818,43.8932584 3.63602273,43.8932584 L4.84431818,43.8932584 C7.35556818,43.8932584 8.79772727,42.6685393 9.17636364,40.241573 C9.34897727,39.1797753 9.18193182,38.3426966 8.69193182,37.7640449 C8.14625,37.1123596 7.18852273,36.7752809 5.91340909,36.7752809 Z M6.35329545,40.3707865 C6.14727273,41.747191 5.10045455,41.747191 4.09261364,41.747191 L3.51909091,41.747191 L3.92,39.1741573 C3.94227273,39.0168539 4.07590909,38.9044944 4.23181818,38.9044944 L4.49352273,38.9044944 C5.18397727,38.9044944 5.82988636,38.9044944 6.16397727,39.2977528 C6.37,39.5393258 6.43125,39.8876404 6.35329545,40.3707865 Z M17.2947727,40.3258427 L15.4684091,40.3258427 C15.3125,40.3258427 15.1788636,40.4382022 15.1565909,40.5955056 L15.0730682,41.1123596 L14.945,40.9269663 C14.5496591,40.3483146 13.6698864,40.1573034 12.7901136,40.1573034 C10.7744318,40.1573034 9.05386364,41.6966292 8.71977273,43.8595506 C8.54715909,44.9382022 8.79215909,45.9662921 9.39909091,46.6853933 C9.95590909,47.3483146 10.7521591,47.6235955 11.6931818,47.6235955 C13.3190909,47.6235955 14.2155682,46.5674157 14.2155682,46.5674157 L14.1320455,47.0786517 C14.1042045,47.252809 14.2211364,47.4157303 14.39375,47.4438202 C14.4104545,47.4438202 14.4271591,47.4494382 14.4438636,47.4494382 L16.0864773,47.4494382 C16.3481818,47.4494382 16.5709091,47.258427 16.6098864,47 L17.5954545,40.7022472 C17.6232955,40.5280899 17.5063636,40.3651685 17.33375,40.3370787 C17.3281818,40.3314607 17.3114773,40.3258427 17.2947727,40.3258427 Z M14.7556818,43.9101124 C14.5775,44.9606742 13.7534091,45.6685393 12.7010227,45.6685393 C12.1720455,45.6685393 11.7488636,45.494382 11.4760227,45.1741573 C11.20875,44.8539326 11.1029545,44.3932584 11.1920455,43.8820225 C11.3535227,42.8426966 12.1998864,42.1123596 13.2355682,42.1123596 C13.7534091,42.1123596 14.1765909,42.2865169 14.4494318,42.6123596 C14.7222727,42.9382022 14.8336364,43.3988764 14.7556818,43.9101124 Z M27.01125,40.3258427 L25.1793182,40.3258427 C25.0011364,40.3258427 24.8396591,40.4157303 24.7394318,40.5617978 L22.2114773,44.3202247 L21.1423864,40.7078652 C21.0755682,40.4831461 20.8695455,40.3258427 20.6356818,40.3258427 L18.8371591,40.3258427 C18.6645455,40.3258427 18.5197727,40.4662921 18.5197727,40.6460674 C18.5197727,40.6797753 18.5253409,40.7191011 18.5364773,40.752809 L20.5521591,46.7303371 L18.6534091,49.4325843 C18.5531818,49.5786517 18.5865909,49.7752809 18.7257955,49.8764045 C18.7814773,49.9157303 18.8427273,49.9382022 18.9095455,49.9382022 L20.7414773,49.9382022 C20.9140909,49.9382022 21.0755682,49.8539326 21.1757955,49.7078652 L27.2729545,40.8314607 C27.3731818,40.6853933 27.3397727,40.488764 27.195,40.3876404 C27.1393182,40.3483146 27.0725,40.3314607 27.01125,40.3258427 L27.01125,40.3258427 Z" id="Shape"></path><path d="M33.075,36.7752809 L29.2663636,36.7752809 C29.0046591,36.7752809 28.7819318,36.9662921 28.7429545,37.2247191 L27.2005682,47.0786517 C27.1727273,47.252809 27.2896591,47.4157303 27.4622727,47.4438202 C27.4789773,47.4438202 27.4956818,47.4494382 27.5123864,47.4494382 L29.4668182,47.4494382 C29.6505682,47.4494382 29.8064773,47.3146067 29.8343182,47.1348315 L30.2742045,44.3426966 C30.3131818,44.0842697 30.5359091,43.8932584 30.7976136,43.8932584 L32.0003409,43.8932584 C34.5115909,43.8932584 35.9593182,42.6685393 36.3323864,40.241573 C36.505,39.1797753 36.3379545,38.3426966 35.8479545,37.7640449 C35.3078409,37.1123596 34.3501136,36.7752809 33.075,36.7752809 Z M33.5148864,40.3707865 C33.3088636,41.747191 32.2620455,41.747191 31.2542045,41.747191 L30.6806818,41.747191 L31.0815909,39.1741573 C31.1038636,39.0168539 31.2375,38.9044944 31.3934091,38.9044944 L31.6551136,38.9044944 C32.34,38.9044944 32.9914773,38.9044944 33.3255682,39.2977528 C33.5315909,39.5393258 33.5928409,39.8876404 33.5148864,40.3707865 Z M44.4563636,40.3258427 L42.6355682,40.3258427 C42.4796591,40.3258427 42.3460227,40.4382022 42.32375,40.5955056 L42.2457955,41.1123596 L42.1177273,40.9269663 C41.7223864,40.3483146 40.8426136,40.1573034 39.9628409,40.1573034 C37.9471591,40.1573034 36.2265909,41.6966292 35.8925,43.8595506 C35.7198864,44.9382022 35.9648864,45.9662921 36.5718182,46.6853933 C37.1286364,47.3483146 37.9248864,47.6235955 38.8659091,47.6235955 C40.4918182,47.6235955 41.3882955,46.5674157 41.3882955,46.5674157 L41.3047727,47.0786517 C41.2769318,47.252809 41.3938636,47.4157303 41.5664773,47.4438202 C41.5831818,47.4438202 41.5998864,47.4494382 41.6165909,47.4494382 L43.2592045,47.4494382 C43.5209091,47.4494382 43.7436364,47.258427 43.7826136,47 L44.77375,40.6966292 C44.8015909,40.5224719 44.6790909,40.3595506 44.5064773,40.3314607 C44.4897727,40.3314607 44.4730682,40.3258427 44.4563636,40.3258427 Z M41.9172727,43.9101124 C41.7446591,44.9606742 40.915,45.6685393 39.8626136,45.6685393 C39.3336364,45.6685393 38.9104545,45.494382 38.6376136,45.1741573 C38.3703409,44.8539326 38.2645455,44.3932584 38.3536364,43.8820225 C38.5206818,42.8426966 39.3614773,42.1123596 40.3971591,42.1123596 C40.915,42.1123596 41.3381818,42.2865169 41.6110227,42.6123596 C41.8894318,42.9382022 41.9952273,43.3988764 41.9172727,43.9101124 Z M46.6056818,37.0449438 L45.0410227,47.0786517 C45.0131818,47.252809 45.1301136,47.4157303 45.3027273,47.4438202 C45.3194318,47.4438202 45.3361364,47.4494382 45.3528409,47.4494382 L46.9230682,47.4494382 C47.1847727,47.4494382 47.4075,47.258427 47.4464773,47 L48.9888636,37.1460674 C49.0167045,36.9719101 48.8997727,36.8089888 48.7271591,36.7808989 C48.7104545,36.7808989 48.69375,36.7752809 48.6770455,36.7752809 L46.9175,36.7752809 C46.7671591,36.7752809 46.6335227,36.8876404 46.6056818,37.0449438 Z" id="Shape"></path><g id="Group" transform="translate(11.693182, 0.000000)"><path d="M7.91795455,32.1067416 L8.48034091,28.4719101 L7.21079545,28.4382022 L1.18045455,28.4382022 L5.37886364,1.6011236 C5.40113636,1.43820225 5.55147727,1.30337079 5.71295455,1.30337079 L15.8915909,1.30337079 C19.2659091,1.30898876 21.5989773,2.02247191 22.8295455,3.42134831 C23.4030682,4.07865169 23.765,4.76966292 23.9376136,5.52247191 C24.1213636,6.30898876 24.1213636,7.26404494 23.94875,8.41011236 L23.9376136,8.5 L23.9376136,9.24719101 L24.5111364,9.57303371 C24.9454545,9.79213483 25.3352273,10.1011236 25.6748864,10.4606742 C26.1648864,11.0168539 26.4767045,11.7303371 26.6103409,12.5842697 C26.7495455,13.4606742 26.6994318,14.488764 26.4822727,15.6629213 C26.2205682,17.011236 25.7973864,18.1797753 25.235,19.1460674 C24.7338636,20.011236 24.0656818,20.752809 23.2471591,21.3370787 C22.4898864,21.8707865 21.5989773,22.2921348 20.58,22.5505618 C19.5944318,22.8146067 18.4752273,22.9325843 17.2502273,22.9325843 L16.4595455,22.9325843 C15.8971591,22.9325843 15.3403409,23.1404494 14.9060227,23.5 C14.4717045,23.8707865 14.1877273,24.3876404 14.1042045,24.9550562 L14.0373864,25.2808989 L13.0406818,31.6853933 L12.9961364,31.9269663 C12.985,32.005618 12.9627273,32.0337079 12.9293182,32.0561798 C12.8959091,32.0786517 12.8625,32.0898876 12.8235227,32.0898876 C12.80125,32.1067416 7.91795455,32.1067416 7.91795455,32.1067416 Z" id="Path"></path><path d="M25.0401136,8.58988764 C25.0067045,8.78651685 24.9732955,8.98314607 24.9343182,9.19101124 C23.5868182,16.1460674 18.9986364,18.5505618 13.1409091,18.5505618 L10.1563636,18.5505618 C9.43806818,18.5505618 8.83113636,19.0786517 8.72534091,19.7865169 L7.19409091,29.5617978 L6.75977273,32.3314607 C6.69295455,32.747191 6.97693182,33.1404494 7.40011364,33.2191011 C7.44465909,33.2303371 7.47806818,33.2303371 7.51704545,33.2303371 L12.8123864,33.2303371 C13.4415909,33.2303371 13.9761364,32.7696629 14.0707955,32.1460674 L14.1264773,31.8707865 L15.1231818,25.488764 L15.19,25.1404494 C15.2902273,24.5168539 15.8192045,24.0561798 16.4484091,24.0561798 L17.2390909,24.0561798 C22.3729545,24.0561798 26.3876136,21.9550562 27.5569318,15.8651685 C28.0469318,13.3258427 27.7963636,11.2022472 26.4934091,9.71348315 C26.0702273,9.25842697 25.5857955,8.87640449 25.0401136,8.58988764 Z" id="Path"></path><path d="M23.6313636,8.02247191 C23.2081818,7.90449438 22.7627273,7.80337079 22.3284091,7.7247191 C21.4597727,7.59550562 20.58,7.52808989 19.6890909,7.52808989 L11.7154545,7.52808989 C11.08625,7.52808989 10.5517045,7.98876404 10.4570455,8.61235955 L8.76431818,19.4606742 L8.70863636,19.7808989 C8.81443182,19.0674157 9.42693182,18.5449438 10.1396591,18.5449438 L13.1242045,18.5449438 C18.9819318,18.5449438 23.5868182,16.1460674 24.9176136,9.18539326 C24.9621591,8.97752809 24.9955682,8.78089888 25.0234091,8.58426966 C24.6670455,8.3988764 24.2939773,8.24719101 23.9153409,8.11235955 C23.8373864,8.08426966 23.7371591,8.05617978 23.6313636,8.02247191 Z" id="Path"></path><path d="M10.4570455,8.62359551 C10.5572727,8 11.08625,7.53932584 11.7154545,7.53932584 L19.6890909,7.53932584 C20.6356818,7.53932584 21.5098864,7.60674157 22.3284091,7.73595506 C22.8685227,7.8258427 23.4142045,7.95505618 23.9320455,8.11797753 C24.3218182,8.24719101 24.6893182,8.40449438 25.0401136,8.58988764 C25.4410227,6.01685393 25.0401136,4.2752809 23.6592045,2.69101124 C22.1390909,0.938202247 19.3939773,0.196629213 15.8915909,0.196629213 L5.71295455,0.196629213 C4.99465909,0.196629213 4.38772727,0.724719101 4.28193182,1.43258427 L0.0389772727,28.5505618 C-0.0389772727,29.0337079 0.289545455,29.4831461 0.768409091,29.5561798 C0.812954545,29.5674157 0.8575,29.5674157 0.896477273,29.5674157 L7.18852273,29.5674157 L8.76431818,19.4606742 L10.4570455,8.62359551 Z" id="Path"></path></g></g></g></svg>