<svg viewBox="0 0 159 120" version="1.1" xmlns="http://www.w3.org/2000/svg" class="small-svg__SmallSVG-sc-1vgeaaz-0 lfHGZf"><g id="14_Mailchimp" stroke="none" stroke-width="1" fill="none" fill-rule="evenodd"><rect id="BG" fill="#121212" opacity="0" x="0" y="0" width="159" height="120"></rect><g id="mailchimp-logo" transform="translate(0.000000, 37.000000)"><g id="monk" transform="translate(0.479956, 0.941118)" fill="#FFFFFF" fill-rule="nonzero"><path d="M37.6143838,26.5568896 C37.5966722,26.4940611 37.4823519,26.0705806 37.3253628,25.5606089 L37.0057491,24.6916172 C37.6353157,23.7361344 37.6465867,22.8818298 37.5628591,22.3979687 C37.4734961,21.7982421 37.227144,21.2866385 36.7304144,20.7587159 C36.2336848,20.2299772 35.2184886,19.6889993 33.7910955,19.2834698 L33.0423782,19.0729535 C33.0383529,19.0419473 33.0029297,17.283565 32.9707268,16.528807 C32.9473797,15.9829333 32.9006855,15.1318926 32.6398421,14.2922753 C32.3290842,13.1564664 31.7880756,12.1634496 31.1118149,11.5278209 C32.9771674,9.56871382 34.1413019,7.40969783 34.1380816,5.55829673 C34.1324461,1.99747065 29.8180637,0.919594565 24.5005612,3.15123052 L23.3742651,3.63590758 C23.3694347,3.63101186 21.3374322,1.61070815 21.3068395,1.58378165 C15.2446451,-3.77540929 -3.71078197,17.5781246 2.34980224,22.7643324 L3.67414615,23.9017731 C3.33038028,24.803403 3.19593321,25.8372176 3.30622812,26.9485478 C3.44792084,28.3756525 4.17409605,29.7440084 5.35191681,30.8014856 C6.46935715,31.8051099 7.93941915,32.4407385 9.36520217,32.4391066 C11.7232589,37.9476164 17.1116078,41.3264846 23.4298151,41.5166021 C30.2069136,41.7205907 35.8963595,38.4975699 38.2801786,32.7075557 C38.4363626,32.3012103 39.098132,30.4702081 39.098132,28.8538019 C39.098132,27.2292362 38.1924257,26.5560736 37.6151888,26.5560736 L37.6143838,26.5568896 L37.6143838,26.5568896 M9.88608395,30.8920566 C9.67998544,30.9279586 9.46986157,30.9418298 9.25812756,30.9369341 C7.21082872,30.8814492 5.00010022,29.013729 4.78031548,26.7984121 C4.53718365,24.3505482 5.77135947,22.465693 7.95713074,22.0193658 C8.21797416,21.9663287 8.53436757,21.9353225 8.87491315,21.9532735 C10.0994281,22.0209977 11.9035951,22.9740327 12.3157921,25.6772905 C12.6804899,28.0713014 12.1008378,30.5093739 9.88608395,30.8920566 L9.88608395,30.8920566 M7.60048371,20.5547272 C6.23991154,20.8231763 5.0411589,21.6040449 4.30773805,22.6835529 C3.86977872,22.3131095 3.05263034,21.5958853 2.9085224,21.3168288 C1.73794729,19.063978 4.18617213,14.6839335 5.89614567,12.210775 C10.1227752,6.09764275 16.7420796,1.47117991 19.8069898,2.30998128 C20.3053295,2.45277335 21.9549227,4.39148159 21.9549227,4.39148159 C21.9549227,4.39148159 18.8916226,6.11396185 16.0513275,8.51531637 C12.2240139,11.5025263 9.33219421,15.8434051 7.60048371,20.5547272 L7.60048371,20.5547272 M29.086253,29.9765555 C29.130532,29.9577885 29.1611247,29.9055674 29.1562943,29.8549783 C29.1498537,29.7921497 29.0943037,29.7464563 29.0323132,29.7529839 C29.0323132,29.7529839 25.8257102,30.2343972 22.7962232,29.1100117 C23.1263028,28.0231601 24.0038316,28.4156343 25.3297857,28.5241562 C27.7200453,28.6685802 29.8623427,28.3144559 31.4451148,27.8542575 C32.816958,27.4552556 34.6187098,26.6686754 36.0187305,25.5491856 C36.4905029,26.6001352 36.6571528,27.7563429 36.6571528,27.7563429 C36.6571528,27.7563429 37.0226556,27.6902506 37.327778,27.880368 C37.6159939,28.060694 37.8277279,28.4344012 37.68362,29.4021234 C37.3889635,31.209463 36.6313905,32.6757335 35.3577661,34.0253225 C34.5824815,34.8714674 33.641352,35.6066426 32.5641653,36.1410929 C31.992564,36.4454439 31.3831242,36.7089973 30.7398715,36.9219615 C25.9384203,38.5114411 21.0226489,36.7636662 19.4382667,33.0110908 C19.3118703,32.7287705 19.2047957,32.4333949 19.1202631,32.1249641 C18.4448075,29.6518055 19.0180189,26.6849945 20.8101099,24.8172743 L20.8101099,24.8164583 C20.9204048,24.6973289 21.0331149,24.5578007 21.0331149,24.3815545 C21.0331149,24.2338667 20.9405316,24.0788353 20.8608294,23.9686814 C20.2336781,23.0474686 18.0623981,21.4767559 18.4987473,18.4373249 C18.8119204,16.2538302 20.6957896,14.7165717 22.4524573,14.8079586 L22.8976623,14.8340692 C23.6584556,14.8797626 24.3226403,14.9784931 24.9497916,15.0054196 C25.9988008,15.0511131 26.9415404,14.8968977 28.0581757,13.9536541 C28.4349495,13.6354318 28.7368516,13.3596391 29.2480725,13.271516 C29.3020124,13.2625405 29.4356544,13.2135832 29.7021333,13.2266385 C29.9750528,13.2413257 30.2342861,13.3172095 30.4677571,13.4746887 C31.3629974,14.0784952 31.4901989,15.5415018 31.5368931,16.6112184 C31.5634604,17.2223684 31.6359169,18.7000623 31.6608742,19.1235427 C31.7180343,20.0937128 31.9692169,20.2299772 32.4780226,20.4005118 C32.7646283,20.4959785 33.0303022,20.5669665 33.4215673,20.6787523 C34.6066337,21.0157416 35.3094618,21.3584425 35.7530566,21.7974261 C36.0171203,22.0724028 36.1402964,22.3636986 36.1781348,22.6427551 C36.3182174,23.6765697 35.3867487,24.9527227 32.9208123,26.1130102 C30.2254303,27.3810038 26.9560317,27.7016739 24.6969989,27.4470961 L23.9056128,27.3565251 C22.0982255,27.1101068 21.067733,29.4771913 22.1521654,31.0984931 C22.8509681,32.143731 24.7549641,32.8234213 26.6597651,32.8242372 C31.0272823,32.8250532 34.3844337,30.9344863 35.6331009,29.301761 L35.7329298,29.157337 C35.7941153,29.0635022 35.7433958,29.0120971 35.6669139,29.0651342 C34.6468873,29.7725668 30.1151354,32.5818987 25.2677951,31.7365697 C25.2677951,31.7365697 24.6784822,31.6386551 24.141499,31.4265069 C23.7140056,31.2584202 22.8203754,30.8414674 22.7116906,29.9112791 C26.6235369,31.137659 29.086253,29.9781874 29.086253,29.9781874 L29.086253,29.9765555 L29.086253,29.9765555 M15.4064646,12.1846644 C16.9087295,10.4246502 18.7587857,8.89473528 20.4156244,8.03553504 C20.4727846,8.00616067 20.5339701,8.06898918 20.5025722,8.12610601 C20.3713455,8.36762858 20.1177477,8.88494383 20.0372405,9.27660206 C20.0243593,9.33779866 20.0903752,9.38349212 20.1410948,9.34840607 C21.1715873,8.63607766 22.9652884,7.87316007 24.5383996,7.77524551 C24.6060257,7.77116574 24.6382286,7.85847288 24.5850938,7.90090252 C24.3459874,8.08694018 24.0843389,8.3439659 23.8935367,8.60425543 C23.8613338,8.64831698 23.8919266,8.71196144 23.9458664,8.7127774 C25.0504256,8.72093694 26.6074354,9.11259517 27.6218265,9.68947511 C27.6902576,9.72864093 27.6419533,9.86327345 27.5646664,9.84532245 C26.0293935,9.48875027 23.5159578,9.21785332 20.9051084,9.86327345 C18.5744241,10.4393374 16.7952143,11.328728 15.4974378,12.2858428 C15.432227,12.3339841 15.3533299,12.246677 15.4064646,12.1838485 L15.4064646,12.1846644 L15.4064646,12.1846644" id="path1398"></path><path d="M11.0260663,28.1463692 C10.9544149,28.0557983 10.8368743,28.0835407 10.7233591,28.1096513 C10.643657,28.1284182 10.5534889,28.149633 10.4552701,28.1480011 C10.243536,28.1439214 10.0640049,28.0525344 9.96337089,27.8958711 C9.8321441,27.6918825 9.84019483,27.3875314 9.98430277,27.0391188 L10.0519288,26.8832714 C10.2829846,26.3586126 10.6686142,25.4798294 10.2354853,24.6434759 C9.90943104,24.0135589 9.37647319,23.6210848 8.73644072,23.5386733 C8.12217056,23.4595257 7.48938374,23.6904409 7.08604252,24.1416638 C6.44923034,24.8531763 6.35020645,25.8217144 6.47338251,26.1644154 C6.51846656,26.2900724 6.58931292,26.3243425 6.64003247,26.3316861 C6.74871723,26.3463733 6.90812154,26.2664097 7.00875558,25.9930649 L7.03773818,25.9041259 C7.08282223,25.7597019 7.16574468,25.4904368 7.30180189,25.2742089 C7.46603664,25.0139193 7.72204963,24.8344093 8.02314667,24.7691329 C8.32907414,24.7030406 8.64224726,24.7617893 8.90389575,24.9355877 C9.3499058,25.2317792 9.5213862,25.7849965 9.33138914,26.3137351 C9.23317032,26.5870799 9.07296093,27.1092909 9.10838411,27.538483 C9.18003555,28.4074747 9.7073579,28.7567033 10.1807404,28.7934213 C10.6412418,28.8113723 10.9632707,28.5486349 11.044583,28.3568855 C11.0928873,28.2434678 11.0518286,28.1749276 11.0260663,28.1447373 L11.0260663,28.1463692 L11.0260663,28.1463692" id="path1392"></path><path d="M28.0766923,22.951186 C28.4309242,23.1274322 28.8205791,23.058076 28.9477806,22.7961546 C29.074982,22.5342332 28.8906204,22.1792929 28.5363886,22.0030467 C28.1821568,21.8268005 27.7925018,21.8961566 27.6653004,22.1580781 C27.538099,22.4199995 27.7224605,22.7749398 28.0766923,22.951186" id="path1380"></path><path d="M30.3534368,20.9349621 C30.066026,20.9300663 29.8269195,21.2499205 29.8204789,21.6505543 C29.8140384,22.0503721 30.0418738,22.3783858 30.3292846,22.3832816 C30.6166954,22.3881773 30.8558019,22.0683231 30.8622425,21.6685053 C30.8686831,21.2686875 30.6408476,20.9406737 30.3534368,20.9349621 L30.3534368,20.9349621" id="path1386"></path><path d="M24.0875591,21.240945 C23.5658723,21.3241724 23.2784615,21.4987867 23.0932949,21.6611617 C22.9355007,21.8006899 22.838087,21.9549054 22.838892,22.0634273 L22.8791456,22.15971 L22.9652884,22.1931641 C23.0828289,22.1931641 23.3468926,22.0862741 23.3468926,22.0862741 C24.0730678,21.8227207 24.5520859,21.8545429 25.0262734,21.9092119 C25.288727,21.9394022 25.4127081,21.9557213 25.4698683,21.8643344 C25.4867748,21.8382238 25.5077067,21.781923 25.455377,21.6954318 C25.333006,21.4947069 24.8064887,21.1552698 24.0883642,21.241761 L24.0875591,21.240945 L24.0875591,21.240945" id="path1354"></path><path d="M24.8934365,20.7750349 C25.2943625,20.9529131 25.5399096,21.0712265 25.6365182,20.9684162 C25.6985088,20.9039558 25.6799921,20.7815626 25.5841885,20.6232674 C25.3869458,20.2960696 24.9795792,19.964792 24.5488656,19.7779384 C23.6665063,19.3928078 22.6142769,19.5209127 21.802764,20.1124798 C21.5346749,20.3115727 21.2810771,20.5873654 21.3173054,20.7546361 C21.3293815,20.8084891 21.36883,20.8492868 21.4630235,20.863158 C21.6836133,20.8884526 22.4556776,20.4935306 23.3452825,20.4380457 C23.9732389,20.3988799 24.4933156,20.5979728 24.8934365,20.7758509 L24.8934365,20.7750349" id="path1348"></path><path d="M29.698913,20.0064057 C29.9927644,19.9705037 30.2745397,19.9696877 30.5329679,20.0064057 C30.6827114,19.657993 30.7084737,19.0582664 30.5740266,18.4055026 C30.3735636,17.4345166 30.1030593,16.8470293 29.5435341,16.9384162 C28.9840088,17.0298031 28.9630769,17.733156 29.1635399,18.704142 C29.2762501,19.2500157 29.4767131,19.7175577 29.6997181,20.0064057 L29.698913,20.0064057" id="path1342"></path></g><g id="g1404" transform="translate(44.011811, 12.620377)" fill="#FFFFFF" fill-rule="nonzero"><g id="Group" transform="translate(3.000000, 0.000000)"><path d="M105.276,4.87859576 C102.934941,4.87859576 101.862584,6.70749982 101.39605,7.74871624 C101.088105,8.43674085 101.103208,8.63868963 100.878332,8.63868963 C100.552766,8.63868963 100.822952,8.08617176 100.968954,7.43573935 C101.257601,6.1558562 101.037759,5.1784591 101.037759,5.1784591 L97.7015397,5.1784591 L97.7015397,21.8580291 L102.255278,21.8580291 L102.255278,16.5697688 C102.793973,17.521813 103.79249,18.539425 105.33138,18.539425 C108.623967,18.539425 110.281168,15.6360835 110.281168,11.7142558 C110.281168,7.26876006 108.297561,4.87684729 105.275161,4.87684729 L105.276,4.87859576 L105.276,4.87859576 M104.025757,15.4437514 C102.98109,15.4437514 102.213324,14.0642052 102.213324,12.1408835 C102.213324,10.273513 103.002907,8.83888993 103.989676,8.83888993 C105.256701,8.83888993 105.797075,10.0497083 105.797075,12.1408835 C105.797075,14.3159855 105.299495,15.4437514 104.025757,15.4437514 L104.025757,15.4437514" id="path1406"></path><path d="M14.760906,4.87859576 C12.7579995,4.87859576 11.7670349,6.52128732 11.3122484,7.57998847 C11.0580043,8.171847 10.9875208,8.63956386 10.7811048,8.63956386 C10.4907799,8.63956386 10.6988741,8.2330436 10.4614118,7.33170513 C10.1484314,6.14536535 9.20697306,4.87859576 7.20490568,4.87859576 C5.1004694,4.87859576 4.19928735,6.73110423 3.77219083,7.74871624 C3.48018771,8.44460898 3.47934862,8.63868963 3.25447265,8.63868963 C2.92890595,8.63868963 3.19909275,8.08617176 3.34509431,7.43573935 C3.63374107,6.1558562 3.41389964,5.1784591 3.41389964,5.1784591 L0.0776800704,5.1784591 L0.0776800704,18.2483041 L4.6314184,18.2483041 L4.6314184,11.7457284 C4.6314184,10.4632225 5.14661931,8.83539298 6.02934139,8.83539298 C7.04883505,8.83539298 7.25357287,9.65193045 7.25357287,11.1626122 L7.25357287,18.251801 L11.8257712,18.251801 L11.8257712,11.7457284 C11.8257712,10.6039747 12.2730058,8.83539298 13.2304069,8.83539298 C14.2641651,8.83539298 14.4479256,9.98151784 14.4479256,11.1626122 L14.4479256,18.2483041 L18.9378932,18.2483041 L18.9378932,10.5620113 C18.9378932,7.15073804 17.7841452,4.87684729 14.7617451,4.87684729 L14.760906,4.87859576 M92.0527897,4.87859576 C90.0498832,4.87859576 89.0589186,6.52128732 88.6041321,7.57998847 C88.349888,8.171847 88.2794045,8.63956386 88.0729885,8.63956386 C87.7826636,8.63956386 87.9764933,8.12288972 87.7532955,7.33170513 C87.4193379,6.15148501 86.5894784,4.87859576 84.4967894,4.87859576 C82.3923531,4.87859576 81.4911711,6.73110423 81.0640745,7.74871624 C80.7720714,8.44460898 80.7712323,8.63868963 80.5463564,8.63868963 C80.2207897,8.63868963 80.4909765,8.08617176 80.636978,7.43573935 C80.9256248,6.1558562 80.7057833,5.1784591 80.7057833,5.1784591 L77.3695638,5.1784591 L77.3695638,18.2483041 L81.9233021,18.2483041 L81.9233021,11.7457284 C81.9233021,10.4632225 82.438503,8.83539298 83.3212251,8.83539298 C84.3407188,8.83539298 84.5454566,9.65193045 84.5454566,11.1626122 L84.5454566,18.251801 L89.1176549,18.251801 L89.1176549,11.7457284 C89.1176549,10.6039747 89.5648895,8.83539298 90.5222906,8.83539298 C91.5560488,8.83539298 91.7398093,9.98151784 91.7398093,11.1626122 L91.7398093,18.2483041 L96.2297769,18.2483041 L96.2297769,10.5620113 C96.2297769,7.15073804 95.0760289,4.87684729 92.0536288,4.87684729 L92.0527897,4.87859576 M26.7120567,4.88121848 C23.223962,4.88121848 20.7209582,6.2170528 20.7209582,6.2170528 L20.7209582,10.1450002 C20.7209582,10.1450002 23.4849188,8.48919508 25.7269657,8.48919508 C27.5167435,8.48919508 27.7365849,9.49456777 27.6551933,10.3294642 C27.6551933,10.3294642 27.1391533,10.1869636 25.5641824,10.1869636 C21.8528899,10.1869636 19.9792032,11.9441802 19.9792032,14.7627207 C19.9792032,17.4361378 22.0844785,18.5534128 23.8591527,18.5534128 C26.4477436,18.5534128 27.5855488,16.7411193 27.9354491,15.8808699 C28.177946,15.2846402 28.2224177,14.8824911 28.440581,14.8824911 C28.6889514,14.8824911 28.6050425,15.1709894 28.5932952,15.7645964 C28.572318,16.8040643 28.619307,17.5908778 28.7778949,18.2526753 L32.2097707,18.2526753 L32.2097707,11.8200385 C32.2097707,7.80379317 30.8462504,4.88121848 26.7128958,4.88121848 L26.7120567,4.88121848 L26.7120567,4.88121848 M25.6036196,15.1945938 C24.5144815,15.4568649 23.9506134,15.1071701 23.9506134,14.3553262 C23.9506134,13.3254748 24.9734634,12.9128349 26.43264,12.9128349 C27.0762216,12.9128349 27.681205,12.9705346 27.681205,12.9705346 C27.681205,13.4120243 26.7624021,14.9165864 25.6036196,15.1945938 M39.7103911,1.22253612 L44.2641294,1.22253612 L44.2641294,18.2526753 L39.7103911,18.2526753 L39.7103911,1.22253612 L39.7103911,1.22253612 M49.2760106,11.7168785 C49.2760106,10.5419038 50.3240333,9.47271184 52.2472263,9.47271184 C54.3432717,9.47271184 56.0290023,10.5244191 56.4074316,10.7630858 L56.4074316,6.2170528 C56.4074316,6.2170528 55.0757967,4.88121848 51.8016698,4.88121848 C48.3504949,4.88121848 45.4766137,6.98550723 45.4766137,11.5140555 C45.4766137,16.0426038 48.0845036,18.5534128 51.7924398,18.5534128 C54.6881374,18.5534128 56.4149835,16.8958592 56.4149835,16.8958592 L56.4149835,12.5780021 C55.8687362,12.8962244 54.346628,13.9968889 52.2682035,13.9968889 C50.0672719,13.9968889 49.2751715,12.9416847 49.2751715,11.7177528 L49.2760106,11.7168785 L49.2760106,11.7168785 M65.6323808,4.88121848 C62.9959618,4.88121848 61.99325,7.48382239 61.7910294,7.93580298 C61.5888089,8.38778357 61.4881181,8.647432 61.3228175,8.64218657 C61.0350099,8.63256997 61.2355522,8.087046 61.3479902,7.73472844 C61.5602798,7.06768552 62.0091927,5.31921127 62.0091927,3.16858795 C62.0091927,1.71036044 61.8195585,1.22253612 61.8195585,1.22253612 L57.8884245,1.22253612 L57.8884245,18.2526753 L62.4421628,18.2526753 L62.4421628,11.7500995 C62.4421628,10.6905241 62.847443,8.83976416 63.9953174,8.83976416 C64.9451666,8.83976416 65.2430433,9.57324911 65.2430433,11.0507098 L65.2430433,18.2535495 L69.7967817,18.2535495 L69.7967817,11.3357111 C69.7967817,7.98038907 69.2631208,4.88296695 65.6323808,4.88296695 L65.6323808,4.88121848 L65.6323808,4.88121848 M71.2769354,5.19681808 L71.2769354,18.251801 L75.8306738,18.251801 L75.8306738,5.19681808 C75.8306738,5.19681808 75.0654242,5.6636607 73.5584196,5.6636607 C72.051415,5.6636607 71.2769354,5.19681808 71.2769354,5.19681808 L71.2769354,5.19681808" id="path1412"></path><path d="M76.3282538,2.9858724 C76.3282538,4.03268393 75.0805278,4.88121848 73.5407987,4.88121848 C72.0010696,4.88121848 70.7533436,4.03268393 70.7533436,2.9858724 C70.7533436,1.93906087 72.0010696,1.09052632 73.5407987,1.09052632 C75.0805278,1.09052632 76.3282538,1.93906087 76.3282538,2.9858724" id="path1418"></path><path d="M33.6823726,5.19681808 L33.6823726,18.251801 L38.236111,18.251801 L38.236111,5.19681808 C38.236111,5.19681808 37.4708614,5.6636607 35.9638568,5.6636607 L33.6823726,5.19681808" id="path1424"></path><path d="M38.733691,2.9858724 C38.733691,4.03268393 37.4857133,4.88121848 35.9462359,4.88121848 C34.4067585,4.88121848 33.1587808,4.03268393 33.1587808,2.9858724 C33.1587808,1.93906087 34.4067585,1.09052632 35.9462359,1.09052632 C37.4857133,1.09052632 38.733691,1.93906087 38.733691,2.9858724" id="path1430"></path></g></g><g id="g1410" transform="translate(45.123426, 13.092328)"></g><g id="g1416" transform="translate(112.749498, 13.092328)"></g><g id="g1422" transform="translate(77.326317, 17.172101)"></g><g id="g1428" transform="translate(77.326317, 13.092328)"></g></g></g></svg>