<svg viewBox="0 0 147 120" version="1.1" xmlns="http://www.w3.org/2000/svg" class="small-svg__SmallSVG-sc-1vgeaaz-0 kaQxtc"><g id="8_Facebook" stroke="none" stroke-width="1" fill="none" fill-rule="evenodd"><rect id="BG" fill="#121212" opacity="0" x="0" y="0" width="147" height="120"></rect><g id="Group" transform="translate(2.000000, 45.000000)" fill="#FFFFFF"><path d="M11.1537368,4.42881533 C9.47564197,4.42881533 8.98932352,5.19271777 8.98932352,6.87242741 L8.98932352,9.6595935 L13.4665462,9.6595935 L13.0190543,14.1665505 L8.98932352,14.1665505 L8.98932352,27.8373055 L3.61744593,27.8373055 L3.61744593,14.1665505 L0,14.1665505 L0,9.6595935 L3.61744593,9.6595935 L3.61744593,6.94821138 C3.61744593,2.40555168 5.40872987,0 10.4074781,0 C11.4896848,0 12.7571399,0.0757839721 13.5405798,0.189965157 L13.5405798,4.42881533" id="Fill-14"></path><path d="M19.2112241,19.3973287 C19.2112241,22.1087108 20.1818868,23.901928 22.6802738,23.901928 C24.8818684,23.901928 26.0009273,22.2606156 26.0009273,19.6654355 L26.0009273,17.8314634 C26.0009273,15.2342625 24.8818684,13.5926132 22.6802738,13.5926132 C20.1818868,13.5926132 19.2112241,15.3881882 19.2112241,18.0995703 L19.2112241,19.3973287 Z M13.8393465,18.1756911 C13.8393465,13.0968177 16.1893373,9.27764228 21.113723,9.27764228 C23.7996618,9.27764228 25.4402462,10.691266 26.2236861,12.4467596 L26.2236861,9.6595935 L31.3728049,9.6595935 L31.3728049,27.8349477 L26.2236861,27.8349477 L26.2236861,25.087863 C25.4774275,26.8436934 23.7996618,28.2172358 21.113723,28.2172358 C16.1893373,28.2172358 13.8393465,24.4000813 13.8393465,19.3212079 L13.8393465,18.1756911 Z" id="Fill-16"></path><path d="M42.5614197,9.27764228 C44.6491671,9.27764228 46.6283318,9.73537747 47.7082352,10.4992799 L46.5148136,14.3942393 C45.6941924,13.9745645 44.3523746,13.5545528 42.93422,13.5545528 C40.0238771,13.5545528 38.756093,15.2719861 38.756093,18.2134146 L38.756093,19.2811266 C38.756093,22.2225552 40.0238771,23.9399884 42.93422,23.9399884 C44.3523746,23.9399884 45.6941924,23.5199768 46.5148136,23.100302 L47.7082352,26.9952613 C46.6283318,27.7591638 44.6491671,28.2172358 42.5614197,28.2172358 C36.258035,28.2172358 33.3845444,24.7419512 33.3845444,19.1672822 L33.3845444,18.327259 C33.3845444,12.7529268 36.258035,9.27764228 42.5614197,9.27764228" id="Fill-17"></path><path d="M53.7891901,17.0678978 L60.2801266,17.0678978 L60.2801266,16.6101626 C60.2801266,14.6242857 59.4966866,13.0587573 57.1466958,13.0587573 C54.7206972,13.0587573 53.7891901,14.6242857 53.7891901,17.0678978 M48.4173125,19.4353891 L48.4173125,17.8318002 C48.4173125,12.6771429 51.2884998,9.27764228 57.1466958,9.27764228 C62.6669696,9.27764228 65.090994,12.7148664 65.090994,17.7556794 L65.090994,20.6570267 L53.7891901,20.6570267 C53.900405,23.1407201 54.9826116,24.2461556 57.9673171,24.2461556 C59.9810308,24.2461556 62.1082628,23.826144 63.6748136,23.1407201 L64.6435021,26.9194774 C63.2276507,27.6833798 60.3169788,28.2549593 57.742584,28.2549593 C50.954855,28.2549593 48.4173125,24.7820325 48.4173125,19.4353891" id="Fill-18"></path><path d="M79.6394179,18.059489 C79.6394179,15.5000116 78.6687552,13.5926132 76.0963346,13.5926132 C73.89474,13.5926132 72.7013185,15.1962021 72.7013185,17.7913821 L72.7013185,19.7011382 C72.7013185,22.2983391 73.89474,23.901928 76.0963346,23.901928 C78.6687552,23.901928 79.6394179,21.9925087 79.6394179,19.4330314 L79.6394179,18.059489 Z M85.0112954,19.319187 C85.0112954,24.3977236 82.6244524,28.2172358 77.6997377,28.2172358 C75.0141279,28.2172358 73.1484814,26.8413357 72.4022227,25.085842 L72.4022227,27.8349477 L67.3294409,27.8349477 L67.3294409,0.531498258 L72.7013185,0.0357026713 L72.7013185,12.1786527 C73.4844294,10.5754007 75.1993764,9.27764228 77.6997377,9.27764228 C82.6244524,9.27764228 85.0112954,13.0944599 85.0112954,18.1733333 L85.0112954,19.319187 Z" id="Fill-19"></path><path d="M99.1102531,17.9075842 C99.1102531,15.5020325 98.1392614,13.5926132 95.6412034,13.5926132 C93.1408422,13.5926132 92.1721537,15.5020325 92.1721537,17.9075842 L92.1721537,19.586957 C92.1721537,21.9925087 93.1408422,23.901928 95.6412034,23.901928 C98.1392614,23.901928 99.1102531,21.9925087 99.1102531,19.586957 L99.1102531,17.9075842 Z M86.8002761,19.2053426 L86.8002761,18.2895354 C86.8002761,13.0587573 89.7086447,9.27764228 95.6412034,9.27764228 C101.571459,9.27764228 104.481802,13.0587573 104.481802,18.2895354 L104.481802,19.2053426 C104.481802,24.4381417 101.571459,28.2172358 95.6412034,28.2172358 C89.7086447,28.2172358 86.8002761,24.4381417 86.8002761,19.2053426 L86.8002761,19.2053426 Z" id="Fill-20"></path><path d="M118.581088,17.9075842 C118.581088,15.5020325 117.610097,13.5926132 115.112039,13.5926132 C112.611677,13.5926132 111.64266,15.5020325 111.64266,17.9075842 L111.64266,19.586957 C111.64266,21.9925087 112.611677,23.901928 115.112039,23.901928 C117.610097,23.901928 118.581088,21.9925087 118.581088,19.586957 L118.581088,17.9075842 Z M106.271111,19.2053426 L106.271111,18.2895354 C106.271111,13.0587573 109.17948,9.27764228 115.112039,9.27764228 C121.042294,9.27764228 123.952637,13.0587573 123.952637,18.2895354 L123.952637,19.2053426 C123.952637,24.4381417 121.042294,28.2172358 115.112039,28.2172358 C109.17948,28.2172358 106.271111,24.4381417 106.271111,19.2053426 L106.271111,19.2053426 Z" id="Fill-21"></path><polyline id="Fill-22" points="131.336254 18.327259 136.633769 9.6595935 142.341266 9.6595935 136.782165 18.6334262 142.564024 27.8349477 136.858502 27.8349477 131.336254 18.9395935 131.336254 27.8349477 125.964376 27.8349477 125.964376 0.533855981 131.336254 0.0357026713"></polyline></g></g></svg>