<svg viewBox="0 0 169 120" version="1.1" xmlns="http://www.w3.org/2000/svg" class="small-svg__SmallSVG-sc-1vgeaaz-0 qqSEQ"><g id="9_Whatsapp" stroke="none" stroke-width="1" fill="none" fill-rule="evenodd"><rect id="BG" fill="#121212" opacity="0" x="0" y="0" width="169" height="120"></rect><g id="Fill-16" transform="translate(2.000000, 42.000000)" fill="#FFFFFF"><path d="M161.155644,22.0219165 C161.052312,22.525036 160.874582,22.9641657 160.624105,23.3413054 C160.371976,23.718845 160.042967,24.0255959 159.63584,24.2587586 C159.229953,24.493921 158.723214,24.6119021 158.116863,24.6119021 C157.527872,24.6119021 157.025679,24.493921 156.610699,24.2587586 C156.194478,24.0255959 155.86175,23.718845 155.610033,23.3413054 C155.359971,22.9641657 155.17728,22.525036 155.064442,22.0219165 C154.952017,21.5195969 154.895804,21.0076788 154.895804,20.4897616 C154.895804,19.9518477 154.949123,19.4323308 155.052455,18.9308111 C155.155787,18.4276916 155.333931,17.9837626 155.584821,17.5966245 C155.835297,17.212286 156.165132,16.8979363 156.571846,16.6555751 C156.97732,16.412414 157.484472,16.2896337 158.091236,16.2896337 C158.679814,16.2896337 159.177047,16.412414 159.583348,16.6555751 C159.991715,16.8979363 160.323616,17.2154855 160.584013,17.6098224 C160.844822,18.0041593 161.030819,18.4528875 161.142831,18.9552072 C161.256909,19.4579267 161.311882,19.9698448 161.311882,20.4897616 C161.311882,21.0076788 161.259389,21.5195969 161.155644,22.0219165 Z M164.636272,17.9365701 C164.393649,17.0911054 164.021655,16.3488242 163.518635,15.7121261 C163.016443,15.0754279 162.385706,14.5639098 161.623944,14.1787714 C160.861355,13.7928331 159.951209,13.6008639 158.895158,13.6008639 C158.065197,13.6008639 157.302608,13.7592385 156.610699,14.0779875 C155.917549,14.3967365 155.346331,14.9078547 154.895804,15.6117421 L154.845378,15.6117421 L154.845378,13.9520077 L151.338297,13.9520077 L151.338297,31.5 L155.025589,31.5 L155.025589,25.3409854 L155.078081,25.3409854 C155.528195,25.9784834 156.104786,26.4596065 156.805376,26.7851544 C157.506379,27.1119021 158.273514,27.2766757 159.104715,27.2766757 C160.090913,27.2766757 160.951874,27.0907055 161.688836,26.7227644 C162.423732,26.3548232 163.039589,25.8597024 163.532275,25.2394017 C164.027028,24.6191009 164.393649,23.9076148 164.636272,23.1029435 C164.879722,22.2982723 165,21.4604063 165,20.5889458 C165,19.6674932 164.879722,18.7836346 164.636272,17.9365701 Z M146.45649,22.0219165 C146.351505,22.525036 146.173361,22.9641657 145.922885,23.3413054 C145.671995,23.718845 145.342987,24.0255959 144.934619,24.2587586 C144.529146,24.493921 144.02158,24.6119021 143.416055,24.6119021 C142.826651,24.6119021 142.326525,24.493921 141.910718,24.2587586 C141.494497,24.0255959 141.161769,23.718845 140.910466,23.3413054 C140.659163,22.9641657 140.477713,22.525036 140.364874,22.0219165 C140.251623,21.5195969 140.19665,21.0076788 140.19665,20.4897616 C140.19665,19.9518477 140.247076,19.4323308 140.350821,18.9308111 C140.45622,18.4276916 140.63271,17.9837626 140.884427,17.5966245 C141.134076,17.212286 141.463911,16.8979363 141.872279,16.6555751 C142.278166,16.412414 142.783252,16.2896337 143.390429,16.2896337 C143.978594,16.2896337 144.478306,16.412414 144.88378,16.6555751 C145.290494,16.8979363 145.624876,17.2154855 145.884032,17.6098224 C146.143188,18.0041593 146.329185,18.4528875 146.442024,18.9552072 C146.555275,19.4579267 146.609834,19.9698448 146.609834,20.4897616 C146.609834,21.0076788 146.559822,21.5195969 146.45649,22.0219165 Z M148.818655,15.7121261 C148.317289,15.0754279 147.684485,14.5639098 146.92231,14.1787714 C146.160135,13.7928331 145.252055,13.6008639 144.196417,13.6008639 C143.363976,13.6008639 142.602628,13.7592385 141.910718,14.0779875 C141.216328,14.3967365 140.64635,14.9078547 140.19665,15.6117421 L140.143744,15.6117421 L140.143744,13.9520077 L136.63625,13.9520077 L136.63625,31.5 L140.326848,31.5 L140.326848,25.3409854 L140.376861,25.3409854 C140.826561,25.9784834 141.403979,26.4596065 142.105808,26.7851544 C142.805158,27.1119021 143.57188,27.2766757 144.403494,27.2766757 C145.390933,27.2766757 146.251893,27.0907055 146.987615,26.7227644 C147.723751,26.3548232 148.338369,25.8597024 148.831881,25.2394017 C149.325807,24.6191009 149.692015,23.9076148 149.936705,23.1029435 C150.176848,22.2982723 150.299606,21.4604063 150.299606,20.5889458 C150.299606,19.6674932 150.176848,18.7836346 149.936705,17.9365701 C149.692015,17.0911054 149.320847,16.3488242 148.818655,15.7121261 Z M124.560484,20.0110382 L126.975967,13.4240921 L127.027633,13.4240921 L129.365825,20.0110382 L124.560484,20.0110382 Z M124.949424,9 L117.937742,26.9491281 L122.041254,26.9491281 L123.494926,22.9517677 L130.430556,22.9517677 L131.831735,26.9491281 L136.066685,26.9491281 L129.132295,9 L124.949424,9 Z M117.625267,21.2552392 C117.383057,20.8449048 117.062315,20.5013598 116.664281,20.2242041 C116.266247,19.9482483 115.810761,19.7258839 115.301128,19.5571109 C114.789429,19.3907375 114.265744,19.2495601 113.728832,19.1315789 C113.209693,19.0135978 112.699647,18.9048152 112.197455,18.8040314 C111.695262,18.7028475 111.248456,18.5900656 110.858688,18.4652856 C110.469334,18.3389058 110.154792,18.1765318 109.911756,17.9737642 C109.668719,17.7733963 109.548854,17.5142377 109.548854,17.1950888 C109.548854,16.9267317 109.616227,16.7131659 109.755518,16.5539914 C109.894396,16.3956167 110.063447,16.2736362 110.262257,16.1888498 C110.461894,16.1056631 110.680957,16.0516717 110.924407,16.0256759 C111.166617,16.0008799 111.392293,15.9892817 111.59937,15.9892817 C112.2578,15.9892817 112.829432,16.1100624 113.315091,16.3532235 C113.798684,16.5959846 114.06776,17.0611102 114.119013,17.7482003 L117.625267,17.7482003 C117.555828,16.943929 117.344205,16.2780355 116.988743,15.7489202 C116.634522,15.2218045 116.187715,14.7982723 115.65163,14.4803231 C115.115545,14.1619741 114.50506,13.9360102 113.819764,13.8016317 C113.136121,13.6672532 112.430985,13.6008639 111.704769,13.6008639 C110.976486,13.6008639 110.265977,13.6640538 109.575307,13.7884339 C108.880918,13.9144137 108.258034,14.1331787 107.704588,14.4427292 C107.149903,14.7526796 106.70475,15.175012 106.366235,15.7121261 C106.028133,16.2480403 105.859496,16.9359303 105.859496,17.7733963 C105.859496,18.3433051 105.981427,18.8260278 106.224051,19.2191649 C106.464607,19.6139018 106.786589,19.9394497 107.183383,20.1994081 C107.582657,20.4589666 108.037317,20.6693329 108.547776,20.8273076 C109.058648,20.9880819 109.582747,21.1256599 110.118419,21.2432411 C111.435693,21.5115981 112.461984,21.7787554 113.197293,22.0479123 C113.933429,22.3158695 114.30129,22.7178052 114.30129,23.2545193 C114.30129,23.5728683 114.223998,23.8356263 114.06776,24.0451928 C113.911522,24.255959 113.717259,24.4223324 113.483729,24.5483123 C113.248546,24.674692 112.988563,24.7670773 112.704194,24.8246681 C112.418171,24.8838586 112.144962,24.9134538 111.885393,24.9134538 C111.521665,24.9134538 111.171163,24.8710606 110.834302,24.787474 C110.495787,24.7034874 110.197365,24.5735082 109.937795,24.3975364 C109.678639,24.2215645 109.464949,23.9960006 109.300858,23.718845 C109.137594,23.4416893 109.053688,23.1121421 109.053688,22.7258039 L105.547847,22.7258039 C105.58298,23.5972644 105.785924,24.3223484 106.159158,24.900256 C106.529913,25.4785634 107.005652,25.9432891 107.58679,26.2956327 C108.166688,26.6471765 108.829665,26.8991361 109.575307,27.050312 C110.318469,27.2006879 111.080645,27.2766757 111.858526,27.2766757 C112.620702,27.2766757 113.369651,27.2046873 114.1062,27.0635098 C114.841922,26.9207327 115.495805,26.6731723 116.067437,26.3204287 C116.639895,25.9692849 117.101168,25.5041593 117.457043,24.9254519 C117.811264,24.3467445 117.988582,23.6304591 117.988582,22.7753959 C117.988582,22.1714926 117.867477,21.6659734 117.625267,21.2552392 Z M102.380108,10.056231 L98.691163,10.056231 L98.691163,13.9520077 L96.4583696,13.9520077 L96.4583696,16.3400256 L98.691163,16.3400256 L98.691163,24.0075988 C98.691163,24.662294 98.8048279,25.1894097 99.0292646,25.5913454 C99.2545279,25.9928811 99.56163,26.3048312 99.9509842,26.5223964 C100.340752,26.7399616 100.791278,26.8863382 101.302151,26.9615262 C101.81137,27.0367141 102.354895,27.074708 102.924873,27.074708 C103.289841,27.074708 103.661009,27.0655095 104.042923,27.050312 C104.422771,27.0331147 104.768726,27.0007199 105.081201,26.9491281 L105.081201,24.1835706 C104.907604,24.2175652 104.726153,24.243561 104.534782,24.2587586 C104.345065,24.2759558 104.145842,24.2847544 103.937938,24.2847544 C103.315054,24.2847544 102.899247,24.1835706 102.69093,23.9824028 C102.484266,23.7820349 102.380108,23.3792993 102.380108,22.7753959 L102.380108,16.3400256 L105.081201,16.3400256 L105.081201,13.9520077 L102.380108,13.9520077 L102.380108,10.056231 Z M91.8088523,21.9203327 C91.8088523,22.1231003 91.7877727,22.3910574 91.74396,22.7258039 C91.700974,23.0617501 91.5840024,23.3916973 91.3934585,23.718845 C91.2029147,24.0451928 90.9077991,24.3271477 90.5105917,24.5607103 C90.1125577,24.7962726 89.5496061,24.9134538 88.8217369,24.9134538 C88.5282746,24.9134538 88.2418389,24.8882579 87.9649097,24.8366661 C87.6875672,24.787474 87.4457708,24.6986882 87.2378672,24.5735082 C87.030377,24.4479283 86.8650461,24.2759558 86.7439413,24.0579907 C86.6236631,23.8400256 86.5620773,23.5728683 86.5620773,23.2545193 C86.5620773,22.9193729 86.6236631,22.6410174 86.7439413,22.4246521 C86.8650461,22.2074868 87.0258304,22.0267157 87.2250541,21.8839386 C87.4234511,21.7415614 87.6578076,21.6283795 87.926057,21.543993 C88.1943063,21.4604063 88.4662756,21.393617 88.7444447,21.3432251 C89.037907,21.294033 89.3330226,21.2508399 89.6264849,21.2172452 C89.9220138,21.1844505 90.2030763,21.1416573 90.4709123,21.0920653 C90.7399883,21.0416733 90.9904646,20.9780835 91.2248211,20.9028955 C91.4587642,20.8273076 91.6526147,20.7237242 91.8088523,20.5889458 L91.8088523,21.9203327 Z M95.4969706,24.0579907 L95.4969706,17.2962726 C95.4969706,16.5071988 95.3159333,15.8753 94.9509655,15.3981763 C94.5880642,14.9202528 94.1205912,14.5479123 93.5497864,14.2795553 C92.9773282,14.0111982 92.3449377,13.8308271 91.6526147,13.7392417 C90.960705,13.6468565 90.2762352,13.6008639 89.601272,13.6008639 C88.8572831,13.6008639 88.1161875,13.6716525 87.3812918,13.8144297 C86.6435028,13.9568069 85.9825926,14.1959686 85.3936014,14.5307151 C84.8050235,14.8658615 84.3185375,15.3105903 83.9399298,15.8629019 C83.5576022,16.4160134 83.3414321,17.1115022 83.2897662,17.949768 L86.9774711,17.949768 C87.0464968,17.2454807 87.2903598,16.7423612 87.7061669,16.4408095 C88.1211474,16.1392577 88.6919522,15.9892817 89.4198213,15.9892817 C89.7484164,15.9892817 90.0555185,16.0100784 90.3415409,16.0516717 C90.6267367,16.0940649 90.8784529,16.1764518 91.0950363,16.3028315 C91.3116198,16.4284115 91.4848038,16.6039834 91.6141753,16.831147 C91.74396,17.0571109 91.8088523,17.3634618 91.8088523,17.7482003 C91.8262121,18.1177412 91.7129604,18.3968965 91.4715774,18.5900656 C91.228541,18.7836346 90.9003592,18.9308111 90.4845521,19.0299952 C90.068745,19.1315789 89.5925921,19.2071669 89.0556801,19.2555591 C88.5183548,19.3071509 87.9735896,19.3755399 87.4201445,19.4579267 C86.8650461,19.5419133 86.315321,19.6550952 85.7709691,19.7974724 C85.2257906,19.9394497 84.7393045,20.1538154 84.3156442,20.43737 C83.8911572,20.7237242 83.5452023,21.1044633 83.2761264,21.5823868 C83.0082904,22.0603104 82.873959,22.6682131 82.873959,23.4048952 C82.873959,24.075188 82.9909306,24.6530955 83.2248738,25.1386178 C83.4584036,25.6261398 83.7828655,26.0268757 84.1990859,26.3456247 C84.6144797,26.6643737 85.0993125,26.8991361 85.6531709,27.050312 C86.206616,27.2006879 86.804287,27.2766757 87.4457708,27.2766757 C88.2765584,27.2766757 89.0908129,27.1586946 89.8860544,26.925132 C90.6829491,26.6887698 91.3760988,26.2796353 91.96509,25.6921293 C91.9824498,25.9100944 92.0126226,26.1244601 92.0551953,26.3332267 C92.0985947,26.5419933 92.1552205,26.7487602 92.2246595,26.9491281 L95.9652703,26.9491281 C95.7920862,26.6823708 95.6697414,26.2796353 95.6015424,25.7425212 C95.5312768,25.2066069 95.4969706,24.6462966 95.4969706,24.0579907 Z M80.3026507,15.0702288 C79.9393362,14.6095025 79.4412769,14.2495601 78.8101263,13.9892017 C78.1773225,13.7308431 77.3680279,13.6008639 76.3814159,13.6008639 C75.6886796,13.6008639 74.9789969,13.7720365 74.2507144,14.1163814 C73.5240852,14.4591265 72.9264142,15.0086386 72.4593545,15.7633179 L72.3812356,15.7633179 L72.3812356,9 L68.6931173,9 L68.6931173,26.9491281 L72.3812356,26.9491281 L72.3812356,20.1362182 C72.3812356,18.81243 72.6060856,17.8621821 73.0566122,17.2826748 C73.5063122,16.7055671 74.233768,16.4160134 75.2385663,16.4160134 C76.1210198,16.4160134 76.7360506,16.6795713 77.0824188,17.2082867 C77.428787,17.7358023 77.6015577,18.5364742 77.6015577,19.6083027 L77.6015577,26.9491281 L81.2900893,26.9491281 L81.2900893,18.9552072 C81.2900893,18.1509359 81.2161038,17.4182531 81.0693726,16.7547592 C80.9218148,16.0940649 80.666792,15.5321549 80.3026507,15.0702288 Z M60.8229548,21.3684211 L60.7721156,21.3684211 L57.6031362,9 L53.7852332,9 L50.5641746,21.2172452 L50.5125087,21.2172452 L47.5770592,9 L43.5,9 L48.4086734,26.9491281 L52.5386384,26.9491281 L55.6290856,14.731483 L55.6807515,14.731483 L58.8236913,26.9491281 L62.8755375,26.9491281 L67.8623297,9 L63.8629761,9 L60.8229548,21.3684211 Z" id="Fill-15"></path><g id="Group" transform="translate(0.000000, -0.000000)"><path d="M26.0487971,21.1534165 C25.6044294,20.934759 23.4191405,19.8774097 23.0117073,19.7317641 C22.604274,19.5857402 22.3080289,19.5127282 22.0117837,19.9504216 C21.7151538,20.3877368 20.8633529,21.3724524 20.6040422,21.6637436 C20.3451162,21.9557914 20.0858055,21.9921082 19.6410531,21.773829 C19.1966854,21.5547931 17.7643209,21.0932668 16.0668747,19.6038986 C14.7453135,18.4455431 13.8531155,17.0140549 13.5938048,16.5763615 C13.3344941,16.1390464 13.5664887,15.9026087 13.7888649,15.6843294 C13.9889266,15.4887482 14.2332326,15.1740024 14.4556089,14.919028 C14.6779851,14.663297 14.751854,14.4813346 14.8999766,14.1892867 C15.0480991,13.8979955 14.9742302,13.6422645 14.8630421,13.423607 C14.751854,13.2049494 13.8627338,11.0535558 13.4926198,10.1789255 C13.1317393,9.326615 12.7654726,9.44161828 12.4923115,9.42875608 C12.2333855,9.41551557 11.9367557,9.41286746 11.6405105,9.41286746 C11.3442654,9.41286746 10.8625785,9.52257454 10.4551452,9.95988966 C10.0477119,10.3972048 8.89966582,11.4549324 8.89966582,13.6059477 C8.89966582,15.7573414 10.4924644,17.8353448 10.7144559,18.1273926 C10.9368321,18.4186838 13.8488834,22.8338263 18.3079499,24.7268409 C19.3682767,25.1770183 20.1962242,25.4456115 20.8418078,25.6472455 C21.9063666,25.9797714 22.8755114,25.9328622 23.6415167,25.820507 C24.4952414,25.6949113 26.2711733,24.7631578 26.6416721,23.7421253 C27.0117862,22.7214712 27.0117862,21.8464626 26.9009828,21.6637436 C26.7897947,21.4817812 26.4935495,21.3724524 26.0487971,21.1534165 Z" id="Path"></path><path d="M17.9386053,0 C22.6973796,0.00226980166 27.1637561,1.82378563 30.5224835,5.13013004 C33.8812109,8.43609615 35.7298576,12.8311888 35.7279339,17.5047104 C35.7240866,27.1490976 27.7427807,34.9961802 17.9386053,34.9961802 L17.9316801,34.9961802 C14.9542241,34.9950453 12.0287071,34.2607645 9.43059868,32.8674846 L5.68434189e-14,35.299577 L2.52385474,26.2351241 C0.96722116,23.5828609 0.148122572,20.5734822 0.149276774,17.4907133 C0.153124114,7.84632602 8.13327579,0 17.9386053,0 Z M17.9386053,32.0420334 C26.08804,32.0420334 32.7212381,25.5201366 32.7243159,17.5035755 C32.7258549,13.6188099 31.1892274,9.96594247 28.3979826,7.21834756 C25.6059683,4.46999606 21.8936704,2.95566006 17.9443763,2.95452515 C9.78878599,2.95452515 3.15597262,9.47604361 3.15289475,17.4918482 C3.15174055,20.2386865 3.93351995,22.914026 5.41320673,25.2292237 L5.76485357,25.7792723 L4.27131636,31.1439485 L9.86727172,29.700733 L10.4074382,30.0154788 C12.6773685,31.3399081 15.279709,32.0412768 17.9328343,32.0420334 L17.9386053,32.0420334 Z" id="Combined-Shape"></path></g></g></g></svg>