<svg viewBox="0 0 167 120" version="1.1" xmlns="http://www.w3.org/2000/svg" class="small-svg__SmallSVG-sc-1vgeaaz-0 jQgQjy"><g id="15_Groupme" stroke="none" stroke-width="1" fill="none" fill-rule="evenodd"><rect id="BG" fill="#121212" opacity="0" x="0" y="0" width="167" height="120"></rect><g id="groupme" transform="translate(1.000000, 42.000000)" fill="#FFFFFF" fill-rule="nonzero"><path d="M33.6410256,26.5268554 C33.6410256,30.6155202 30.3540618,33.9299257 26.3008035,33.9299257 L19.9255105,33.9299257 L16.7881015,39 L13.6506925,33.9299257 L7.34022211,33.9299257 C3.28603772,33.9299257 -7.10542736e-15,30.6155202 -7.10542736e-15,26.5268554 L-7.10542736e-15,7.40307025 C-7.10542736e-15,3.31486992 3.28603772,0 7.34022211,0 L26.3008035,0 C30.3545249,0 33.6410256,3.31486992 33.6410256,7.40307025 L33.6410256,26.5268554 Z M29.164106,19.7331603 C28.9150023,19.5678115 28.6793263,19.4860661 28.4612448,19.4605207 C27.4370493,19.3476563 26.8091971,20.0355254 26.3109899,20.8195384 C25.7609247,21.6852968 22.5850851,25.4767054 16.8311623,25.6216178 C11.0777023,25.4767054 7.90278884,21.6852968 7.35179764,20.8195384 C6.85359031,20.0355254 6.24749996,19.3485851 5.20154258,19.4605207 C4.98346126,19.4860661 4.7477852,19.5678115 4.49868153,19.7331603 C4.05094323,20.0304164 3.88008967,20.5348228 3.89490624,20.8868854 C3.89490624,21.3745713 4.13197138,21.8269578 4.13197138,21.8269578 C4.13197138,21.8269578 7.78981248,28.7753191 16.4741755,28.7753191 C16.5945601,28.7753191 16.7135557,28.7739258 16.8311623,28.7716034 C16.9492318,28.7739258 17.0682274,28.7753191 17.1881489,28.7753191 C25.872975,28.7753191 29.5308161,21.8269578 29.5308161,21.8269578 C29.5308161,21.8269578 29.73547,21.5301663 29.7706593,20.886421 C29.786402,20.4488972 29.6118442,20.0304164 29.164106,19.7331603 Z M12.7644764,18.8130597 L15.5356382,18.8130597 L15.5356382,16.0690144 L18.1044613,16.0690144 L18.1044613,18.8130597 L20.8756233,18.8130597 L20.8756233,16.0690144 L23.5958531,16.0690144 L23.5958531,13.2743426 L20.8756233,13.2743426 L20.8756233,10.6831054 L23.5958531,10.6831054 L23.5958531,7.88843369 L20.8756233,7.88843369 L20.8756233,5.14438834 L18.1049244,5.14438834 L18.1049244,7.88843369 L15.5356382,7.88843369 L15.5356382,5.14438834 L12.7644764,5.14438834 L12.7644764,7.88843369 L10.0437834,7.88843369 L10.0437834,10.6831054 L12.7644764,10.6831054 L12.7644764,13.2743426 L10.0437834,13.2743426 L10.0437834,16.0690144 L12.7644764,16.0690144 L12.7644764,18.8130597 Z M15.5356382,10.6831054 L18.1049244,10.6831054 L18.1049244,13.2743426 L15.5356382,13.2743426 L15.5356382,10.6831054 Z" id="Combined-Shape"></path><g id="Group" transform="translate(103.025641, 19.500000) scale(-1, 1) rotate(-180.000000) translate(-103.025641, -19.500000) translate(42.051282, 5.571429)"><path d="M5.23935303,27.7018445 C2.22092036,27.1509856 0.51484972,24.9687371 0.0807607404,21.1127251 C-0.0807607404,19.5978632 0.0201901851,15.0956514 0.242282221,14.0363074 C0.817702496,11.3137935 2.10987434,9.67181033 4.30050942,8.87730236 C4.99707081,8.62305981 5.23935303,8.59127949 6.45076414,8.59127949 C7.49055867,8.58068605 7.95493293,8.63365325 8.41930718,8.7819614 C9.30767533,9.05739083 10.0950925,9.53409561 10.6806079,10.1379217 L11.1954576,10.6675936 L11.1954576,8.93026956 C11.1954576,7.02345043 11.0541263,6.20775559 10.5594668,5.3285001 C9.30767533,3.08269091 5.85515368,2.69073365 3.55347258,4.5233987 L2.88719647,5.05307067 L1.69597555,3.80304481 L0.504754627,2.55301894 L0.827797589,2.25640263 C2.34206147,0.889848924 3.83613517,0.24364911 5.91572423,0.0529671978 C10.7007981,-0.391957264 14.1331296,2.10809447 14.8801664,6.56793253 C15.0114026,7.35184706 15.0315928,9.01501707 15.0315928,17.5427359 L15.0315928,27.5959101 L13.2144761,27.5959101 L11.3973595,27.5959101 L11.3973595,26.5789399 L11.3973595,25.5619697 L10.7916539,26.1446089 C10.0950925,26.8014021 9.19662931,27.3416675 8.42940228,27.5535363 C7.76312617,27.7442182 5.9561046,27.8289657 5.23935303,27.7018445 Z M8.9341569,23.9835472 C10.5897521,23.3267539 11.1954576,21.7695183 11.1954576,18.1889357 C11.1853625,14.6931007 10.6806079,13.2417995 9.19662931,12.4790718 C8.6716845,12.2142358 8.52025811,12.1824555 7.51074885,12.1824555 C6.17819664,12.1824555 5.59268127,12.4049177 4.93650025,13.1464585 C4.04813211,14.1634287 3.7856597,15.2969267 3.7856597,18.1677489 C3.7856597,20.4665252 3.87651554,21.1762857 4.34088979,22.3097837 C4.62355239,22.9877639 5.49173034,23.835239 6.12772118,24.0365144 C6.87475802,24.2801635 8.24769061,24.2483832 8.9341569,23.9835472 Z" id="Shape"></path><path d="M24.6219307,27.691251 C23.3802343,27.5005691 21.8962557,26.7378415 21.1795042,25.9327401 L20.7857956,25.4772222 L20.7857956,26.5365661 L20.7857956,27.5959101 L18.9686789,27.5959101 L17.1515622,27.5959101 L17.1515622,17.8499457 L17.1515622,8.10398127 L19.0191544,8.10398127 L20.8867465,8.10398127 L20.8867465,14.3329237 C20.8867465,21.1127251 20.8968416,21.2292529 21.4621668,22.3309706 C21.8255901,23.0301376 22.582722,23.7187112 23.2893785,23.9941406 C23.7739429,24.1848225 24.0263203,24.2166029 24.874308,24.1848225 C25.9746731,24.1424488 26.5399983,23.9411734 27.2365597,23.3691277 L27.6100781,23.0619179 L27.7917898,23.5492162 C28.0845475,24.3119438 28.6195874,25.2017927 29.1748175,25.8373991 L29.6795721,26.4200383 L29.2151978,26.7484349 C27.9936916,27.6276904 26.3582866,27.9666805 24.6219307,27.691251 Z" id="Path"></path><path d="M34.8684497,27.7018445 C33.2532348,27.426415 31.850017,26.6848743 30.7092715,25.5090025 C30.103566,24.8733961 29.891569,24.5449995 29.4776702,23.6551506 C28.7205383,21.9813871 28.4580659,20.5300859 28.4580659,17.8711326 C28.4580659,15.2227727 28.7609187,13.4642617 29.4877653,11.9176195 C29.8209034,11.1972656 30.0833758,10.8370887 30.7799372,10.1061413 C31.5067838,9.33282026 31.7995415,9.11035803 32.5970538,8.70780733 C33.929606,8.02982719 34.8785447,7.84973872 36.6350908,7.9238928 C38.1291645,7.98745344 38.6843946,8.12516815 39.8352352,8.70780733 C41.5211156,9.56587593 42.7729071,11.1125181 43.3887078,13.0828979 C43.7622262,14.2799565 43.9136526,15.6147299 43.9136526,17.786385 C43.9136526,19.9474467 43.8227967,20.9326366 43.4896587,22.1826625 C42.9546188,24.2589766 41.6119715,25.9963007 39.8554254,26.8967431 C39.3304806,27.1615791 38.613729,27.4476019 38.2503057,27.5429429 C37.4225081,27.7442182 35.6558669,27.8289657 34.8684497,27.7018445 Z M37.846502,23.8776128 C38.9569621,23.3373474 39.492002,22.6381804 39.8857106,21.1868791 C40.0876125,20.4135581 40.1178978,20.1169417 40.1178978,17.9029129 C40.1178978,15.3075202 40.037137,14.6719138 39.6030481,13.6443502 C39.2800051,12.8498422 38.5733486,12.1083014 37.8162167,11.7481245 C37.2609866,11.4726951 37.0792749,11.4409147 36.1808117,11.4409147 C35.3530141,11.4409147 35.0804466,11.4832885 34.686738,11.6845638 C33.4753269,12.2566096 32.7686704,13.2735798 32.4355323,14.8837826 C32.1932501,16.0066872 32.2033452,19.5872698 32.4355323,20.7313612 C32.8191459,22.5852132 33.4955171,23.5068424 34.8482595,24.0153275 C35.6356767,24.3119438 37.08937,24.2377897 37.846502,23.8776128 Z" id="Shape"></path><path d="M69.3431907,27.7018445 C68.1822551,27.5111626 67.1323654,26.9497103 66.2036169,26.0386745 L65.7089574,25.5513762 L65.7089574,26.5789399 L65.7089574,27.5959101 L63.8918407,27.5959101 L62.0747241,27.5959101 L62.0747241,13.930373 L62.0747241,0.264835989 L63.9423162,0.264835989 L65.8099083,0.264835989 L65.8099083,5.15900507 L65.8099083,10.0425807 L66.3954237,9.45994154 C67.4957888,8.35822382 68.72739,7.89211248 70.5848871,7.89211248 C72.644286,7.89211248 73.9667431,8.39000414 75.157964,9.64003001 C76.7025132,11.2502328 77.2375531,13.3477339 77.227458,17.9029129 C77.227458,21.2822201 76.9447954,23.0301376 76.1270929,24.6615273 C75.4406266,26.0598613 74.1181695,27.1086119 72.5231448,27.5429429 C71.7862031,27.7442182 70.1003226,27.8289657 69.3431907,27.7018445 Z M71.119927,23.9835472 C72.2001019,23.5598096 72.8764731,22.6275869 73.2499915,21.0597579 C73.5023688,20.0004139 73.5023688,15.6782906 73.2499915,14.6189466 C72.6947614,12.267203 71.4732552,11.2608263 69.3431907,11.4197279 C67.0213194,11.5786294 66.0320003,13.1358651 65.8502887,16.9495033 C65.6988623,20.2228761 66.2641875,22.6169935 67.4049329,23.5280293 C68.2731109,24.2271963 69.9690864,24.4284716 71.119927,23.9835472 Z" id="Shape"></path><path d="M85.5458142,27.6594707 C84.5867804,27.426415 83.6378417,26.9708971 82.8807098,26.3670711 L82.1740533,25.8162122 L82.143768,26.6742808 L82.1134828,27.5429429 L79.2666667,27.5747232 C77.6918322,27.5853166 76.4097555,27.5641298 76.4097555,27.521756 C76.4097555,27.4687888 76.6015622,27.2463266 76.8236543,27.0132709 C77.3284089,26.4941924 78.0350654,25.0111108 78.3682034,23.761085 C78.8224826,22.0767281 78.9638139,20.773735 78.9537188,18.1147817 C78.9436237,13.3795142 78.2571574,9.92605288 77.0457463,8.51712541 L76.6924181,8.10398127 L79.4281881,8.10398127 L82.1639582,8.10398127 L82.1639582,14.1740221 C82.1639582,17.8711326 82.2043386,20.4983056 82.2750042,20.9220431 C82.4870012,22.3203772 83.1734675,23.3267539 84.2738326,23.8776128 C84.7785872,24.1212619 84.9602989,24.1530422 86.0000934,24.1530422 C87.0701732,24.1530422 87.2115045,24.1318553 87.7364493,23.8564259 C88.4431058,23.496249 89.0488113,22.797082 89.3516641,21.9919805 C89.5838512,21.3987479 89.5838512,21.3987479 89.6141365,14.7566613 L89.6444218,8.10398127 L91.5523943,8.10398127 L93.4704619,8.10398127 L93.4704619,14.3541106 C93.4704619,18.5702996 93.5108422,20.773735 93.5815079,21.1550988 C93.8439803,22.4263116 94.4496859,23.2737867 95.4591951,23.8034587 C96.0346154,24.100075 96.2567074,24.1530422 97.0643148,24.1848225 C98.5785787,24.2589766 99.5981831,23.7822718 100.284649,22.6911476 C100.930735,21.6529905 100.94083,21.5894298 100.94083,14.4918253 L100.94083,8.10398127 L102.858898,8.10398127 L104.787061,8.10398127 L104.756775,15.1274317 C104.716395,22.6169935 104.72649,22.5428394 104.201545,23.835239 C103.939073,24.4920323 103.232416,25.59375 102.798327,26.028081 C101.768628,27.0450512 100.224079,27.6806576 98.5180082,27.7759986 C96.2365172,27.9031198 94.469876,27.2463266 92.935422,25.6996844 L92.2590508,25.0111108 L92.0874342,25.2759468 C91.7946765,25.7314647 90.8962133,26.6001268 90.4015537,26.9073365 C89.4929954,27.4687888 88.574342,27.7230314 87.3124554,27.7654051 C86.5553235,27.786592 85.9395228,27.7548117 85.5458142,27.6594707 Z" id="Path"></path><path d="M112.651138,27.7336248 C111.914196,27.6065035 110.813831,27.2251397 110.17784,26.8755562 C109.269282,26.3776645 108.138631,25.2441665 107.543021,24.2483832 C106.382085,22.2991903 105.83695,19.3542141 106.089328,16.388051 C106.230659,14.6825072 106.583987,13.2629863 107.159407,12.0235539 C107.785303,10.6887805 108.976524,9.40697434 110.127365,8.81374172 C111.631533,8.05101407 113.327509,7.7649912 115.407098,7.91329936 C117.597733,8.06160751 119.253328,8.82433516 120.838258,10.3815708 L121.373298,10.9006493 L120.171982,12.097708 L118.970666,13.2947667 L118.657718,12.9875569 C117.638113,11.9705867 116.487273,11.4409147 115.03358,11.3243869 C112.065622,11.0807378 110.086984,12.8286553 109.854797,15.8689725 L109.794227,16.6846673 L115.831092,16.6846673 L121.867957,16.6846673 L121.807387,18.4643652 C121.767006,19.6190501 121.67615,20.5512728 121.544914,21.1550988 C120.626261,25.424255 117.799635,27.8501526 113.812073,27.7971854 C113.317414,27.786592 112.792469,27.7548117 112.651138,27.7336248 Z M115.720046,24.0471078 C117.022313,23.400908 118.001537,21.642397 118.001537,19.9474467 L118.001537,19.4389616 L113.913024,19.4389616 L109.824512,19.4389616 L109.824512,19.905073 C109.824512,21.7059577 110.743165,23.3691277 112.106003,24.0471078 C113.145797,24.5661864 114.680251,24.5661864 115.720046,24.0471078 Z" id="Shape"></path><path d="M45.3168704,20.9008563 C45.3168704,17.2143393 45.3673459,13.8879993 45.4178214,13.5066355 C45.7408643,11.1760787 46.8715147,9.48112841 48.7290117,8.52771885 C49.7183308,8.01923375 50.5966038,7.86033216 52.0805824,7.9238928 C53.1304721,7.96626656 53.4737052,8.01923375 54.099601,8.26288286 C54.8870182,8.55949917 56.0277636,9.27985306 56.3609017,9.67181033 C56.4719477,9.7989316 56.5930888,9.904866 56.6435643,9.904866 C56.6839446,9.904866 56.724325,9.50231529 56.724325,9.00442363 L56.724325,8.10398127 L58.5414417,8.10398127 L60.3585583,8.10398127 L60.3585583,17.8499457 L60.3585583,27.5959101 L58.4909662,27.5959101 L56.6233741,27.5959101 L56.6233741,21.4834954 C56.6233741,17.881726 56.5829937,15.0850579 56.5224232,14.7036941 C56.3003311,13.3053601 55.6037697,12.2883899 54.4731194,11.7481245 C53.9077942,11.4726951 53.7361776,11.4409147 52.7872389,11.4409147 C51.8584904,11.4409147 51.6565886,11.4726951 51.1720241,11.7163442 C50.4552725,12.0659277 50.0211836,12.4578849 49.6981406,13.0405241 C49.1126252,14.0786812 49.1227203,14.0680877 49.08234,21.1127251 L49.0419596,27.5959101 L47.1743675,27.5959101 L45.3168704,27.5959101 L45.3168704,20.9008563 Z" id="Path"></path></g></g></g></svg>