<svg viewBox="0 0 174 120" version="1.1" xmlns="http://www.w3.org/2000/svg" class="small-svg__SmallSVG-sc-1vgeaaz-0 eHOxhs"><g id="2_Snap" stroke="none" stroke-width="1" fill="none" fill-rule="evenodd"><rect id="BG" fill="#121212" opacity="0" x="0" y="0" width="174" height="120"></rect><g id="Group" transform="translate(1.000000, 40.000000)" fill="#FFFFFF" fill-rule="nonzero"><g id="snapchat-ar21" transform="translate(46.634783, 7.600000)"><path d="M0.19518437,21.6 L0.19518437,17.0768 C1.02390864,17.7648 1.92708861,18.2816 2.89824986,18.624 C3.86941112,18.9664 4.85190259,19.1392 5.84410567,19.1392 C6.42680242,19.1392 6.93342488,19.088 7.36559163,18.984 C7.79775839,18.88 8.16194386,18.7376 8.45005504,18.552 C8.73816621,18.3664 8.95829609,18.152 9.10073308,17.9024 C9.24245819,17.6545286 9.31611534,17.374318 9.31438855,17.0896 C9.31883351,16.7091506 9.19843871,16.3375215 8.97124491,16.0304 C8.71182829,15.6913705 8.39470769,15.3995509 8.0340743,15.168 C7.63751679,14.904 7.16812218,14.6496 6.62589048,14.4048 L4.86647001,13.656 C3.24786791,12.9968 2.07114419,12.1904 1.28450358,11.256 C0.497862961,10.3216 0.102924051,9.1536 0.102924051,7.8064 C0.102924051,6.7504 0.318198129,5.8432 0.747127683,5.0864 C1.17140993,4.3327529 1.77189017,3.69034889 2.49845515,3.2128 C3.2381563,2.7232 4.09277821,2.3616 5.06555806,2.1312 C6.07758992,1.89595959 7.11423163,1.77995266 8.15385085,1.7856 C9.22212823,1.7856 10.1673919,1.8496 10.9912603,1.9776 C11.7702863,2.09327785 12.5347447,2.29010674 13.2718707,2.5648 L13.2718707,6.7888 C12.9145949,6.54818913 12.5396572,6.33426208 12.1501794,6.1488 C11.7455289,5.952 11.3279296,5.8208 10.899,5.704 C10.4790163,5.58904889 10.0518713,5.50139486 9.62030435,5.4416 C9.21977099,5.38545035 8.81574954,5.35711429 8.41120859,5.3568 C7.88678151,5.3568 7.41091249,5.4048 6.98198294,5.5056 C6.55305338,5.6064 6.17268189,5.7456 5.89751954,5.9216 C5.62234858,6.08174717 5.38765928,6.30170194 5.21123225,6.5648 C5.04858698,6.81573867 4.96415676,7.10840468 4.96844194,7.4064 C4.96844194,7.7456 5.05908365,8.0496 5.24036709,8.3184 C5.42165052,8.5872 5.67738965,8.8416 6.01244029,9.0816 C6.34749092,9.3216 6.75214144,9.5568 7.22639185,9.7888 L8.84175674,10.5024 C9.60249098,10.812314 10.3407052,11.1737042 11.0511486,11.584 C11.6679786,11.9375119 12.2332123,12.3724445 12.7312576,12.8768 C13.2168382,13.3568 13.5405586,13.9072 13.8043908,14.5248 C14.0682229,15.1424 14.1766692,15.8608 14.1766692,16.68 C14.1766692,17.8112 13.9597766,18.76 13.5259912,19.528 C13.1033707,20.2847722 12.4971077,20.9258533 11.7617149,21.3936 C10.967698,21.8893527 10.0881843,22.2364642 9.16709576,22.4176 C8.19593451,22.6256 7.13898734,22.728 6.04319373,22.728 C4.96678541,22.732567 3.89227447,22.6382954 2.83350578,22.4464 C1.81864227,22.2576 0.939741332,21.9744 0.19518437,21.5984 L0.19518437,21.6 Z M31.2513027,22.3616 L26.7467331,22.3616 L26.7467331,14.32 C26.7467331,12.0768 25.937432,10.9568 24.3155927,10.9568 C23.5671389,10.9410047 22.8537018,11.2696821 22.3846004,11.8464 C21.8795966,12.4384 21.6270947,13.1936 21.6270947,14.1072 L21.6270947,22.3632 L17.1095762,22.3632 L17.1095762,7.888 L21.6287133,7.888 L21.6287133,10.176 L21.6853643,10.176 C22.7633533,8.416 24.3301602,7.5328 26.3906406,7.5328 C29.631082,7.5328 31.2529213,9.5216 31.2529213,13.4976 L31.2513027,22.3616 Z M47.0100127,22.3616 L42.7320473,22.3616 L42.7320473,20.2816 L42.6753963,20.2816 C41.6929048,21.9024 40.2394001,22.7136 38.3132636,22.7136 C36.892131,22.7136 35.7752955,22.3136 34.9595201,21.5184 C34.1437446,20.7232 33.7374755,19.6624 33.7374755,18.3312 C33.7374755,15.5232 35.4208217,13.9024 38.7842768,13.4672 L42.7595636,12.944 C42.7595636,11.344 41.8919928,10.5696 40.1568514,10.5696 C38.4119983,10.5696 36.7529312,11.0816 35.1812686,12.1104 L35.1812686,8.7504 C35.8092862,8.4304 36.6703825,8.1472 37.7629389,7.9024 C38.8554953,7.6576 39.8476984,7.5344 40.744404,7.5344 C44.9203974,7.5344 47.0083941,9.5936 47.0083941,13.7104 L47.0083941,22.3616 L47.0100127,22.3616 Z M42.7644194,16.48 L42.7644194,15.52 L40.1050561,15.8592 C38.636984,16.048 37.9037573,16.7024 37.9037573,17.824 C37.9037573,18.3328 38.0656175,18.752 38.437896,19.0752 C38.8101745,19.3984 39.2795691,19.5632 39.8897821,19.5632 C40.7379296,19.5632 41.427454,19.2752 41.9615927,18.6944 C42.4957314,18.1136 42.7628008,17.3824 42.7628008,16.496 L42.7644194,16.48 Z M55.1467254,20.68 L55.0884557,20.68 L55.0884557,29.0192 L50.5822675,29.0192 L50.5822675,7.888 L55.1014045,7.888 L55.1014045,10.064 L55.1596742,10.064 C56.2926957,8.3776 57.8433165,7.536 59.8633319,7.536 C61.7603335,7.536 63.226787,8.1792 64.2594551,9.4656 C65.2921233,10.752 65.8133132,12.5024 65.8133132,14.7168 C65.8133132,17.1296 65.2095746,19.0656 64.0053346,20.5248 C62.8010947,21.984 61.1954414,22.7168 59.1932306,22.7168 C57.4127683,22.7168 56.0855146,22.0384 55.1467254,20.6816 L55.1467254,20.68 Z M55.0172372,14.76 L55.0172372,15.9184 C55.0172372,16.9168 55.2843065,17.7328 55.8184452,18.3632 C56.3320024,18.9860615 57.110174,19.3363563 57.922628,19.3104 C58.9520589,19.3104 59.7516483,18.9168 60.3181591,18.1296 C60.8846698,17.3424 61.1695438,16.2288 61.1695438,14.7696 C61.1695438,12.2096 60.1692477,10.9536 58.1670369,10.9536 C57.2892326,10.9316141 56.4512822,11.3155996 55.9009939,11.992 C55.31506,12.6848 55.022093,13.6016 55.022093,14.7408 L55.0172372,14.76 Z M79.8417375,21.84 C78.8220182,22.424 77.3490903,22.7168 75.4229538,22.7168 C73.1569108,22.7168 71.3521695,22.0448 69.9601717,20.696 C68.5681739,19.3472 67.855989,17.608 67.855989,15.48 C67.855989,13.0208 68.600546,11.08 70.0945157,9.664 C71.5884854,8.248 73.5809846,7.536 76.0784876,7.536 C77.8039174,7.536 79.0518597,7.7632 79.8239329,8.2144 L79.8239329,12 C78.9172695,11.3145479 77.8058327,10.9464506 76.6644216,10.9536 C75.3695399,10.9536 74.3417276,11.328 73.5826032,12.0768 C72.8234788,12.8256 72.4463445,13.8608 72.4463445,15.1808 C72.4463445,16.4608 72.8089114,17.4688 73.5308079,18.1984 C74.2527045,18.928 75.2513819,19.2928 76.5187474,19.2928 C77.6436758,19.2928 78.7443253,18.944 79.8206957,18.2464 L79.8417375,21.84 Z M96.8581013,22.3616 L92.3535316,22.3616 L92.3535316,14.1344 C92.3535316,12.0144 91.5717468,10.9536 90.0065586,10.9536 C89.2536373,10.9317817 88.5341817,11.2612983 88.0642361,11.8432 C87.5705625,12.4352 87.3196791,13.1904 87.3196791,14.1056 L87.3196791,22.3616 L82.8005421,22.3616 L82.8005421,0.9328 L87.3196791,0.9328 L87.3196791,10.0528 L87.3763302,10.0528 C88.4818354,8.384 89.9660936,7.5504 91.8808998,7.5504 C95.1990341,7.5504 96.8564827,9.5296 96.8564827,13.4704 L96.8581013,22.3616 Z M112.615193,22.3616 L108.338846,22.3616 L108.338846,20.2816 L108.282195,20.2816 C107.299703,21.9024 105.846199,22.7136 103.920062,22.7136 C102.500548,22.7136 101.382094,22.3136 100.566319,21.5184 C99.7505432,20.7232 99.3442741,19.6624 99.3442741,18.3312 C99.3442741,15.5232 101.02762,13.9024 104.391075,13.4672 L108.366362,12.944 C108.366362,11.344 107.498791,10.5696 105.76365,10.5696 C104.018797,10.5696 102.361348,11.0816 100.788067,12.1104 L100.788067,8.7504 C101.435508,8.4304 102.277181,8.1472 103.369737,7.9024 C104.462294,7.6576 105.454497,7.5344 106.351203,7.5344 C110.527196,7.5344 112.615193,9.5936 112.615193,13.7104 L112.615193,22.3616 Z M108.366362,16.48 L108.366362,15.52 L105.706999,15.8592 C104.238927,16.048 103.5057,16.7024 103.5057,17.824 C103.5057,18.3328 103.66756,18.752 104.039839,19.0752 C104.412117,19.3984 104.881512,19.5632 105.491725,19.5632 C106.339872,19.5632 107.029397,19.2752 107.563535,18.6944 C108.097674,18.1136 108.364744,17.3824 108.364744,16.496 L108.366362,16.48 Z M125.041201,22.192 C124.372718,22.5408 123.367566,22.7152 122.024127,22.7152 C118.840336,22.7152 117.24925,21.08 117.24925,17.8096 L117.24925,11.1808 L114.873143,11.1808 L114.873143,7.888 L117.247632,7.888 L117.247632,4.7648 L121.752201,3.4928 L121.752201,7.888 L125.041201,7.888 L125.041201,11.1808 L121.752201,11.1808 L121.752201,17.032 C121.752201,18.5392 122.357559,19.2928 123.568273,19.2928 C124.086422,19.2818053 124.593251,19.1408634 125.041201,18.8832 L125.041201,22.1904 L125.041201,22.192 Z" id="Shape"></path></g><g id="iconmonstr-snapchat-1"><path d="M8.76849377,8.41016 C7.86588507,10.45304 8.2224155,14.1132 8.3668329,16.67288 C7.3920155,17.21856 6.14039811,16.26096 5.43185029,16.26096 C4.69471985,16.26096 3.81467637,16.7504 3.67627637,17.48 C3.57698942,18.00592 3.81016333,18.772 5.48299811,19.43928 C6.12986768,19.69768 7.6688155,20.00168 8.02534594,20.84984 C8.52629377,22.04152 5.45291116,27.5424 0.626963331,28.34496 C0.249372026,28.40728 -0.0199062347,28.74776 0.00115463489,29.13384 C0.0853981132,30.61584 3.37390246,31.19648 4.8316155,31.42448 C4.98054594,31.62816 5.10089377,32.48848 5.29194594,33.1436 C5.37769377,33.43696 5.5988329,33.78808 6.16747637,33.78808 C6.90911985,33.78808 8.14118072,33.21048 10.2863807,33.5692 C12.389459,33.92336 14.366172,36.936 18.1616416,36.936 C21.6893372,36.936 23.7939199,33.90968 25.818772,33.5692 C26.990659,33.37312 27.9970677,33.43544 29.1223199,33.65736 C29.897059,33.81088 30.5920677,33.896 30.8132068,33.12688 C31.0072677,32.46264 31.1261112,31.61904 31.2720329,31.41992 C32.7162068,31.19344 36.0197546,30.61432 36.1024938,29.13232 C36.1235546,28.74624 35.8542764,28.40728 35.4766851,28.34344 C30.731972,27.55304 27.5653199,22.06888 28.0783025,20.84832 C28.4333285,20.00168 29.9617459,19.70072 30.6206503,19.43776 C31.8451894,18.94984 32.4589633,18.34944 32.4454242,17.6548 C32.4288764,16.7656 31.3698155,16.23512 30.5905633,16.23512 C29.797772,16.23512 28.6589807,17.1836 27.7368155,16.66984 C27.8812329,14.08888 28.236259,10.44544 27.3351546,8.40408 C25.6277199,4.53872 21.8292416,2.584 18.0322677,2.584 C14.2593633,2.584 10.4894677,4.51136 8.76849377,8.41016 Z" id="Path"></path></g></g></g></svg>