<svg viewBox="0 0 86 120" version="1.1" xmlns="http://www.w3.org/2000/svg" class="small-svg__SmallSVG-sc-1vgeaaz-0 HLgqs"><g id="Page-1" stroke="none" stroke-width="1" fill="none" fill-rule="evenodd"><g id="Pivo-Grey" transform="translate(-0.000000, 40.000000)" fill="#fff" fill-rule="nonzero"><g id="Group" transform="translate(43.064150, 19.981917) scale(-1, 1) rotate(-180.000000) translate(-43.064150, -19.981917) translate(0.000000, 0.007233)"><path d="M11.7904702,39.8770344 C6.65474391,39.2188065 2.31469353,35.6745027 0.69440806,30.8209765 C-0.108501259,28.4195298 -0.217002519,25.6564195 0.397837951,23.283906 C0.80290932,21.7359855 1.55518472,20.0940325 2.44489505,18.835443 C3.07420235,17.9385172 4.74512175,16.2676311 5.64206549,15.6383363 C7.70358942,14.1844485 10.4739882,13.2296564 12.7886818,13.1790235 C13.3962888,13.164557 13.4613896,13.1790235 13.7868934,13.3743219 C14.474068,13.8083183 14.6693703,14.6835443 14.2281318,15.3562387 C13.9460285,15.7830018 13.5698908,15.9421338 12.7091142,16.0216998 C11.1683963,16.1518987 9.98934929,16.477396 8.71626784,17.1211573 C5.64929891,18.6546112 3.60224181,21.403255 2.98740134,24.8028933 C2.82826616,25.6998192 2.82826616,27.3996383 2.99463476,28.3471971 C3.75414358,32.6292948 7.01641478,35.9566004 11.3636986,36.8969259 C12.1232074,37.0632911 14.7489379,37.084991 15.4433459,36.9330922 C18.9153862,36.1735986 21.5845172,34.0904159 23.0673678,30.9873418 C23.6243409,29.8083183 23.9498447,28.5352622 24.0438791,27.1103074 C24.094513,26.4231465 24.1668472,26.1844485 24.4344836,25.8951175 C25.2373929,25.0415913 26.6045088,25.3960217 26.9155458,26.5316456 C27.0095802,26.8716094 26.8938455,28.2169982 26.6913098,29.2224231 C25.5411965,34.8065099 21.0203107,39.0379747 15.3276113,39.8481013 C14.5174685,39.9638336 12.5789127,39.9783002 11.7904702,39.8770344 Z" id="Path"></path><path d="M13.1286524,34.6473779 C12.2823426,34.2712477 12.0002393,33.2224231 12.5355122,32.4339964 C12.7814484,32.0578662 13.0852519,31.9276673 13.9098615,31.8119349 C14.821272,31.6962025 15.305911,31.5515371 15.9207515,31.2332731 C17.7001721,30.3001808 18.756251,28.5497288 18.756251,26.5388788 C18.756251,24.477396 17.6567716,22.7052441 15.8050168,21.7938517 C14.9659404,21.3815552 14.4379009,21.2658228 13.4541562,21.2658228 C12.4921117,21.2730561 11.942372,21.3960217 11.1756297,21.7793852 C9.46130982,22.6401447 8.39799748,24.1808318 8.20992863,26.0687161 C8.12312762,26.9294756 7.93505877,27.3056058 7.46488665,27.5732369 C6.83557935,27.920434 6.17733837,27.8336347 5.67823258,27.3345389 C5.26592779,26.9222423 5.1863602,26.5750452 5.28762804,25.6636528 C5.54079765,23.3924051 6.71261125,21.3164557 8.51373216,19.9638336 C9.59874475,19.1537071 10.8573594,18.6184448 12.2461755,18.4014467 C13.1141856,18.2567812 14.6983039,18.3435805 15.5446138,18.5750452 C17.9171746,19.2332731 19.7761629,20.7522604 20.8322418,22.9077758 C23.2554366,27.8553345 20.2752687,33.6925859 14.8357389,34.6401447 C14.0906969,34.7703436 13.4179891,34.7775769 13.1286524,34.6473779 Z" id="Path"></path><path d="M31.270063,21.801085 C29.4906423,21.5479204 27.942691,20.79566 26.6696096,19.5660036 C25.4254618,18.3652803 24.6442527,16.9475588 24.3042821,15.3056058 C24.1668472,14.6256781 24.1596138,14.3146474 24.1596138,7.77576854 L24.1523804,0.962025316 L24.318749,0.672694394 C24.8323216,-0.253164557 26.279005,-0.202531646 26.763644,0.752260398 C26.9083123,1.02712477 26.9083123,1.18625678 26.9083123,7.47197107 C26.9083123,14.3942134 26.9083123,14.4086799 27.2916835,15.4502712 C27.5737867,16.2169982 27.9065239,16.7233273 28.6081654,17.4249548 C29.6859446,18.5099458 30.8649916,19.0090416 32.3333753,19.0018083 C34.4382997,18.9873418 36.2538875,17.8589512 37.1797649,15.9783002 C37.5414358,15.2549729 37.6788707,14.7124774 37.736738,13.880651 C37.8886398,11.4864376 36.3262217,9.22965642 34.0042947,8.48462929 C33.1652183,8.21699819 32.3044416,8.14466546 31.4870655,8.27486438 C31.0602939,8.33996383 30.8432914,8.33996383 30.611822,8.28209765 C29.259173,7.91320072 29.2519395,5.960217 30.5973552,5.53345389 C31.6534341,5.2079566 33.6353904,5.30922242 34.9952729,5.7721519 C37.9031066,6.76311031 40.0152645,9.2875226 40.4709698,12.3254973 C40.7313728,14.039783 40.4854366,15.681736 39.7331612,17.2296564 C38.6192149,19.522604 36.5142905,21.1573237 33.975361,21.6998192 C33.3460537,21.8300181 31.8849034,21.8878843 31.270063,21.801085 Z" id="Path"></path><path d="M45.172691,21.7359855 C44.825487,21.5768535 44.601251,21.3453888 44.4493493,20.9909584 C44.3553149,20.7522604 44.340848,19.8625678 44.340848,13.5551537 C44.340848,6.6039783 44.3480814,6.37974684 44.478283,6.11211573 C44.6663518,5.74321881 45.0786566,5.3960217 45.3896935,5.33815552 C46.2938707,5.17179024 46.9955122,5.65641953 47.1618808,6.55334539 C47.2125147,6.81374322 47.2342149,9.34538879 47.2197481,13.8517179 L47.1980479,20.7522604 L47.0389127,21.0415913 C46.6483081,21.7721519 45.8743325,22.0614828 45.172691,21.7359855 Z" id="Path"></path><path d="M76.8188917,21.7938517 C75.1407389,21.5913201 73.3034509,20.7088608 72.1027036,19.5298373 C68.7897985,16.2965642 68.7536314,10.994575 72.0159026,7.7323689 C74.9237364,4.82459313 79.5241898,4.49186257 82.822628,6.95117541 C83.3651343,7.3562387 84.2548447,8.27486438 84.6309824,8.82459313 C86.3380688,11.2983725 86.6057053,14.4737794 85.318157,17.1500904 C84.8986188,18.0253165 84.5152477,18.5895118 83.8425399,19.283906 C82.649026,20.5424955 81.1300084,21.3743219 79.5024895,21.6853526 C78.7429807,21.8300181 77.5060663,21.880651 76.8188917,21.7938517 Z M79.5892905,18.7124774 C80.4790008,18.4014467 80.9564064,18.0976492 81.6652813,17.3887884 C82.3669228,16.6871609 82.6779597,16.1952984 82.9745298,15.3417722 C83.4736356,13.8878843 83.3579009,12.4267631 82.6200924,10.9873418 C82.2367212,10.2495479 81.1734089,9.20072333 80.3994332,8.80289331 C78.6344794,7.8915009 76.6669899,7.94936709 75.0322376,8.96925859 C73.4119521,9.97468354 72.4571411,11.681736 72.4571411,13.5551537 C72.4571411,14.5027125 72.6018094,15.1175407 73.0213476,15.9855335 C73.5276868,17.034358 74.5403652,18.0253165 75.6181444,18.517179 C76.3993535,18.8716094 76.9924937,18.9801085 78.0124055,18.9584087 C78.8442485,18.9367089 79.025084,18.9077758 79.5892905,18.7124774 Z" id="Shape"></path><path d="M51.1908942,21.6202532 C50.771356,21.3309222 50.6122208,20.9475588 50.6483879,20.2893309 L50.6773216,19.7396022 L54.2795634,12.9403255 C57.9903065,5.93851718 58.1422082,5.68535262 58.7064148,5.41772152 C59.2344542,5.17179024 60.1241646,5.41772152 60.5003023,5.91681736 C60.5943367,6.039783 62.2941898,9.20072333 64.2761461,12.9403255 L67.8856213,19.7396022 L67.9073216,20.318264 C67.9217884,20.8173599 67.9000882,20.9403255 67.7626532,21.1862568 C67.2997145,21.9819168 66.0989673,22.0036166 65.4479597,21.2296564 C65.3249916,21.084991 63.9000084,18.4593128 62.2797229,15.3996383 C60.652204,12.3327306 59.3067884,9.83001808 59.2850882,9.83001808 C59.2561545,9.83001808 57.9035055,12.3544304 56.2687531,15.4358047 C54.6267674,18.5244123 53.1945508,21.1500904 53.0643493,21.2802893 C52.5507767,21.8300181 51.7261671,21.9819168 51.1908942,21.6202532 Z" id="Path"></path></g></g></g></svg>