<svg width="26" height="24" viewBox="0 0 26 24" version="1.1" xmlns="http://www.w3.org/2000/svg"><g id="rn-sdk-icon" stroke="none" stroke-width="1" fill="none" fill-rule="evenodd"><g id="Developer-Home---Web" transform="translate(-1215.000000, -1936.000000)" fill="#FFFFFF" fill-rule="nonzero"><g id="React-icon" transform="translate(1215.000000, 1936.000000)"><path d="M26,12.0027466 C26,10.2174411 23.8430493,8.52552071 20.5360783,7.47631037 C21.2992254,3.98260472 20.9600489,1.20302129 19.4655524,0.313115129 C19.1210762,0.10437171 18.7183041,0.00549324788 18.2784346,0.00549324788 L18.2784346,1.23048753 C18.5222177,1.23048753 18.7183041,1.27992676 18.8825927,1.37331197 C19.6033428,1.80178531 19.9160212,3.43327993 19.6722381,5.53170062 C19.6139421,6.04806592 19.5185487,6.59189746 19.4019568,7.1467155 C18.3632287,6.8830396 17.2291072,6.67978943 16.0366898,6.54795148 C15.3212393,5.53170062 14.5792907,4.60883497 13.8320424,3.80132753 C15.5597228,2.13687343 17.1814105,1.22499428 18.2837342,1.22499428 L18.2837342,0 C18.2837342,0 18.2837342,0 18.2837342,0 C16.8263351,0 14.9184672,1.07667659 12.9894007,2.94438087 C11.0603343,1.08766308 9.15246637,0.0219729915 7.69506726,0.0219729915 L7.69506726,1.24696727 C8.79209132,1.24696727 10.4190787,2.15335317 12.1467591,3.80682078 C11.4048104,4.61432822 10.6628618,5.53170062 9.9580106,6.54795148 C8.76029352,6.67978943 7.62617203,6.8830396 6.58744395,7.15220874 C6.46555238,6.60288396 6.37545862,6.07003891 6.31186302,5.55916686 C6.06278027,3.46074617 6.37015899,1.82925154 7.08560946,1.39528496 C7.24459845,1.2964065 7.45128414,1.25246052 7.69506726,1.25246052 L7.69506726,0.0274662394 C7.69506726,0.0274662394 7.69506726,0.0274662394 7.69506726,0.0274662394 C7.24989808,0.0274662394 6.84712597,0.126344701 6.49735018,0.335088121 C5.00815328,1.22499428 4.6742764,3.99908446 5.4427232,7.48180362 C2.14635141,8.53650721 0,10.2229343 0,12.0027466 C0,13.7880522 2.15695067,15.4799725 5.46392173,16.5291829 C4.70077456,20.0228885 5.03995108,22.802472 6.53444762,23.6923781 C6.87892377,23.9011215 7.28169588,24 7.72686506,24 C9.18426417,24 11.0921321,22.9233234 13.0211985,21.0556191 C14.950265,22.9123369 16.8581329,23.978027 18.315532,23.978027 C18.7607012,23.978027 19.1634733,23.8791485 19.5132491,23.6704051 C21.002446,22.780499 21.3363229,20.0064088 20.5678761,16.5236896 C23.8536486,15.4744793 26,13.7825589 26,12.0027466 Z M19.0998777,8.33875029 C18.9037913,9.04737926 18.6600082,9.77798123 18.3844272,10.5085832 C18.1671423,10.0691234 17.9392581,9.62966354 17.6901753,9.19020371 C17.4463922,8.75074388 17.1867102,8.32227054 16.9270281,7.9047837 C17.679576,8.02014191 18.4056258,8.16296635 19.0998777,8.33875029 Z M16.6726457,14.1890593 C16.2592744,14.9306477 15.8353037,15.6337835 15.3954342,16.28748 C14.6057888,16.3588922 13.8055442,16.3973449 13,16.3973449 C12.1997554,16.3973449 11.3995108,16.3588922 10.6151651,16.2929732 C10.1752956,15.6392767 9.74602528,14.9416342 9.33265389,14.205539 C8.92988178,13.4859236 8.56420709,12.7553216 8.23033021,12.0192264 C8.55890746,11.2831312 8.92988178,10.5470359 9.32735426,9.82742046 C9.74072564,9.085832 10.1646963,8.38269627 10.6045658,7.72899977 C11.3942112,7.65758755 12.1944558,7.61913481 13,7.61913481 C13.8002446,7.61913481 14.6004892,7.65758755 15.3848349,7.72350652 C15.8247044,8.37720302 16.2539747,9.0748455 16.6673461,9.81094072 C17.0701182,10.5305562 17.4357929,11.2611582 17.7696698,11.9972534 C17.4357929,12.7333486 17.0701182,13.4694438 16.6726457,14.1890593 Z M18.3844272,13.4749371 C18.6706074,14.2110323 18.9143905,14.9471275 19.1157766,15.6612497 C18.4215247,15.8370336 17.6901753,15.9853513 16.9323278,16.1007095 C17.1920098,15.6777295 17.4516918,15.2437629 17.6954749,14.7988098 C17.9392581,14.35935 18.1671423,13.9143969 18.3844272,13.4749371 Z M13.0105993,19.3362325 C12.5177334,18.8088808 12.0248675,18.2211032 11.5373013,17.5783932 C12.0142682,17.6003662 12.5018345,17.616846 12.9947004,17.616846 C13.4928659,17.616846 13.9857318,17.6058595 14.4679984,17.5783932 C13.9910314,18.2211032 13.4981655,18.8088808 13.0105993,19.3362325 Z M9.06767224,16.1007095 C8.31512434,15.9853513 7.5890746,15.8425269 6.89482267,15.666743 C7.09090909,14.958114 7.33469221,14.227512 7.61027313,13.49691 C7.82755809,13.9363699 8.05544232,14.3758297 8.30452507,14.8152895 C8.55360783,15.2547494 8.80799022,15.6832227 9.06767224,16.1007095 Z M12.9841011,4.6692607 C13.476967,5.1966125 13.9698329,5.78439002 14.4573991,6.42710002 C13.9804321,6.40512703 13.4928659,6.38864729 13,6.38864729 C12.5018345,6.38864729 12.0089686,6.39963378 11.526702,6.42710002 C12.003669,5.78439002 12.4965349,5.1966125 12.9841011,4.6692607 Z M9.0623726,7.9047837 C8.80269058,8.32776379 8.54300856,8.76173037 8.29922544,9.20668345 C8.05544232,9.64614328 7.82755809,10.0856031 7.61027313,10.5250629 C7.32409295,9.78896773 7.08030982,9.05287251 6.87892377,8.33875029 C7.5731757,8.1684596 8.30452507,8.02014191 9.0623726,7.9047837 Z M4.26620465,14.7823301 C2.39013453,13.9528496 1.17651855,12.8651865 1.17651855,12.0027466 C1.17651855,11.1403067 2.39013453,10.0471504 4.26620465,9.2231632 C4.72197309,9.01991302 5.22013861,8.83863584 5.73420302,8.66834516 C6.0362821,9.74502174 6.43375459,10.8656443 6.92662046,12.0137331 C6.43905422,13.1563287 6.04688137,14.271458 5.75010192,15.3426413 C5.22543824,15.1723507 4.72727273,14.9855802 4.26620465,14.7823301 Z M7.11740726,22.6321813 C6.39665715,22.2037079 6.0839788,20.5722133 6.32776192,18.4737926 C6.38605789,17.9574273 6.48145128,17.4135958 6.59804321,16.8587778 C7.6367713,17.1224537 8.77089278,17.3257038 9.96331023,17.4575418 C10.6787607,18.4737926 11.4207093,19.3966583 12.1679576,20.2041657 C10.4402772,21.8686198 8.81858948,22.780499 7.7162658,22.780499 C7.47778231,22.7750057 7.27639625,22.7255665 7.11740726,22.6321813 Z M19.688137,18.4463264 C19.9372197,20.5447471 19.629841,22.1762417 18.9143905,22.6102083 C18.7554015,22.7090867 18.5487159,22.7530327 18.3049327,22.7530327 C17.2079087,22.7530327 15.5809213,21.8466468 13.8532409,20.1931792 C14.5951896,19.3856718 15.3371382,18.4682994 16.0419894,17.4520485 C17.2397065,17.3202106 18.373828,17.1169604 19.4125561,16.8477913 C19.5344476,17.4026093 19.629841,17.9354543 19.688137,18.4463264 Z M21.7284957,14.7823301 C21.2727273,14.9855802 20.7745618,15.1668574 20.2604974,15.3371481 C19.9584183,14.2604715 19.5609458,13.1398489 19.0680799,11.9917601 C19.5556461,10.8491646 19.947819,9.73403525 20.2445985,8.66285191 C20.7692621,8.8331426 21.2674276,9.01991302 21.7337954,9.2231632 C23.6098655,10.0526436 24.8234815,11.1403067 24.8234815,12.0027466 C24.8181818,12.8651865 23.6045658,13.9583429 21.7284957,14.7823301 Z" id="Shape"></path><ellipse id="Oval" cx="13" cy="12" rx="2.40740741" ry="2.5"></ellipse></g></g></g></svg>